<svg width="90" height="90" viewBox="0 0 90 90" fill="none" xmlns="http://www.w3.org/2000/svg">
<g id="IDIO_circle_orange">
<rect width="90" height="90" rx="45" fill="#FF5F33"/>
<g id="logo" style="mix-blend-mode:multiply">
<path d="M27.955 37.295L28.675 35.865C32.275 37.545 34.675 41.175 34.675 44.995C34.675 48.815 32.285 52.455 28.675 54.125L27.955 52.695C30.625 51.065 32.395 48.005 32.395 44.995C32.395 41.985 30.615 38.925 27.955 37.295ZM45.255 44.995C45.255 43.635 44.165 42.455 42.715 42.455C41.265 42.455 40.175 43.595 40.175 44.995C40.175 46.395 41.315 47.535 42.715 47.535C44.115 47.535 45.255 46.395 45.255 44.995ZM58.705 44.995C58.705 48.825 61.095 52.455 64.705 54.125L65.425 52.695C62.755 51.065 60.985 48.005 60.985 44.995C60.985 41.985 62.765 38.925 65.425 37.295L64.705 35.865C61.105 37.545 58.705 41.175 58.705 44.995ZM53.465 54.125V35.865H51.245V54.135H53.465V54.125ZM69.015 35.865L68.295 37.295C70.965 38.925 72.735 41.985 72.735 44.995C72.735 48.005 70.955 51.065 68.295 52.695L69.015 54.125C72.615 52.445 75.015 48.815 75.015 44.995C75.015 41.175 72.625 37.535 69.015 35.865ZM25.275 54.135V35.865H23.055V54.135H25.275ZM17.205 54.135V35.865H14.985V54.135H17.205Z" fill="#1A1A1A"/>
</g>
</g>
</svg>
