<svg width="61" height="40" viewBox="0 0 61 40" fill="none" xmlns="http://www.w3.org/2000/svg">
<g clip-path="url(#clip0_259_415)">
<path d="M0.73 25.36C0.53 25.36 0.36 25.29 0.21 25.16C0.07 25.03 0 24.86 0 24.68C0 24.5 0.07 24.33 0.21 24.2C0.35 24.07 0.53 24 0.73 24C0.93 24 1.1 24.07 1.25 24.2C1.39 24.33 1.46 24.49 1.46 24.68C1.46 24.87 1.39 25.03 1.25 25.16C1.11 25.29 0.93 25.36 0.73 25.36ZM0.05 30.87V25.98H1.4V30.87H0.05Z" fill="white"/>
<path d="M4.01003 28.05V30.87H2.66003V25.98H3.95003V26.84H4.01003C4.12003 26.56 4.30003 26.33 4.55003 26.16C4.80003 25.99 5.11003 25.91 5.48003 25.91C5.82003 25.91 6.11003 25.98 6.37003 26.13C6.62003 26.28 6.82003 26.49 6.96003 26.76C7.10003 27.03 7.17003 27.36 7.17003 27.74V30.85H5.81003V27.98C5.81003 27.68 5.74003 27.45 5.58003 27.28C5.42003 27.11 5.21003 27.03 4.94003 27.03C4.76003 27.03 4.60003 27.07 4.46003 27.15C4.32003 27.23 4.21003 27.34 4.13003 27.49C4.05003 27.64 4.01003 27.82 4.01003 28.03V28.05Z" fill="white"/>
<path d="M12.74 25.99L11.03 30.88H9.49998L7.78998 25.99H9.21998L10.23 29.49H10.28L11.29 25.99H12.72H12.74Z" fill="white"/>
<path d="M15.58 30.97C15.08 30.97 14.65 30.87 14.28 30.66C13.92 30.45 13.64 30.16 13.45 29.79C13.26 29.41 13.16 28.97 13.16 28.45C13.16 27.93 13.26 27.51 13.45 27.13C13.65 26.75 13.92 26.45 14.28 26.24C14.63 26.03 15.05 25.92 15.53 25.92C15.85 25.92 16.15 25.97 16.43 26.07C16.71 26.17 16.95 26.33 17.16 26.53C17.37 26.73 17.53 26.99 17.65 27.3C17.77 27.61 17.82 27.97 17.82 28.39V28.76H13.7V27.92H16.55C16.55 27.73 16.51 27.55 16.42 27.4C16.34 27.25 16.22 27.13 16.07 27.05C15.92 26.97 15.75 26.92 15.55 26.92C15.35 26.92 15.16 26.97 15.01 27.06C14.85 27.15 14.73 27.28 14.64 27.44C14.55 27.6 14.51 27.77 14.5 27.97V28.77C14.5 29.01 14.54 29.22 14.64 29.4C14.73 29.58 14.86 29.71 15.02 29.81C15.19 29.9 15.38 29.95 15.61 29.95C15.76 29.95 15.9 29.93 16.02 29.89C16.14 29.85 16.25 29.78 16.34 29.7C16.43 29.61 16.5 29.51 16.54 29.39L17.79 29.47C17.73 29.77 17.6 30.03 17.4 30.26C17.2 30.49 16.95 30.66 16.64 30.78C16.33 30.9 15.97 30.97 15.57 30.97H15.58Z" fill="white"/>
<path d="M22.89 27.38L21.65 27.46C21.63 27.35 21.58 27.26 21.51 27.17C21.44 27.08 21.35 27.02 21.23 26.96C21.12 26.91 20.98 26.88 20.82 26.88C20.61 26.88 20.43 26.92 20.29 27.01C20.15 27.1 20.07 27.22 20.07 27.36C20.07 27.48 20.12 27.58 20.21 27.66C20.3 27.74 20.46 27.81 20.69 27.85L21.57 28.03C22.05 28.13 22.4 28.28 22.63 28.5C22.86 28.72 22.98 29 22.98 29.35C22.98 29.67 22.89 29.95 22.7 30.19C22.51 30.43 22.26 30.62 21.93 30.75C21.6 30.88 21.23 30.95 20.81 30.95C20.16 30.95 19.65 30.82 19.27 30.54C18.89 30.26 18.66 29.9 18.6 29.43L19.93 29.36C19.97 29.56 20.07 29.71 20.22 29.81C20.37 29.91 20.57 29.96 20.81 29.96C21.05 29.96 21.24 29.91 21.38 29.82C21.52 29.73 21.6 29.61 21.6 29.46C21.6 29.34 21.55 29.24 21.44 29.16C21.34 29.08 21.18 29.02 20.97 28.98L20.12 28.81C19.64 28.71 19.29 28.55 19.06 28.31C18.83 28.07 18.71 27.77 18.71 27.41C18.71 27.1 18.79 26.83 18.97 26.6C19.15 26.37 19.38 26.2 19.69 26.08C20 25.96 20.36 25.9 20.78 25.9C21.4 25.9 21.88 26.03 22.24 26.29C22.59 26.55 22.8 26.91 22.86 27.36L22.89 27.38Z" fill="white"/>
<path d="M26.57 25.99V27.01H23.63V25.99H26.57ZM24.3 24.82H25.66V29.38C25.66 29.5 25.68 29.6 25.72 29.67C25.76 29.74 25.81 29.79 25.88 29.81C25.95 29.84 26.03 29.85 26.12 29.85C26.18 29.85 26.25 29.85 26.31 29.83C26.37 29.82 26.42 29.81 26.46 29.8L26.67 30.81C26.6 30.83 26.51 30.86 26.38 30.89C26.25 30.92 26.11 30.94 25.93 30.94C25.6 30.95 25.32 30.91 25.07 30.81C24.82 30.71 24.63 30.56 24.5 30.35C24.37 30.14 24.3 29.87 24.3 29.55V24.82Z" fill="white"/>
<path d="M28.26 25.36C28.06 25.36 27.89 25.29 27.74 25.16C27.6 25.03 27.53 24.86 27.53 24.68C27.53 24.5 27.6 24.33 27.74 24.2C27.88 24.07 28.06 24 28.26 24C28.46 24 28.63 24.07 28.78 24.2C28.92 24.33 28.99 24.49 28.99 24.68C28.99 24.87 28.92 25.03 28.78 25.16C28.64 25.29 28.46 25.36 28.26 25.36ZM27.58 30.88V25.99H28.93V30.88H27.58Z" fill="white"/>
<path d="M32.35 32.81C31.91 32.81 31.53 32.75 31.22 32.63C30.91 32.51 30.66 32.35 30.47 32.14C30.29 31.93 30.17 31.7 30.11 31.45L31.36 31.28C31.4 31.38 31.46 31.47 31.54 31.55C31.62 31.63 31.73 31.7 31.87 31.76C32.01 31.82 32.17 31.84 32.37 31.84C32.66 31.84 32.91 31.77 33.1 31.63C33.29 31.49 33.39 31.25 33.39 30.91V30.02H33.33C33.27 30.16 33.18 30.28 33.06 30.4C32.94 30.52 32.79 30.62 32.6 30.7C32.41 30.78 32.19 30.82 31.93 30.82C31.56 30.82 31.23 30.73 30.93 30.56C30.63 30.39 30.39 30.13 30.21 29.77C30.03 29.42 29.94 28.97 29.94 28.43C29.94 27.89 30.03 27.41 30.21 27.04C30.39 26.67 30.63 26.39 30.93 26.21C31.23 26.03 31.56 25.93 31.92 25.93C32.19 25.93 32.42 25.98 32.61 26.07C32.8 26.16 32.94 26.28 33.06 26.41C33.18 26.54 33.26 26.68 33.32 26.81H33.37V25.99H34.72V30.92C34.72 31.34 34.62 31.68 34.41 31.96C34.21 32.24 33.93 32.45 33.57 32.59C33.21 32.73 32.8 32.8 32.33 32.8L32.35 32.81ZM32.38 29.79C32.6 29.79 32.78 29.74 32.93 29.63C33.08 29.52 33.2 29.36 33.28 29.16C33.36 28.96 33.4 28.71 33.4 28.42C33.4 28.13 33.36 27.89 33.28 27.67C33.2 27.46 33.08 27.29 32.93 27.18C32.78 27.07 32.59 27.01 32.37 27.01C32.15 27.01 31.96 27.07 31.81 27.19C31.66 27.31 31.54 27.48 31.46 27.69C31.38 27.9 31.34 28.15 31.34 28.42C31.34 28.69 31.38 28.95 31.46 29.15C31.54 29.36 31.66 29.51 31.81 29.62C31.96 29.73 32.15 29.79 32.37 29.79H32.38Z" fill="white"/>
<path d="M37.37 30.97C37.06 30.97 36.78 30.92 36.54 30.81C36.3 30.7 36.1 30.54 35.96 30.32C35.82 30.1 35.75 29.84 35.75 29.51C35.75 29.24 35.8 29.01 35.9 28.83C36 28.65 36.14 28.5 36.31 28.38C36.48 28.27 36.68 28.18 36.9 28.13C37.12 28.07 37.35 28.03 37.59 28.01C37.87 27.98 38.1 27.95 38.28 27.93C38.45 27.9 38.58 27.86 38.66 27.81C38.74 27.76 38.78 27.68 38.78 27.57V27.55C38.78 27.35 38.72 27.19 38.59 27.08C38.46 26.97 38.28 26.91 38.05 26.91C37.81 26.91 37.61 26.96 37.47 27.07C37.33 27.18 37.23 27.31 37.18 27.47L35.93 27.37C35.99 27.07 36.12 26.82 36.31 26.6C36.5 26.38 36.74 26.22 37.03 26.1C37.32 25.98 37.67 25.92 38.06 25.92C38.33 25.92 38.59 25.95 38.84 26.02C39.09 26.08 39.31 26.18 39.51 26.32C39.7 26.45 39.86 26.62 39.97 26.83C40.08 27.04 40.14 27.29 40.14 27.58V30.88H38.85V30.2H38.81C38.73 30.35 38.63 30.49 38.49 30.6C38.36 30.72 38.2 30.81 38.02 30.87C37.84 30.94 37.62 30.97 37.38 30.97H37.37ZM37.76 30.03C37.96 30.03 38.14 29.99 38.29 29.91C38.44 29.83 38.56 29.72 38.65 29.59C38.74 29.46 38.78 29.3 38.78 29.13V28.61C38.78 28.61 38.68 28.66 38.61 28.68C38.54 28.7 38.45 28.72 38.36 28.74C38.27 28.76 38.18 28.77 38.09 28.79C38 28.8 37.92 28.82 37.84 28.83C37.68 28.85 37.54 28.89 37.42 28.94C37.3 28.99 37.21 29.06 37.14 29.15C37.07 29.24 37.04 29.34 37.04 29.47C37.04 29.65 37.11 29.8 37.24 29.89C37.37 29.98 37.55 30.03 37.75 30.03H37.76Z" fill="white"/>
<path d="M43.85 25.99V27.01H40.91V25.99H43.85ZM41.58 24.82H42.94V29.38C42.94 29.5 42.96 29.6 43 29.67C43.04 29.74 43.09 29.79 43.16 29.81C43.23 29.84 43.31 29.85 43.4 29.85C43.46 29.85 43.53 29.85 43.59 29.83C43.65 29.82 43.7 29.81 43.74 29.8L43.95 30.81C43.88 30.83 43.79 30.86 43.66 30.89C43.53 30.92 43.39 30.94 43.21 30.94C42.88 30.95 42.6 30.91 42.35 30.81C42.1 30.71 41.91 30.56 41.78 30.35C41.65 30.14 41.58 29.87 41.58 29.55V24.82Z" fill="white"/>
<path d="M45.54 25.36C45.34 25.36 45.17 25.29 45.02 25.16C44.88 25.03 44.81 24.86 44.81 24.68C44.81 24.5 44.88 24.33 45.02 24.2C45.16 24.07 45.34 24 45.54 24C45.74 24 45.91 24.07 46.06 24.2C46.2 24.33 46.27 24.49 46.27 24.68C46.27 24.87 46.2 25.03 46.06 25.16C45.92 25.29 45.74 25.36 45.54 25.36ZM44.86 30.88V25.99H46.21V30.88H44.86Z" fill="white"/>
<path d="M51.96 25.99L50.25 30.88H48.72L47.01 25.99H48.44L49.45 29.49H49.5L50.51 25.99H51.94H51.96Z" fill="white"/>
<path d="M54.8 30.97C54.3 30.97 53.87 30.87 53.5 30.66C53.14 30.45 52.86 30.16 52.67 29.79C52.48 29.41 52.38 28.97 52.38 28.45C52.38 27.93 52.48 27.51 52.67 27.13C52.87 26.75 53.14 26.45 53.5 26.24C53.85 26.03 54.27 25.92 54.75 25.92C55.07 25.92 55.37 25.97 55.65 26.07C55.93 26.17 56.17 26.33 56.38 26.53C56.59 26.73 56.75 26.99 56.87 27.3C56.99 27.61 57.04 27.97 57.04 28.39V28.76H52.92V27.92H55.77C55.77 27.73 55.73 27.55 55.64 27.4C55.56 27.25 55.44 27.13 55.29 27.05C55.14 26.97 54.97 26.92 54.77 26.92C54.57 26.92 54.38 26.97 54.23 27.06C54.07 27.15 53.95 27.28 53.86 27.44C53.77 27.6 53.73 27.77 53.72 27.97V28.77C53.72 29.01 53.76 29.22 53.86 29.4C53.95 29.58 54.08 29.71 54.24 29.81C54.41 29.9 54.6 29.95 54.83 29.95C54.98 29.95 55.12 29.93 55.24 29.89C55.36 29.85 55.47 29.78 55.56 29.7C55.65 29.61 55.72 29.51 55.76 29.39L57.01 29.47C56.95 29.77 56.82 30.03 56.62 30.26C56.42 30.49 56.17 30.66 55.86 30.78C55.55 30.9 55.19 30.97 54.79 30.97H54.8Z" fill="white"/>
<path d="M1.98 39.76C1.61 39.76 1.27 39.66 0.970001 39.47C0.670001 39.28 0.430002 38.99 0.260002 38.62C0.0900021 38.25 0 37.79 0 37.24C0 36.69 0.0900005 36.21 0.27 35.84C0.45 35.47 0.690002 35.19 0.990002 35C1.29 34.81 1.62 34.72 1.98 34.72C2.25 34.72 2.48 34.77 2.67 34.86C2.86 34.95 3 35.07 3.12 35.2C3.24 35.33 3.32 35.47 3.38 35.6H3.42V33.15H4.77V39.66H3.43V38.88H3.37C3.31 39.02 3.22 39.15 3.1 39.28C2.98 39.41 2.84 39.52 2.65 39.61C2.46 39.7 2.24 39.74 1.98 39.74V39.76ZM2.41 38.68C2.63 38.68 2.81 38.62 2.96 38.5C3.11 38.38 3.23 38.21 3.31 38C3.39 37.78 3.43 37.53 3.43 37.24C3.43 36.95 3.39 36.7 3.31 36.48C3.23 36.27 3.11 36.1 2.96 35.98C2.81 35.86 2.62 35.81 2.4 35.81C2.18 35.81 1.99 35.87 1.84 35.99C1.69 36.11 1.57 36.28 1.49 36.49C1.41 36.7 1.37 36.95 1.37 37.23C1.37 37.51 1.41 37.76 1.49 37.98C1.57 38.2 1.69 38.37 1.84 38.49C1.99 38.61 2.18 38.67 2.4 38.67L2.41 38.68Z" fill="white"/>
<path d="M7.40998 39.78C7.09998 39.78 6.81998 39.73 6.57998 39.62C6.33998 39.51 6.13998 39.35 5.99998 39.13C5.85998 38.91 5.78998 38.65 5.78998 38.32C5.78998 38.05 5.83998 37.82 5.93998 37.64C6.03998 37.46 6.17998 37.31 6.34998 37.19C6.51998 37.08 6.71998 36.99 6.93998 36.94C7.15998 36.88 7.38997 36.84 7.62997 36.82C7.90997 36.79 8.13998 36.76 8.31998 36.74C8.48998 36.71 8.61997 36.67 8.69997 36.62C8.77997 36.57 8.81998 36.49 8.81998 36.38V36.36C8.81998 36.16 8.75997 36 8.62997 35.89C8.49997 35.78 8.31998 35.72 8.08998 35.72C7.84998 35.72 7.64998 35.77 7.50998 35.88C7.36998 35.99 7.26998 36.12 7.21998 36.28L5.96998 36.18C6.02998 35.88 6.15998 35.63 6.34998 35.41C6.53998 35.19 6.77998 35.03 7.06998 34.91C7.35998 34.79 7.70998 34.73 8.09998 34.73C8.36998 34.73 8.62997 34.76 8.87997 34.83C9.12997 34.89 9.34998 34.99 9.54998 35.13C9.73998 35.26 9.89998 35.43 10.01 35.64C10.12 35.85 10.18 36.1 10.18 36.39V39.69H8.88998V39.01H8.84998C8.76998 39.16 8.66998 39.3 8.52998 39.41C8.39998 39.53 8.23997 39.62 8.05997 39.68C7.87997 39.75 7.65998 39.78 7.41998 39.78H7.40998ZM7.79998 38.84C7.99998 38.84 8.17998 38.8 8.32998 38.72C8.47998 38.64 8.59998 38.53 8.68998 38.4C8.77998 38.27 8.81998 38.11 8.81998 37.94V37.42C8.81998 37.42 8.71998 37.47 8.64998 37.49C8.57998 37.51 8.48998 37.53 8.39998 37.55C8.30998 37.57 8.21997 37.58 8.12997 37.6C8.03997 37.61 7.95997 37.63 7.87997 37.64C7.71997 37.66 7.57998 37.7 7.45998 37.75C7.33998 37.8 7.24998 37.87 7.17998 37.96C7.10998 38.05 7.07998 38.15 7.07998 38.28C7.07998 38.46 7.14998 38.61 7.27998 38.7C7.40998 38.79 7.58998 38.84 7.78998 38.84H7.79998Z" fill="white"/>
<path d="M13.89 34.8V35.82H10.95V34.8H13.89ZM11.62 33.63H12.98V38.19C12.98 38.31 13 38.41 13.04 38.48C13.08 38.55 13.13 38.6 13.2 38.62C13.27 38.65 13.35 38.66 13.44 38.66C13.5 38.66 13.57 38.66 13.63 38.64C13.69 38.63 13.74 38.62 13.78 38.61L13.99 39.62C13.92 39.64 13.83 39.67 13.7 39.7C13.57 39.73 13.43 39.75 13.25 39.75C12.92 39.76 12.64 39.72 12.39 39.62C12.14 39.52 11.95 39.37 11.82 39.16C11.69 38.95 11.62 38.68 11.62 38.36V33.63Z" fill="white"/>
<path d="M16.24 39.78C15.93 39.78 15.65 39.73 15.41 39.62C15.17 39.51 14.97 39.35 14.83 39.13C14.69 38.91 14.62 38.65 14.62 38.32C14.62 38.05 14.67 37.82 14.77 37.64C14.87 37.46 15.01 37.31 15.18 37.19C15.35 37.08 15.55 36.99 15.77 36.94C15.99 36.88 16.22 36.84 16.46 36.82C16.74 36.79 16.97 36.76 17.15 36.74C17.32 36.71 17.45 36.67 17.53 36.62C17.61 36.57 17.65 36.49 17.65 36.38V36.36C17.65 36.16 17.59 36 17.46 35.89C17.33 35.78 17.15 35.72 16.92 35.72C16.68 35.72 16.48 35.77 16.34 35.88C16.2 35.99 16.1 36.12 16.05 36.28L14.8 36.18C14.86 35.88 14.99 35.63 15.18 35.41C15.37 35.19 15.61 35.03 15.9 34.91C16.19 34.79 16.54 34.73 16.93 34.73C17.2 34.73 17.46 34.76 17.71 34.83C17.96 34.89 18.18 34.99 18.38 35.13C18.57 35.26 18.73 35.43 18.84 35.64C18.95 35.85 19.01 36.1 19.01 36.39V39.69H17.72V39.01H17.68C17.6 39.16 17.5 39.3 17.36 39.41C17.23 39.53 17.07 39.62 16.89 39.68C16.71 39.75 16.49 39.78 16.25 39.78H16.24ZM16.63 38.84C16.83 38.84 17.01 38.8 17.16 38.72C17.31 38.64 17.43 38.53 17.52 38.4C17.61 38.27 17.65 38.11 17.65 37.94V37.42C17.65 37.42 17.55 37.47 17.48 37.49C17.41 37.51 17.32 37.53 17.23 37.55C17.14 37.57 17.05 37.58 16.96 37.6C16.87 37.61 16.79 37.63 16.71 37.64C16.55 37.66 16.41 37.7 16.29 37.75C16.17 37.8 16.08 37.87 16.01 37.96C15.94 38.05 15.91 38.15 15.91 38.28C15.91 38.46 15.98 38.61 16.11 38.7C16.24 38.79 16.42 38.84 16.62 38.84H16.63Z" fill="white"/>
<path d="M21.03 39.77C20.82 39.77 20.64 39.69 20.49 39.55C20.34 39.41 20.27 39.22 20.27 39.01C20.27 38.8 20.35 38.62 20.49 38.48C20.64 38.33 20.82 38.26 21.03 38.26C21.24 38.26 21.41 38.33 21.56 38.48C21.71 38.63 21.79 38.81 21.79 39.01C21.79 39.15 21.75 39.28 21.68 39.39C21.61 39.51 21.52 39.6 21.4 39.67C21.29 39.74 21.16 39.77 21.02 39.77H21.03Z" fill="white"/>
<path d="M23.74 34.17C23.54 34.17 23.37 34.1 23.22 33.97C23.08 33.84 23.01 33.67 23.01 33.49C23.01 33.31 23.08 33.14 23.22 33.01C23.36 32.88 23.54 32.81 23.74 32.81C23.94 32.81 24.11 32.88 24.26 33.01C24.4 33.14 24.47 33.3 24.47 33.49C24.47 33.68 24.4 33.84 24.26 33.97C24.12 34.1 23.94 34.17 23.74 34.17ZM23.06 39.69V34.8H24.41V39.69H23.06Z" fill="white"/>
<path d="M27.84 39.78C27.35 39.78 26.92 39.67 26.56 39.46C26.2 39.25 25.92 38.95 25.73 38.58C25.54 38.2 25.44 37.76 25.44 37.26C25.44 36.76 25.54 36.31 25.73 35.94C25.93 35.56 26.2 35.27 26.56 35.06C26.92 34.85 27.35 34.74 27.84 34.74C28.33 34.74 28.76 34.85 29.12 35.06C29.48 35.27 29.76 35.57 29.95 35.94C30.15 36.32 30.24 36.76 30.24 37.26C30.24 37.76 30.14 38.2 29.95 38.58C29.75 38.96 29.48 39.25 29.12 39.46C28.76 39.67 28.33 39.78 27.84 39.78ZM27.84 38.73C28.06 38.73 28.25 38.67 28.4 38.54C28.55 38.41 28.66 38.24 28.74 38.01C28.82 37.79 28.86 37.53 28.86 37.25C28.86 36.97 28.82 36.71 28.74 36.49C28.66 36.27 28.55 36.09 28.4 35.96C28.25 35.83 28.06 35.77 27.84 35.77C27.62 35.77 27.42 35.83 27.27 35.96C27.12 36.09 27 36.27 26.92 36.49C26.84 36.71 26.8 36.97 26.8 37.25C26.8 37.53 26.84 37.79 26.92 38.01C27 38.23 27.11 38.41 27.27 38.54C27.42 38.67 27.61 38.73 27.84 38.73Z" fill="white"/>
<g style="mix-blend-mode:multiply">
<path d="M12.97 1.43L13.69 0C17.29 1.68 19.69 5.31 19.69 9.13C19.69 12.95 17.3 16.59 13.69 18.26L12.97 16.83C15.64 15.2 17.41 12.14 17.41 9.13C17.41 6.12 15.63 3.06 12.97 1.43ZM30.27 9.13C30.27 7.77 29.18 6.59 27.73 6.59C26.28 6.59 25.19 7.73 25.19 9.13C25.19 10.53 26.33 11.67 27.73 11.67C29.13 11.67 30.27 10.53 30.27 9.13ZM43.72 9.13C43.72 12.96 46.11 16.59 49.72 18.26L50.44 16.83C47.77 15.2 46 12.14 46 9.13C46 6.12 47.78 3.06 50.44 1.43L49.72 0C46.12 1.68 43.72 5.31 43.72 9.13ZM38.48 18.26V0H36.26V18.27H38.48V18.26ZM54.03 0L53.31 1.43C55.98 3.06 57.75 6.12 57.75 9.13C57.75 12.14 55.97 15.2 53.31 16.83L54.03 18.26C57.63 16.58 60.03 12.95 60.03 9.13C60.03 5.31 57.64 1.67 54.03 0ZM10.29 18.27V0H8.07V18.27H10.29ZM2.22 18.27V0H0V18.27H2.22Z" fill="white"/>
</g>
</g>
<defs>
<clipPath id="clip0_259_415">
<rect width="60.03" height="39.78" fill="white"/>
</clipPath>
</defs>
</svg>
