<svg width="89" height="34" viewBox="0 0 89 34" fill="none" xmlns="http://www.w3.org/2000/svg">
<g clip-path="url(#clip0_259_414)">
<g style="mix-blend-mode:multiply">
<path d="M0.73 25.69C0.53 25.69 0.36 25.62 0.21 25.49C0.07 25.36 0 25.19 0 25.01C0 24.83 0.07 24.66 0.21 24.53C0.35 24.4 0.53 24.33 0.73 24.33C0.93 24.33 1.1 24.4 1.25 24.53C1.39 24.66 1.46 24.82 1.46 25.01C1.46 25.2 1.39 25.36 1.25 25.49C1.11 25.62 0.93 25.69 0.73 25.69ZM0.05 31.2V26.31H1.4V31.2H0.05Z" fill="white"/>
<path d="M4.00997 28.38V31.2H2.65997V26.31H3.94997V27.17H4.00997C4.11997 26.89 4.29997 26.66 4.54997 26.49C4.79997 26.32 5.10997 26.24 5.47997 26.24C5.81997 26.24 6.10997 26.31 6.36997 26.46C6.61997 26.61 6.81997 26.82 6.95997 27.09C7.09997 27.36 7.16997 27.69 7.16997 28.07V31.18H5.80997V28.31C5.80997 28.01 5.73997 27.78 5.57997 27.61C5.41997 27.44 5.20997 27.36 4.93997 27.36C4.75997 27.36 4.59997 27.4 4.45997 27.48C4.31997 27.56 4.20997 27.67 4.12997 27.82C4.04997 27.97 4.00997 28.15 4.00997 28.36V28.38Z" fill="white"/>
<path d="M12.74 26.32L11.03 31.21H9.49998L7.78998 26.32H9.21998L10.23 29.82H10.28L11.29 26.32H12.72H12.74Z" fill="white"/>
<path d="M15.58 31.3C15.08 31.3 14.65 31.2 14.28 30.99C13.92 30.78 13.64 30.49 13.45 30.12C13.26 29.74 13.16 29.3 13.16 28.78C13.16 28.26 13.26 27.84 13.45 27.46C13.65 27.08 13.92 26.78 14.28 26.57C14.63 26.36 15.05 26.25 15.53 26.25C15.85 26.25 16.15 26.3 16.43 26.4C16.71 26.5 16.95 26.66 17.16 26.86C17.37 27.06 17.53 27.32 17.65 27.63C17.77 27.94 17.82 28.3 17.82 28.72V29.09H13.7V28.25H16.55C16.55 28.06 16.51 27.88 16.42 27.73C16.34 27.58 16.22 27.46 16.07 27.38C15.92 27.3 15.75 27.25 15.55 27.25C15.35 27.25 15.16 27.3 15.01 27.39C14.85 27.48 14.73 27.61 14.64 27.77C14.55 27.93 14.51 28.1 14.5 28.3V29.1C14.5 29.34 14.54 29.55 14.64 29.73C14.73 29.91 14.86 30.04 15.02 30.14C15.19 30.23 15.38 30.28 15.61 30.28C15.76 30.28 15.9 30.26 16.02 30.22C16.14 30.18 16.25 30.11 16.34 30.03C16.43 29.94 16.5 29.84 16.54 29.72L17.79 29.8C17.73 30.1 17.6 30.36 17.4 30.59C17.2 30.82 16.95 30.99 16.64 31.11C16.33 31.23 15.97 31.3 15.57 31.3H15.58Z" fill="white"/>
<path d="M22.89 27.71L21.65 27.79C21.63 27.68 21.58 27.59 21.51 27.5C21.44 27.41 21.35 27.35 21.23 27.29C21.12 27.24 20.98 27.21 20.82 27.21C20.61 27.21 20.43 27.25 20.29 27.34C20.15 27.43 20.07 27.55 20.07 27.69C20.07 27.81 20.12 27.91 20.21 27.99C20.3 28.07 20.46 28.14 20.69 28.18L21.57 28.36C22.05 28.46 22.4 28.61 22.63 28.83C22.86 29.05 22.98 29.33 22.98 29.68C22.98 30 22.89 30.28 22.7 30.52C22.51 30.76 22.26 30.95 21.93 31.08C21.6 31.21 21.23 31.28 20.81 31.28C20.16 31.28 19.65 31.15 19.27 30.87C18.89 30.59 18.66 30.23 18.6 29.76L19.93 29.69C19.97 29.89 20.07 30.04 20.22 30.14C20.37 30.24 20.57 30.29 20.81 30.29C21.05 30.29 21.24 30.24 21.38 30.15C21.52 30.06 21.6 29.94 21.6 29.79C21.6 29.67 21.55 29.57 21.44 29.49C21.34 29.41 21.18 29.35 20.97 29.31L20.12 29.14C19.64 29.04 19.29 28.88 19.06 28.64C18.83 28.4 18.71 28.1 18.71 27.74C18.71 27.43 18.79 27.16 18.97 26.93C19.15 26.7 19.38 26.53 19.69 26.41C20 26.29 20.36 26.23 20.78 26.23C21.4 26.23 21.88 26.36 22.24 26.62C22.59 26.88 22.8 27.24 22.86 27.69L22.89 27.71Z" fill="white"/>
<path d="M26.57 26.32V27.34H23.63V26.32H26.57ZM24.3 25.15H25.66V29.71C25.66 29.83 25.68 29.93 25.72 30C25.76 30.07 25.81 30.12 25.88 30.14C25.95 30.17 26.03 30.18 26.12 30.18C26.18 30.18 26.25 30.18 26.31 30.16C26.37 30.15 26.42 30.14 26.46 30.13L26.67 31.14C26.6 31.16 26.51 31.19 26.38 31.22C26.25 31.25 26.11 31.27 25.93 31.27C25.6 31.28 25.32 31.24 25.07 31.14C24.82 31.04 24.63 30.89 24.5 30.68C24.37 30.47 24.3 30.2 24.3 29.88V25.15Z" fill="white"/>
<path d="M28.26 25.69C28.06 25.69 27.89 25.62 27.74 25.49C27.6 25.36 27.53 25.19 27.53 25.01C27.53 24.83 27.6 24.66 27.74 24.53C27.88 24.4 28.06 24.33 28.26 24.33C28.46 24.33 28.63 24.4 28.78 24.53C28.92 24.66 28.99 24.82 28.99 25.01C28.99 25.2 28.92 25.36 28.78 25.49C28.64 25.62 28.46 25.69 28.26 25.69ZM27.58 31.21V26.32H28.93V31.21H27.58Z" fill="white"/>
<path d="M32.35 33.14C31.91 33.14 31.53 33.08 31.22 32.96C30.91 32.84 30.66 32.68 30.47 32.47C30.29 32.26 30.17 32.03 30.11 31.78L31.36 31.61C31.4 31.71 31.46 31.8 31.54 31.88C31.62 31.96 31.73 32.03 31.87 32.09C32.01 32.15 32.17 32.17 32.37 32.17C32.66 32.17 32.91 32.1 33.1 31.96C33.29 31.82 33.39 31.58 33.39 31.24V30.35H33.33C33.27 30.49 33.18 30.61 33.06 30.73C32.94 30.85 32.79 30.95 32.6 31.03C32.41 31.11 32.19 31.15 31.93 31.15C31.56 31.15 31.23 31.06 30.93 30.89C30.63 30.72 30.39 30.46 30.21 30.1C30.03 29.75 29.94 29.3 29.94 28.76C29.94 28.22 30.03 27.74 30.21 27.37C30.39 27 30.63 26.72 30.93 26.54C31.23 26.36 31.56 26.26 31.92 26.26C32.19 26.26 32.42 26.31 32.61 26.4C32.8 26.49 32.94 26.61 33.06 26.74C33.18 26.87 33.26 27.01 33.32 27.14H33.37V26.32H34.72V31.25C34.72 31.67 34.62 32.01 34.41 32.29C34.21 32.57 33.93 32.78 33.57 32.92C33.21 33.06 32.8 33.13 32.33 33.13L32.35 33.14ZM32.38 30.12C32.6 30.12 32.78 30.07 32.93 29.96C33.08 29.85 33.2 29.69 33.28 29.49C33.36 29.29 33.4 29.04 33.4 28.75C33.4 28.46 33.36 28.22 33.28 28C33.2 27.79 33.08 27.62 32.93 27.51C32.78 27.4 32.59 27.34 32.37 27.34C32.15 27.34 31.96 27.4 31.81 27.52C31.66 27.64 31.54 27.81 31.46 28.02C31.38 28.23 31.34 28.48 31.34 28.75C31.34 29.02 31.38 29.28 31.46 29.48C31.54 29.69 31.66 29.84 31.81 29.95C31.96 30.06 32.15 30.12 32.37 30.12H32.38Z" fill="white"/>
<path d="M37.37 31.3C37.06 31.3 36.78 31.25 36.54 31.14C36.3 31.03 36.1 30.87 35.96 30.65C35.82 30.43 35.75 30.17 35.75 29.84C35.75 29.57 35.8 29.34 35.9 29.16C36 28.98 36.14 28.83 36.31 28.71C36.48 28.6 36.68 28.51 36.9 28.46C37.12 28.4 37.35 28.36 37.59 28.34C37.87 28.31 38.1 28.28 38.28 28.26C38.45 28.23 38.58 28.19 38.66 28.14C38.74 28.09 38.78 28.01 38.78 27.9V27.88C38.78 27.68 38.72 27.52 38.59 27.41C38.46 27.3 38.28 27.24 38.05 27.24C37.81 27.24 37.61 27.29 37.47 27.4C37.33 27.51 37.23 27.64 37.18 27.8L35.93 27.7C35.99 27.4 36.12 27.15 36.31 26.93C36.5 26.71 36.74 26.55 37.03 26.43C37.32 26.31 37.67 26.25 38.06 26.25C38.33 26.25 38.59 26.28 38.84 26.35C39.09 26.41 39.31 26.51 39.51 26.65C39.7 26.78 39.86 26.95 39.97 27.16C40.08 27.37 40.14 27.62 40.14 27.91V31.21H38.85V30.53H38.81C38.73 30.68 38.63 30.82 38.49 30.93C38.36 31.05 38.2 31.14 38.02 31.2C37.84 31.27 37.62 31.3 37.38 31.3H37.37ZM37.76 30.36C37.96 30.36 38.14 30.32 38.29 30.24C38.44 30.16 38.56 30.05 38.65 29.92C38.74 29.79 38.78 29.63 38.78 29.46V28.94C38.78 28.94 38.68 28.99 38.61 29.01C38.54 29.03 38.45 29.05 38.36 29.07C38.27 29.09 38.18 29.1 38.09 29.12C38 29.13 37.92 29.15 37.84 29.16C37.68 29.18 37.54 29.22 37.42 29.27C37.3 29.32 37.21 29.39 37.14 29.48C37.07 29.57 37.04 29.67 37.04 29.8C37.04 29.98 37.11 30.13 37.24 30.22C37.37 30.31 37.55 30.36 37.75 30.36H37.76Z" fill="white"/>
<path d="M43.85 26.32V27.34H40.91V26.32H43.85ZM41.58 25.15H42.94V29.71C42.94 29.83 42.96 29.93 43 30C43.04 30.07 43.09 30.12 43.16 30.14C43.23 30.17 43.31 30.18 43.4 30.18C43.46 30.18 43.53 30.18 43.59 30.16C43.65 30.15 43.7 30.14 43.74 30.13L43.95 31.14C43.88 31.16 43.79 31.19 43.66 31.22C43.53 31.25 43.39 31.27 43.21 31.27C42.88 31.28 42.6 31.24 42.35 31.14C42.1 31.04 41.91 30.89 41.78 30.68C41.65 30.47 41.58 30.2 41.58 29.88V25.15Z" fill="white"/>
<path d="M45.54 25.69C45.34 25.69 45.17 25.62 45.02 25.49C44.88 25.36 44.81 25.19 44.81 25.01C44.81 24.83 44.88 24.66 45.02 24.53C45.16 24.4 45.34 24.33 45.54 24.33C45.74 24.33 45.91 24.4 46.06 24.53C46.2 24.66 46.27 24.82 46.27 25.01C46.27 25.2 46.2 25.36 46.06 25.49C45.92 25.62 45.74 25.69 45.54 25.69ZM44.86 31.21V26.32H46.21V31.21H44.86Z" fill="white"/>
<path d="M51.96 26.32L50.25 31.21H48.72L47.01 26.32H48.44L49.45 29.82H49.5L50.51 26.32H51.94H51.96Z" fill="white"/>
<path d="M54.8 31.3C54.3 31.3 53.87 31.2 53.5 30.99C53.14 30.78 52.86 30.49 52.67 30.12C52.48 29.74 52.38 29.3 52.38 28.78C52.38 28.26 52.48 27.84 52.67 27.46C52.87 27.08 53.14 26.78 53.5 26.57C53.85 26.36 54.27 26.25 54.75 26.25C55.07 26.25 55.37 26.3 55.65 26.4C55.93 26.5 56.17 26.66 56.38 26.86C56.59 27.06 56.75 27.32 56.87 27.63C56.99 27.94 57.04 28.3 57.04 28.72V29.09H52.92V28.25H55.77C55.77 28.06 55.73 27.88 55.64 27.73C55.56 27.58 55.44 27.46 55.29 27.38C55.14 27.3 54.97 27.25 54.77 27.25C54.57 27.25 54.38 27.3 54.23 27.39C54.07 27.48 53.95 27.61 53.86 27.77C53.77 27.93 53.73 28.1 53.72 28.3V29.1C53.72 29.34 53.76 29.55 53.86 29.73C53.95 29.91 54.08 30.04 54.24 30.14C54.41 30.23 54.6 30.28 54.83 30.28C54.98 30.28 55.12 30.26 55.24 30.22C55.36 30.18 55.47 30.11 55.56 30.03C55.65 29.94 55.72 29.84 55.76 29.72L57.01 29.8C56.95 30.1 56.82 30.36 56.62 30.59C56.42 30.82 56.17 30.99 55.86 31.11C55.55 31.23 55.19 31.3 54.79 31.3H54.8Z" fill="white"/>
<path d="M59.87 31.28C59.5 31.28 59.16 31.18 58.86 30.99C58.56 30.8 58.32 30.51 58.15 30.14C57.98 29.77 57.89 29.31 57.89 28.76C57.89 28.21 57.98 27.73 58.16 27.36C58.34 26.99 58.58 26.71 58.88 26.52C59.18 26.33 59.51 26.24 59.87 26.24C60.14 26.24 60.37 26.29 60.56 26.38C60.75 26.47 60.89 26.59 61.01 26.72C61.13 26.85 61.21 26.99 61.27 27.12H61.31V24.67H62.66V31.18H61.32V30.4H61.26C61.2 30.54 61.11 30.67 60.99 30.8C60.87 30.93 60.73 31.04 60.54 31.13C60.35 31.22 60.13 31.26 59.87 31.26V31.28ZM60.3 30.2C60.52 30.2 60.7 30.14 60.85 30.02C61 29.9 61.12 29.73 61.2 29.52C61.28 29.3 61.32 29.05 61.32 28.76C61.32 28.47 61.28 28.22 61.2 28C61.12 27.79 61 27.62 60.85 27.5C60.7 27.38 60.51 27.33 60.29 27.33C60.07 27.33 59.88 27.39 59.73 27.51C59.58 27.63 59.46 27.8 59.38 28.01C59.3 28.22 59.26 28.47 59.26 28.75C59.26 29.03 59.3 29.28 59.38 29.5C59.46 29.72 59.58 29.89 59.73 30.01C59.88 30.13 60.07 30.19 60.29 30.19L60.3 30.2Z" fill="white"/>
<path d="M65.3 31.3C64.99 31.3 64.71 31.25 64.47 31.14C64.23 31.03 64.03 30.87 63.89 30.65C63.75 30.43 63.68 30.17 63.68 29.84C63.68 29.57 63.73 29.34 63.83 29.16C63.93 28.98 64.07 28.83 64.24 28.71C64.41 28.6 64.61 28.51 64.83 28.46C65.05 28.4 65.28 28.36 65.52 28.34C65.8 28.31 66.03 28.28 66.21 28.26C66.38 28.23 66.51 28.19 66.59 28.14C66.67 28.09 66.71 28.01 66.71 27.9V27.88C66.71 27.68 66.65 27.52 66.52 27.41C66.39 27.3 66.21 27.24 65.98 27.24C65.74 27.24 65.54 27.29 65.4 27.4C65.26 27.51 65.16 27.64 65.11 27.8L63.86 27.7C63.92 27.4 64.05 27.15 64.24 26.93C64.43 26.71 64.67 26.55 64.96 26.43C65.25 26.31 65.6 26.25 65.99 26.25C66.26 26.25 66.52 26.28 66.77 26.35C67.02 26.41 67.24 26.51 67.44 26.65C67.63 26.78 67.79 26.95 67.9 27.16C68.01 27.37 68.07 27.62 68.07 27.91V31.21H66.78V30.53H66.74C66.66 30.68 66.56 30.82 66.42 30.93C66.29 31.05 66.13 31.14 65.95 31.2C65.77 31.27 65.55 31.3 65.31 31.3H65.3ZM65.69 30.36C65.89 30.36 66.07 30.32 66.22 30.24C66.37 30.16 66.49 30.05 66.58 29.92C66.67 29.79 66.71 29.63 66.71 29.46V28.94C66.71 28.94 66.61 28.99 66.54 29.01C66.47 29.03 66.38 29.05 66.29 29.07C66.2 29.09 66.11 29.1 66.02 29.12C65.93 29.13 65.85 29.15 65.77 29.16C65.61 29.18 65.47 29.22 65.35 29.27C65.23 29.32 65.14 29.39 65.07 29.48C65 29.57 64.97 29.67 64.97 29.8C64.97 29.98 65.04 30.13 65.17 30.22C65.3 30.31 65.48 30.36 65.68 30.36H65.69Z" fill="white"/>
<path d="M71.78 26.32V27.34H68.84V26.32H71.78ZM69.51 25.15H70.87V29.71C70.87 29.83 70.89 29.93 70.93 30C70.97 30.07 71.02 30.12 71.09 30.14C71.16 30.17 71.24 30.18 71.33 30.18C71.39 30.18 71.46 30.18 71.52 30.16C71.58 30.15 71.63 30.14 71.67 30.13L71.88 31.14C71.81 31.16 71.72 31.19 71.59 31.22C71.46 31.25 71.32 31.27 71.14 31.27C70.81 31.28 70.53 31.24 70.28 31.14C70.03 31.04 69.84 30.89 69.71 30.68C69.58 30.47 69.51 30.2 69.51 29.88V25.15Z" fill="white"/>
<path d="M74.13 31.3C73.82 31.3 73.54 31.25 73.3 31.14C73.06 31.03 72.86 30.87 72.72 30.65C72.58 30.43 72.51 30.17 72.51 29.84C72.51 29.57 72.56 29.34 72.66 29.16C72.76 28.98 72.9 28.83 73.07 28.71C73.24 28.6 73.44 28.51 73.66 28.46C73.88 28.4 74.11 28.36 74.35 28.34C74.63 28.31 74.86 28.28 75.04 28.26C75.21 28.23 75.34 28.19 75.42 28.14C75.5 28.09 75.54 28.01 75.54 27.9V27.88C75.54 27.68 75.48 27.52 75.35 27.41C75.22 27.3 75.04 27.24 74.81 27.24C74.57 27.24 74.37 27.29 74.23 27.4C74.09 27.51 73.99 27.64 73.94 27.8L72.69 27.7C72.75 27.4 72.88 27.15 73.07 26.93C73.26 26.71 73.5 26.55 73.79 26.43C74.08 26.31 74.43 26.25 74.82 26.25C75.09 26.25 75.35 26.28 75.6 26.35C75.85 26.41 76.07 26.51 76.27 26.65C76.46 26.78 76.62 26.95 76.73 27.16C76.84 27.37 76.9 27.62 76.9 27.91V31.21H75.61V30.53H75.57C75.49 30.68 75.39 30.82 75.25 30.93C75.12 31.05 74.96 31.14 74.78 31.2C74.6 31.27 74.38 31.3 74.14 31.3H74.13ZM74.52 30.36C74.72 30.36 74.9 30.32 75.05 30.24C75.2 30.16 75.32 30.05 75.41 29.92C75.5 29.79 75.54 29.63 75.54 29.46V28.94C75.54 28.94 75.44 28.99 75.37 29.01C75.3 29.03 75.21 29.05 75.12 29.07C75.03 29.09 74.94 29.1 74.85 29.12C74.76 29.13 74.68 29.15 74.6 29.16C74.44 29.18 74.3 29.22 74.18 29.27C74.06 29.32 73.97 29.39 73.9 29.48C73.83 29.57 73.8 29.67 73.8 29.8C73.8 29.98 73.87 30.13 74 30.22C74.13 30.31 74.31 30.36 74.51 30.36H74.52Z" fill="white"/>
<path d="M78.92 31.29C78.71 31.29 78.53 31.21 78.38 31.07C78.23 30.93 78.16 30.74 78.16 30.53C78.16 30.32 78.24 30.14 78.38 30C78.53 29.85 78.71 29.78 78.92 29.78C79.13 29.78 79.3 29.85 79.45 30C79.6 30.15 79.68 30.33 79.68 30.53C79.68 30.67 79.64 30.8 79.57 30.91C79.5 31.03 79.41 31.12 79.29 31.19C79.18 31.26 79.05 31.29 78.91 31.29H78.92Z" fill="white"/>
<path d="M81.63 25.69C81.43 25.69 81.26 25.62 81.11 25.49C80.97 25.36 80.9 25.19 80.9 25.01C80.9 24.83 80.97 24.66 81.11 24.53C81.25 24.4 81.43 24.33 81.63 24.33C81.83 24.33 82 24.4 82.15 24.53C82.29 24.66 82.36 24.82 82.36 25.01C82.36 25.2 82.29 25.36 82.15 25.49C82.01 25.62 81.83 25.69 81.63 25.69ZM80.95 31.21V26.32H82.3V31.21H80.95Z" fill="white"/>
<path d="M85.73 31.3C85.24 31.3 84.81 31.19 84.45 30.98C84.09 30.77 83.81 30.47 83.62 30.1C83.43 29.72 83.33 29.28 83.33 28.78C83.33 28.28 83.43 27.83 83.62 27.46C83.82 27.08 84.09 26.79 84.45 26.58C84.81 26.37 85.24 26.26 85.73 26.26C86.22 26.26 86.65 26.37 87.01 26.58C87.37 26.79 87.65 27.09 87.84 27.46C88.04 27.84 88.13 28.28 88.13 28.78C88.13 29.28 88.03 29.72 87.84 30.1C87.64 30.48 87.37 30.77 87.01 30.98C86.65 31.19 86.22 31.3 85.73 31.3ZM85.73 30.25C85.95 30.25 86.14 30.19 86.29 30.06C86.44 29.93 86.55 29.76 86.63 29.53C86.71 29.31 86.75 29.05 86.75 28.77C86.75 28.49 86.71 28.23 86.63 28.01C86.55 27.79 86.44 27.61 86.29 27.48C86.14 27.35 85.95 27.29 85.73 27.29C85.51 27.29 85.31 27.35 85.16 27.48C85.01 27.61 84.89 27.79 84.81 28.01C84.73 28.23 84.69 28.49 84.69 28.77C84.69 29.05 84.73 29.31 84.81 29.53C84.89 29.75 85 29.93 85.16 30.06C85.31 30.19 85.5 30.25 85.73 30.25Z" fill="white"/>
</g>
<g style="mix-blend-mode:multiply">
<path d="M13.04 1.43L13.76 0C17.36 1.68 19.76 5.31 19.76 9.13C19.76 12.95 17.37 16.59 13.76 18.26L13.04 16.83C15.71 15.2 17.48 12.14 17.48 9.13C17.48 6.12 15.7 3.06 13.04 1.43ZM30.34 9.13C30.34 7.77 29.25 6.59 27.8 6.59C26.35 6.59 25.26 7.73 25.26 9.13C25.26 10.53 26.4 11.67 27.8 11.67C29.2 11.67 30.34 10.53 30.34 9.13ZM38.55 18.26V0H36.33V18.27H38.55V18.26ZM43.79 9.13C43.79 12.96 46.18 16.59 49.79 18.26L50.51 16.83C47.84 15.2 46.07 12.14 46.07 9.13C46.07 6.12 47.85 3.06 50.51 1.43L49.79 0C46.19 1.68 43.79 5.31 43.79 9.13ZM82.45 0L81.73 1.43C84.4 3.06 86.17 6.12 86.17 9.13C86.17 12.14 84.39 15.2 81.73 16.83L82.45 18.26C86.05 16.58 88.45 12.95 88.45 9.13C88.45 5.31 86.06 1.68 82.45 0ZM10.36 18.27V0H8.14001V18.27H10.36ZM2.29001 18.27V0H0.0700073V18.27H2.29001ZM73.52 14.27C75.84 14.27 77.25 12 77.25 9.14C77.25 6.28 75.84 3.96 73.52 3.96C71.2 3.96 69.79 6.23 69.79 9.14C69.79 12.05 71.2 14.27 73.52 14.27ZM66.71 9.14C66.71 4.15 69.45 0.25 73.52 0.25C77.59 0.25 80.33 4.15 80.33 9.14C80.33 14.13 77.59 18.03 73.52 18.03C69.45 18.03 66.71 14.13 66.71 9.14ZM68.44 9.14C68.44 13.14 70.44 16.3 73.52 16.3C76.6 16.3 78.6 13.14 78.6 9.14C78.6 5.14 76.6 1.98 73.52 1.98C70.44 1.98 68.44 5.14 68.44 9.14ZM51.9 9.14C51.9 4.15 54.64 0.25 58.71 0.25C62.78 0.25 65.52 4.15 65.52 9.14C65.52 14.13 62.78 18.03 58.71 18.03C54.64 18.03 51.9 14.13 51.9 9.14ZM53.63 9.14C53.63 13.14 55.63 16.3 58.71 16.3C61.79 16.3 63.79 13.14 63.79 9.14C63.79 5.14 61.79 1.98 58.71 1.98C55.63 1.98 53.63 5.14 53.63 9.14ZM58.71 14.27C61.03 14.27 62.44 12 62.44 9.14C62.44 6.28 61.03 3.96 58.71 3.96C56.39 3.96 54.98 6.23 54.98 9.14C54.98 12.05 56.39 14.27 58.71 14.27Z" fill="white"/>
</g>
</g>
<defs>
<clipPath id="clip0_259_414">
<rect width="88.45" height="33.14" fill="white"/>
</clipPath>
</defs>
</svg>
