<svg width="61" height="19" viewBox="0 0 61 19" fill="none" xmlns="http://www.w3.org/2000/svg">
<g clip-path="url(#clip0_259_213)">
<g style="mix-blend-mode:multiply">
<path d="M12.97 1.43L13.69 0C17.29 1.68 19.69 5.31 19.69 9.13C19.69 12.95 17.3 16.59 13.69 18.26L12.97 16.83C15.64 15.2 17.41 12.14 17.41 9.13C17.41 6.12 15.63 3.06 12.97 1.43ZM30.27 9.13C30.27 7.77 29.18 6.59 27.73 6.59C26.28 6.59 25.19 7.73 25.19 9.13C25.19 10.53 26.33 11.67 27.73 11.67C29.13 11.67 30.27 10.53 30.27 9.13ZM43.72 9.13C43.72 12.96 46.11 16.59 49.72 18.26L50.44 16.83C47.77 15.2 46 12.14 46 9.13C46 6.12 47.78 3.06 50.44 1.43L49.72 0C46.12 1.68 43.72 5.31 43.72 9.13ZM38.48 18.26V0H36.26V18.27H38.48V18.26ZM54.03 0L53.31 1.43C55.98 3.06 57.75 6.12 57.75 9.13C57.75 12.14 55.97 15.2 53.31 16.83L54.03 18.26C57.63 16.58 60.03 12.95 60.03 9.13C60.03 5.31 57.64 1.67 54.03 0ZM10.29 18.27V0H8.07V18.27H10.29ZM2.22 18.27V0H0V18.27H2.22Z" fill="#1A1A1A"/>
</g>
</g>
<defs>
<clipPath id="clip0_259_213">
<rect width="60.03" height="18.27" fill="white"/>
</clipPath>
</defs>
</svg>
