<svg width="110" height="56" viewBox="0 0 110 56" fill="none" xmlns="http://www.w3.org/2000/svg">
<path d="M11.505 37.05C11.305 37.05 11.135 36.98 10.985 36.85C10.845 36.72 10.775 36.55 10.775 36.37C10.775 36.19 10.845 36.02 10.985 35.89C11.125 35.76 11.305 35.69 11.505 35.69C11.705 35.69 11.875 35.76 12.025 35.89C12.165 36.02 12.235 36.18 12.235 36.37C12.235 36.56 12.165 36.72 12.025 36.85C11.885 36.98 11.705 37.05 11.505 37.05ZM10.825 42.56V37.67H12.175V42.56H10.825Z" fill="white"/>
<path d="M14.785 39.74V42.56H13.435V37.67H14.725V38.53H14.785C14.895 38.25 15.075 38.02 15.325 37.85C15.575 37.68 15.885 37.6 16.255 37.6C16.595 37.6 16.885 37.67 17.145 37.82C17.395 37.97 17.595 38.18 17.735 38.45C17.875 38.72 17.945 39.05 17.945 39.43V42.54H16.585V39.67C16.585 39.37 16.515 39.14 16.355 38.97C16.195 38.8 15.985 38.72 15.715 38.72C15.535 38.72 15.375 38.76 15.235 38.84C15.095 38.92 14.985 39.03 14.905 39.18C14.825 39.33 14.785 39.51 14.785 39.72V39.74Z" fill="white"/>
<path d="M23.515 37.68L21.805 42.57H20.275L18.565 37.68H19.995L21.005 41.18H21.055L22.065 37.68H23.495H23.515Z" fill="white"/>
<path d="M26.355 42.66C25.855 42.66 25.425 42.56 25.055 42.35C24.695 42.14 24.415 41.85 24.225 41.48C24.035 41.1 23.935 40.66 23.935 40.14C23.935 39.62 24.035 39.2 24.225 38.82C24.425 38.44 24.695 38.14 25.055 37.93C25.405 37.72 25.825 37.61 26.305 37.61C26.625 37.61 26.925 37.66 27.205 37.76C27.485 37.86 27.725 38.02 27.935 38.22C28.145 38.42 28.305 38.68 28.425 38.99C28.545 39.3 28.595 39.66 28.595 40.08V40.45H24.475V39.61H27.325C27.325 39.42 27.285 39.24 27.195 39.09C27.115 38.94 26.995 38.82 26.845 38.74C26.695 38.66 26.525 38.61 26.325 38.61C26.125 38.61 25.935 38.66 25.785 38.75C25.625 38.84 25.505 38.97 25.415 39.13C25.325 39.29 25.285 39.46 25.275 39.66V40.46C25.275 40.7 25.315 40.91 25.415 41.09C25.505 41.27 25.635 41.4 25.795 41.5C25.965 41.59 26.155 41.64 26.385 41.64C26.535 41.64 26.675 41.62 26.795 41.58C26.915 41.54 27.025 41.47 27.115 41.39C27.205 41.3 27.275 41.2 27.315 41.08L28.565 41.16C28.505 41.46 28.375 41.72 28.175 41.95C27.975 42.18 27.725 42.35 27.415 42.47C27.105 42.59 26.745 42.66 26.345 42.66H26.355Z" fill="white"/>
<path d="M33.665 39.07L32.425 39.15C32.405 39.04 32.355 38.95 32.285 38.86C32.215 38.77 32.125 38.71 32.005 38.65C31.895 38.6 31.755 38.57 31.595 38.57C31.385 38.57 31.205 38.61 31.065 38.7C30.925 38.79 30.845 38.91 30.845 39.05C30.845 39.17 30.895 39.27 30.985 39.35C31.075 39.43 31.235 39.5 31.465 39.54L32.345 39.72C32.825 39.82 33.175 39.97 33.405 40.19C33.635 40.41 33.755 40.69 33.755 41.04C33.755 41.36 33.665 41.64 33.475 41.88C33.285 42.12 33.035 42.31 32.705 42.44C32.375 42.57 32.005 42.64 31.585 42.64C30.935 42.64 30.425 42.51 30.045 42.23C29.665 41.95 29.435 41.59 29.375 41.12L30.705 41.05C30.745 41.25 30.845 41.4 30.995 41.5C31.145 41.6 31.345 41.65 31.585 41.65C31.825 41.65 32.015 41.6 32.155 41.51C32.295 41.42 32.375 41.3 32.375 41.15C32.375 41.03 32.325 40.93 32.215 40.85C32.115 40.77 31.955 40.71 31.745 40.67L30.895 40.5C30.415 40.4 30.065 40.24 29.835 40C29.605 39.76 29.485 39.46 29.485 39.1C29.485 38.79 29.565 38.52 29.745 38.29C29.925 38.06 30.155 37.89 30.465 37.77C30.775 37.65 31.135 37.59 31.555 37.59C32.175 37.59 32.655 37.72 33.015 37.98C33.365 38.24 33.575 38.6 33.635 39.05L33.665 39.07Z" fill="white"/>
<path d="M37.345 37.68V38.7H34.405V37.68H37.345ZM35.075 36.51H36.435V41.07C36.435 41.19 36.455 41.29 36.495 41.36C36.535 41.43 36.585 41.48 36.655 41.5C36.725 41.53 36.805 41.54 36.895 41.54C36.955 41.54 37.025 41.54 37.085 41.52C37.145 41.51 37.195 41.5 37.235 41.49L37.445 42.5C37.375 42.52 37.285 42.55 37.155 42.58C37.025 42.61 36.885 42.63 36.705 42.63C36.375 42.64 36.095 42.6 35.845 42.5C35.595 42.4 35.405 42.25 35.275 42.04C35.145 41.83 35.075 41.56 35.075 41.24V36.51Z" fill="white"/>
<path d="M39.035 37.05C38.835 37.05 38.665 36.98 38.515 36.85C38.375 36.72 38.305 36.55 38.305 36.37C38.305 36.19 38.375 36.02 38.515 35.89C38.655 35.76 38.835 35.69 39.035 35.69C39.235 35.69 39.405 35.76 39.555 35.89C39.695 36.02 39.765 36.18 39.765 36.37C39.765 36.56 39.695 36.72 39.555 36.85C39.415 36.98 39.235 37.05 39.035 37.05ZM38.355 42.57V37.68H39.705V42.57H38.355Z" fill="white"/>
<path d="M43.125 44.5C42.685 44.5 42.305 44.44 41.995 44.32C41.685 44.2 41.435 44.04 41.245 43.83C41.065 43.62 40.945 43.39 40.885 43.14L42.135 42.97C42.175 43.07 42.235 43.16 42.315 43.24C42.395 43.32 42.505 43.39 42.645 43.45C42.785 43.51 42.945 43.53 43.145 43.53C43.435 43.53 43.685 43.46 43.875 43.32C44.065 43.18 44.165 42.94 44.165 42.6V41.71H44.105C44.045 41.85 43.955 41.97 43.835 42.09C43.715 42.21 43.565 42.31 43.375 42.39C43.185 42.47 42.965 42.51 42.705 42.51C42.335 42.51 42.005 42.42 41.705 42.25C41.405 42.08 41.165 41.82 40.985 41.46C40.805 41.11 40.715 40.66 40.715 40.12C40.715 39.58 40.805 39.1 40.985 38.73C41.165 38.36 41.405 38.08 41.705 37.9C42.005 37.72 42.335 37.62 42.695 37.62C42.965 37.62 43.195 37.67 43.385 37.76C43.575 37.85 43.715 37.97 43.835 38.1C43.955 38.23 44.035 38.37 44.095 38.5H44.145V37.68H45.495V42.61C45.495 43.03 45.395 43.37 45.185 43.65C44.985 43.93 44.705 44.14 44.345 44.28C43.985 44.42 43.575 44.49 43.105 44.49L43.125 44.5ZM43.155 41.48C43.375 41.48 43.555 41.43 43.705 41.32C43.855 41.21 43.975 41.05 44.055 40.85C44.135 40.65 44.175 40.4 44.175 40.11C44.175 39.82 44.135 39.58 44.055 39.36C43.975 39.15 43.855 38.98 43.705 38.87C43.555 38.76 43.365 38.7 43.145 38.7C42.925 38.7 42.735 38.76 42.585 38.88C42.435 39 42.315 39.17 42.235 39.38C42.155 39.59 42.115 39.84 42.115 40.11C42.115 40.38 42.155 40.64 42.235 40.84C42.315 41.05 42.435 41.2 42.585 41.31C42.735 41.42 42.925 41.48 43.145 41.48H43.155Z" fill="white"/>
<path d="M48.145 42.66C47.835 42.66 47.555 42.61 47.315 42.5C47.075 42.39 46.875 42.23 46.735 42.01C46.595 41.79 46.525 41.53 46.525 41.2C46.525 40.93 46.575 40.7 46.675 40.52C46.775 40.34 46.915 40.19 47.085 40.07C47.255 39.96 47.455 39.87 47.675 39.82C47.895 39.76 48.125 39.72 48.365 39.7C48.645 39.67 48.875 39.64 49.055 39.62C49.225 39.59 49.355 39.55 49.435 39.5C49.515 39.45 49.555 39.37 49.555 39.26V39.24C49.555 39.04 49.495 38.88 49.365 38.77C49.235 38.66 49.055 38.6 48.825 38.6C48.585 38.6 48.385 38.65 48.245 38.76C48.105 38.87 48.005 39 47.955 39.16L46.705 39.06C46.765 38.76 46.895 38.51 47.085 38.29C47.275 38.07 47.515 37.91 47.805 37.79C48.095 37.67 48.445 37.61 48.835 37.61C49.105 37.61 49.365 37.64 49.615 37.71C49.865 37.77 50.085 37.87 50.285 38.01C50.475 38.14 50.635 38.31 50.745 38.52C50.855 38.73 50.915 38.98 50.915 39.27V42.57H49.625V41.89H49.585C49.505 42.04 49.405 42.18 49.265 42.29C49.135 42.41 48.975 42.5 48.795 42.56C48.615 42.63 48.395 42.66 48.155 42.66H48.145ZM48.535 41.72C48.735 41.72 48.915 41.68 49.065 41.6C49.215 41.52 49.335 41.41 49.425 41.28C49.515 41.15 49.555 40.99 49.555 40.82V40.3C49.555 40.3 49.455 40.35 49.385 40.37C49.315 40.39 49.225 40.41 49.135 40.43C49.045 40.45 48.955 40.46 48.865 40.48C48.775 40.49 48.695 40.51 48.615 40.52C48.455 40.54 48.315 40.58 48.195 40.63C48.075 40.68 47.985 40.75 47.915 40.84C47.845 40.93 47.815 41.03 47.815 41.16C47.815 41.34 47.885 41.49 48.015 41.58C48.145 41.67 48.325 41.72 48.525 41.72H48.535Z" fill="white"/>
<path d="M54.625 37.68V38.7H51.685V37.68H54.625ZM52.355 36.51H53.715V41.07C53.715 41.19 53.735 41.29 53.775 41.36C53.815 41.43 53.865 41.48 53.935 41.5C54.005 41.53 54.085 41.54 54.175 41.54C54.235 41.54 54.305 41.54 54.365 41.52C54.425 41.51 54.475 41.5 54.515 41.49L54.725 42.5C54.655 42.52 54.565 42.55 54.435 42.58C54.305 42.61 54.165 42.63 53.985 42.63C53.655 42.64 53.375 42.6 53.125 42.5C52.875 42.4 52.685 42.25 52.555 42.04C52.425 41.83 52.355 41.56 52.355 41.24V36.51Z" fill="white"/>
<path d="M56.315 37.05C56.115 37.05 55.945 36.98 55.795 36.85C55.655 36.72 55.585 36.55 55.585 36.37C55.585 36.19 55.655 36.02 55.795 35.89C55.935 35.76 56.115 35.69 56.315 35.69C56.515 35.69 56.685 35.76 56.835 35.89C56.975 36.02 57.045 36.18 57.045 36.37C57.045 36.56 56.975 36.72 56.835 36.85C56.695 36.98 56.515 37.05 56.315 37.05ZM55.635 42.57V37.68H56.985V42.57H55.635Z" fill="white"/>
<path d="M62.735 37.68L61.025 42.57H59.495L57.785 37.68H59.215L60.225 41.18H60.275L61.285 37.68H62.715H62.735Z" fill="white"/>
<path d="M65.575 42.66C65.075 42.66 64.645 42.56 64.275 42.35C63.915 42.14 63.635 41.85 63.445 41.48C63.255 41.1 63.155 40.66 63.155 40.14C63.155 39.62 63.255 39.2 63.445 38.82C63.645 38.44 63.915 38.14 64.275 37.93C64.625 37.72 65.045 37.61 65.525 37.61C65.845 37.61 66.145 37.66 66.425 37.76C66.705 37.86 66.945 38.02 67.155 38.22C67.365 38.42 67.525 38.68 67.645 38.99C67.765 39.3 67.815 39.66 67.815 40.08V40.45H63.695V39.61H66.545C66.545 39.42 66.505 39.24 66.415 39.09C66.335 38.94 66.215 38.82 66.065 38.74C65.915 38.66 65.745 38.61 65.545 38.61C65.345 38.61 65.155 38.66 65.005 38.75C64.845 38.84 64.725 38.97 64.635 39.13C64.545 39.29 64.505 39.46 64.495 39.66V40.46C64.495 40.7 64.535 40.91 64.635 41.09C64.725 41.27 64.855 41.4 65.015 41.5C65.185 41.59 65.375 41.64 65.605 41.64C65.755 41.64 65.895 41.62 66.015 41.58C66.135 41.54 66.245 41.47 66.335 41.39C66.425 41.3 66.495 41.2 66.535 41.08L67.785 41.16C67.725 41.46 67.595 41.72 67.395 41.95C67.195 42.18 66.945 42.35 66.635 42.47C66.325 42.59 65.965 42.66 65.565 42.66H65.575Z" fill="white"/>
<path d="M70.645 42.64C70.275 42.64 69.935 42.54 69.635 42.35C69.335 42.16 69.095 41.87 68.925 41.5C68.755 41.13 68.665 40.67 68.665 40.12C68.665 39.57 68.755 39.09 68.935 38.72C69.115 38.35 69.355 38.07 69.655 37.88C69.955 37.69 70.285 37.6 70.645 37.6C70.915 37.6 71.145 37.65 71.335 37.74C71.525 37.83 71.665 37.95 71.785 38.08C71.905 38.21 71.985 38.35 72.045 38.48H72.085V36.03H73.435V42.54H72.095V41.76H72.035C71.975 41.9 71.885 42.03 71.765 42.16C71.645 42.29 71.505 42.4 71.315 42.49C71.125 42.58 70.905 42.62 70.645 42.62V42.64ZM71.075 41.56C71.295 41.56 71.475 41.5 71.625 41.38C71.775 41.26 71.895 41.09 71.975 40.88C72.055 40.66 72.095 40.41 72.095 40.12C72.095 39.83 72.055 39.58 71.975 39.36C71.895 39.15 71.775 38.98 71.625 38.86C71.475 38.74 71.285 38.69 71.065 38.69C70.845 38.69 70.655 38.75 70.505 38.87C70.355 38.99 70.235 39.16 70.155 39.37C70.075 39.58 70.035 39.83 70.035 40.11C70.035 40.39 70.075 40.64 70.155 40.86C70.235 41.08 70.355 41.25 70.505 41.37C70.655 41.49 70.845 41.55 71.065 41.55L71.075 41.56Z" fill="white"/>
<path d="M76.075 42.66C75.765 42.66 75.485 42.61 75.245 42.5C75.005 42.39 74.805 42.23 74.665 42.01C74.525 41.79 74.455 41.53 74.455 41.2C74.455 40.93 74.505 40.7 74.605 40.52C74.705 40.34 74.845 40.19 75.015 40.07C75.185 39.96 75.385 39.87 75.605 39.82C75.825 39.76 76.055 39.72 76.295 39.7C76.575 39.67 76.805 39.64 76.985 39.62C77.155 39.59 77.285 39.55 77.365 39.5C77.445 39.45 77.485 39.37 77.485 39.26V39.24C77.485 39.04 77.425 38.88 77.295 38.77C77.165 38.66 76.985 38.6 76.755 38.6C76.515 38.6 76.315 38.65 76.175 38.76C76.035 38.87 75.935 39 75.885 39.16L74.635 39.06C74.695 38.76 74.825 38.51 75.015 38.29C75.205 38.07 75.445 37.91 75.735 37.79C76.025 37.67 76.375 37.61 76.765 37.61C77.035 37.61 77.295 37.64 77.545 37.71C77.795 37.77 78.015 37.87 78.215 38.01C78.405 38.14 78.565 38.31 78.675 38.52C78.785 38.73 78.845 38.98 78.845 39.27V42.57H77.555V41.89H77.515C77.435 42.04 77.335 42.18 77.195 42.29C77.065 42.41 76.905 42.5 76.725 42.56C76.545 42.63 76.325 42.66 76.085 42.66H76.075ZM76.465 41.72C76.665 41.72 76.845 41.68 76.995 41.6C77.145 41.52 77.265 41.41 77.355 41.28C77.445 41.15 77.485 40.99 77.485 40.82V40.3C77.485 40.3 77.385 40.35 77.315 40.37C77.245 40.39 77.155 40.41 77.065 40.43C76.975 40.45 76.885 40.46 76.795 40.48C76.705 40.49 76.625 40.51 76.545 40.52C76.385 40.54 76.245 40.58 76.125 40.63C76.005 40.68 75.915 40.75 75.845 40.84C75.775 40.93 75.745 41.03 75.745 41.16C75.745 41.34 75.815 41.49 75.945 41.58C76.075 41.67 76.255 41.72 76.455 41.72H76.465Z" fill="white"/>
<path d="M82.555 37.68V38.7H79.615V37.68H82.555ZM80.285 36.51H81.645V41.07C81.645 41.19 81.665 41.29 81.705 41.36C81.745 41.43 81.795 41.48 81.865 41.5C81.935 41.53 82.015 41.54 82.105 41.54C82.165 41.54 82.235 41.54 82.295 41.52C82.355 41.51 82.405 41.5 82.445 41.49L82.655 42.5C82.585 42.52 82.495 42.55 82.365 42.58C82.235 42.61 82.095 42.63 81.915 42.63C81.585 42.64 81.305 42.6 81.055 42.5C80.805 42.4 80.615 42.25 80.485 42.04C80.355 41.83 80.285 41.56 80.285 41.24V36.51Z" fill="white"/>
<path d="M84.905 42.66C84.595 42.66 84.315 42.61 84.075 42.5C83.835 42.39 83.635 42.23 83.495 42.01C83.355 41.79 83.285 41.53 83.285 41.2C83.285 40.93 83.335 40.7 83.435 40.52C83.535 40.34 83.675 40.19 83.845 40.07C84.015 39.96 84.215 39.87 84.435 39.82C84.655 39.76 84.885 39.72 85.125 39.7C85.405 39.67 85.635 39.64 85.815 39.62C85.985 39.59 86.115 39.55 86.195 39.5C86.275 39.45 86.315 39.37 86.315 39.26V39.24C86.315 39.04 86.255 38.88 86.125 38.77C85.995 38.66 85.815 38.6 85.585 38.6C85.345 38.6 85.145 38.65 85.005 38.76C84.865 38.87 84.765 39 84.715 39.16L83.465 39.06C83.525 38.76 83.655 38.51 83.845 38.29C84.035 38.07 84.275 37.91 84.565 37.79C84.855 37.67 85.205 37.61 85.595 37.61C85.865 37.61 86.125 37.64 86.375 37.71C86.625 37.77 86.845 37.87 87.045 38.01C87.235 38.14 87.395 38.31 87.505 38.52C87.615 38.73 87.675 38.98 87.675 39.27V42.57H86.385V41.89H86.345C86.265 42.04 86.165 42.18 86.025 42.29C85.895 42.41 85.735 42.5 85.555 42.56C85.375 42.63 85.155 42.66 84.915 42.66H84.905ZM85.295 41.72C85.495 41.72 85.675 41.68 85.825 41.6C85.975 41.52 86.095 41.41 86.185 41.28C86.275 41.15 86.315 40.99 86.315 40.82V40.3C86.315 40.3 86.215 40.35 86.145 40.37C86.075 40.39 85.985 40.41 85.895 40.43C85.805 40.45 85.715 40.46 85.625 40.48C85.535 40.49 85.455 40.51 85.375 40.52C85.215 40.54 85.075 40.58 84.955 40.63C84.835 40.68 84.745 40.75 84.675 40.84C84.605 40.93 84.575 41.03 84.575 41.16C84.575 41.34 84.645 41.49 84.775 41.58C84.905 41.67 85.085 41.72 85.285 41.72H85.295Z" fill="white"/>
<path d="M89.695 42.65C89.485 42.65 89.305 42.57 89.155 42.43C89.005 42.29 88.935 42.1 88.935 41.89C88.935 41.68 89.015 41.5 89.155 41.36C89.305 41.21 89.485 41.14 89.695 41.14C89.905 41.14 90.075 41.21 90.225 41.36C90.375 41.51 90.455 41.69 90.455 41.89C90.455 42.03 90.415 42.16 90.345 42.27C90.275 42.39 90.185 42.48 90.065 42.55C89.955 42.62 89.825 42.65 89.685 42.65H89.695Z" fill="white"/>
<path d="M92.405 37.05C92.205 37.05 92.035 36.98 91.885 36.85C91.745 36.72 91.675 36.55 91.675 36.37C91.675 36.19 91.745 36.02 91.885 35.89C92.025 35.76 92.205 35.69 92.405 35.69C92.605 35.69 92.775 35.76 92.925 35.89C93.065 36.02 93.135 36.18 93.135 36.37C93.135 36.56 93.065 36.72 92.925 36.85C92.785 36.98 92.605 37.05 92.405 37.05ZM91.725 42.57V37.68H93.075V42.57H91.725Z" fill="white"/>
<path d="M96.505 42.66C96.015 42.66 95.585 42.55 95.225 42.34C94.865 42.13 94.585 41.83 94.395 41.46C94.205 41.08 94.105 40.64 94.105 40.14C94.105 39.64 94.205 39.19 94.395 38.82C94.595 38.44 94.865 38.15 95.225 37.94C95.585 37.73 96.015 37.62 96.505 37.62C96.995 37.62 97.425 37.73 97.785 37.94C98.145 38.15 98.425 38.45 98.615 38.82C98.815 39.2 98.905 39.64 98.905 40.14C98.905 40.64 98.805 41.08 98.615 41.46C98.415 41.84 98.145 42.13 97.785 42.34C97.425 42.55 96.995 42.66 96.505 42.66ZM96.505 41.61C96.725 41.61 96.915 41.55 97.065 41.42C97.215 41.29 97.325 41.12 97.405 40.89C97.485 40.67 97.525 40.41 97.525 40.13C97.525 39.85 97.485 39.59 97.405 39.37C97.325 39.15 97.215 38.97 97.065 38.84C96.915 38.71 96.725 38.65 96.505 38.65C96.285 38.65 96.085 38.71 95.935 38.84C95.785 38.97 95.665 39.15 95.585 39.37C95.505 39.59 95.465 39.85 95.465 40.13C95.465 40.41 95.505 40.67 95.585 40.89C95.665 41.11 95.775 41.29 95.935 41.42C96.085 41.55 96.275 41.61 96.505 41.61Z" fill="white"/>
<path d="M23.815 12.79L24.535 11.36C28.135 13.04 30.535 16.67 30.535 20.49C30.535 24.31 28.145 27.95 24.535 29.62L23.815 28.19C26.485 26.56 28.255 23.5 28.255 20.49C28.255 17.48 26.475 14.42 23.815 12.79ZM41.115 20.49C41.115 19.13 40.025 17.95 38.575 17.95C37.125 17.95 36.035 19.09 36.035 20.49C36.035 21.89 37.175 23.03 38.575 23.03C39.975 23.03 41.115 21.89 41.115 20.49ZM49.325 29.62V11.36H47.105V29.63H49.325V29.62ZM54.565 20.49C54.565 24.32 56.955 27.95 60.565 29.62L61.285 28.19C58.615 26.56 56.845 23.5 56.845 20.49C56.845 17.48 58.625 14.42 61.285 12.79L60.565 11.36C56.965 13.04 54.565 16.67 54.565 20.49ZM93.225 11.36L92.505 12.79C95.175 14.42 96.945 17.48 96.945 20.49C96.945 23.5 95.165 26.56 92.505 28.19L93.225 29.62C96.825 27.94 99.225 24.31 99.225 20.49C99.225 16.67 96.835 13.04 93.225 11.36ZM21.135 29.63V11.36H18.915V29.63H21.135ZM13.065 29.63V11.36H10.845V29.63H13.065ZM84.295 25.63C86.615 25.63 88.025 23.36 88.025 20.5C88.025 17.64 86.615 15.32 84.295 15.32C81.975 15.32 80.565 17.59 80.565 20.5C80.565 23.41 81.975 25.63 84.295 25.63ZM77.485 20.5C77.485 15.51 80.225 11.61 84.295 11.61C88.365 11.61 91.105 15.51 91.105 20.5C91.105 25.49 88.365 29.39 84.295 29.39C80.225 29.39 77.485 25.49 77.485 20.5ZM79.215 20.5C79.215 24.5 81.215 27.66 84.295 27.66C87.375 27.66 89.375 24.5 89.375 20.5C89.375 16.5 87.375 13.34 84.295 13.34C81.215 13.34 79.215 16.5 79.215 20.5ZM62.675 20.5C62.675 15.51 65.415 11.61 69.485 11.61C73.555 11.61 76.295 15.51 76.295 20.5C76.295 25.49 73.555 29.39 69.485 29.39C65.415 29.39 62.675 25.49 62.675 20.5ZM64.405 20.5C64.405 24.5 66.405 27.66 69.485 27.66C72.565 27.66 74.565 24.5 74.565 20.5C74.565 16.5 72.565 13.34 69.485 13.34C66.405 13.34 64.405 16.5 64.405 20.5ZM69.485 25.63C71.805 25.63 73.215 23.36 73.215 20.5C73.215 17.64 71.805 15.32 69.485 15.32C67.165 15.32 65.755 17.59 65.755 20.5C65.755 23.41 67.165 25.63 69.485 25.63Z" fill="white"/>
</svg>
