<svg width="80" height="60" viewBox="0 0 80 60" fill="none" xmlns="http://www.w3.org/2000/svg">
<g id="IDIO_url_orange">
<rect width="80" height="60" fill="#FF5F33"/>
<g id="logo_url">
<g id="url">
<g id="investigative">
<path id="Vector" d="M10.715 35.47C10.515 35.47 10.345 35.4 10.195 35.27C10.055 35.14 9.985 34.97 9.985 34.79C9.985 34.61 10.055 34.44 10.195 34.31C10.335 34.18 10.515 34.11 10.715 34.11C10.915 34.11 11.085 34.18 11.235 34.31C11.375 34.44 11.445 34.6 11.445 34.79C11.445 34.98 11.375 35.14 11.235 35.27C11.095 35.4 10.915 35.47 10.715 35.47ZM10.035 40.98V36.09H11.385V40.98H10.035Z" fill="#1A1A1A"/>
<path id="Vector_2" d="M13.995 38.16V40.98H12.645V36.09H13.935V36.95H13.995C14.105 36.67 14.285 36.44 14.535 36.27C14.785 36.1 15.095 36.02 15.465 36.02C15.805 36.02 16.095 36.09 16.355 36.24C16.605 36.39 16.805 36.6 16.945 36.87C17.085 37.14 17.155 37.47 17.155 37.85V40.96H15.795V38.09C15.795 37.79 15.725 37.56 15.565 37.39C15.405 37.22 15.195 37.14 14.925 37.14C14.745 37.14 14.585 37.18 14.445 37.26C14.305 37.34 14.195 37.45 14.115 37.6C14.035 37.75 13.995 37.93 13.995 38.14V38.16Z" fill="#1A1A1A"/>
<path id="Vector_3" d="M22.725 36.1L21.015 40.99H19.485L17.775 36.1H19.205L20.215 39.6H20.265L21.275 36.1H22.705H22.725Z" fill="#1A1A1A"/>
<path id="Vector_4" d="M25.565 41.08C25.065 41.08 24.635 40.98 24.265 40.77C23.905 40.56 23.625 40.27 23.435 39.9C23.245 39.52 23.145 39.08 23.145 38.56C23.145 38.04 23.245 37.62 23.435 37.24C23.635 36.86 23.905 36.56 24.265 36.35C24.615 36.14 25.035 36.03 25.515 36.03C25.835 36.03 26.135 36.08 26.415 36.18C26.695 36.28 26.935 36.44 27.145 36.64C27.355 36.84 27.515 37.1 27.635 37.41C27.755 37.72 27.805 38.08 27.805 38.5V38.87H23.685V38.03H26.535C26.535 37.84 26.495 37.66 26.405 37.51C26.325 37.36 26.205 37.24 26.055 37.16C25.905 37.08 25.735 37.03 25.535 37.03C25.335 37.03 25.145 37.08 24.995 37.17C24.835 37.26 24.715 37.39 24.625 37.55C24.535 37.71 24.495 37.88 24.485 38.08V38.88C24.485 39.12 24.525 39.33 24.625 39.51C24.715 39.69 24.845 39.82 25.005 39.92C25.175 40.01 25.365 40.06 25.595 40.06C25.745 40.06 25.885 40.04 26.005 40C26.125 39.96 26.235 39.89 26.325 39.81C26.415 39.72 26.485 39.62 26.525 39.5L27.775 39.58C27.715 39.88 27.585 40.14 27.385 40.37C27.185 40.6 26.935 40.77 26.625 40.89C26.315 41.01 25.955 41.08 25.555 41.08H25.565Z" fill="#1A1A1A"/>
<path id="Vector_5" d="M32.875 37.49L31.635 37.57C31.615 37.46 31.565 37.37 31.495 37.28C31.425 37.19 31.335 37.13 31.215 37.07C31.105 37.02 30.965 36.99 30.805 36.99C30.595 36.99 30.415 37.03 30.275 37.12C30.135 37.21 30.055 37.33 30.055 37.47C30.055 37.59 30.105 37.69 30.195 37.77C30.285 37.85 30.445 37.92 30.675 37.96L31.555 38.14C32.035 38.24 32.385 38.39 32.615 38.61C32.845 38.83 32.965 39.11 32.965 39.46C32.965 39.78 32.875 40.06 32.685 40.3C32.495 40.54 32.245 40.73 31.915 40.86C31.585 40.99 31.215 41.06 30.795 41.06C30.145 41.06 29.635 40.93 29.255 40.65C28.875 40.37 28.645 40.01 28.585 39.54L29.915 39.47C29.955 39.67 30.055 39.82 30.205 39.92C30.355 40.02 30.555 40.07 30.795 40.07C31.035 40.07 31.225 40.02 31.365 39.93C31.505 39.84 31.585 39.72 31.585 39.57C31.585 39.45 31.535 39.35 31.425 39.27C31.325 39.19 31.165 39.13 30.955 39.09L30.105 38.92C29.625 38.82 29.275 38.66 29.045 38.42C28.815 38.18 28.695 37.88 28.695 37.52C28.695 37.21 28.775 36.94 28.955 36.71C29.135 36.48 29.365 36.31 29.675 36.19C29.985 36.07 30.345 36.01 30.765 36.01C31.385 36.01 31.865 36.14 32.225 36.4C32.575 36.66 32.785 37.02 32.845 37.47L32.875 37.49Z" fill="#1A1A1A"/>
<path id="Vector_6" d="M36.555 36.1V37.12H33.615V36.1H36.555ZM34.285 34.93H35.645V39.49C35.645 39.61 35.665 39.71 35.705 39.78C35.745 39.85 35.795 39.9 35.865 39.92C35.935 39.95 36.015 39.96 36.105 39.96C36.165 39.96 36.235 39.96 36.295 39.94C36.355 39.93 36.405 39.92 36.445 39.91L36.655 40.92C36.585 40.94 36.495 40.97 36.365 41C36.235 41.03 36.095 41.05 35.915 41.05C35.585 41.06 35.305 41.02 35.055 40.92C34.805 40.82 34.615 40.67 34.485 40.46C34.355 40.25 34.285 39.98 34.285 39.66V34.93Z" fill="#1A1A1A"/>
<path id="Vector_7" d="M38.245 35.47C38.045 35.47 37.875 35.4 37.725 35.27C37.585 35.14 37.515 34.97 37.515 34.79C37.515 34.61 37.585 34.44 37.725 34.31C37.865 34.18 38.045 34.11 38.245 34.11C38.445 34.11 38.615 34.18 38.765 34.31C38.905 34.44 38.975 34.6 38.975 34.79C38.975 34.98 38.905 35.14 38.765 35.27C38.625 35.4 38.445 35.47 38.245 35.47ZM37.565 40.99V36.1H38.915V40.99H37.565Z" fill="#1A1A1A"/>
<path id="Vector_8" d="M42.335 42.92C41.895 42.92 41.515 42.86 41.205 42.74C40.895 42.62 40.645 42.46 40.455 42.25C40.275 42.04 40.155 41.81 40.095 41.56L41.345 41.39C41.385 41.49 41.445 41.58 41.525 41.66C41.605 41.74 41.715 41.81 41.855 41.87C41.995 41.93 42.155 41.95 42.355 41.95C42.645 41.95 42.895 41.88 43.085 41.74C43.275 41.6 43.375 41.36 43.375 41.02V40.13H43.315C43.255 40.27 43.165 40.39 43.045 40.51C42.925 40.63 42.775 40.73 42.585 40.81C42.395 40.89 42.175 40.93 41.915 40.93C41.545 40.93 41.215 40.84 40.915 40.67C40.615 40.5 40.375 40.24 40.195 39.88C40.015 39.53 39.925 39.08 39.925 38.54C39.925 38 40.015 37.52 40.195 37.15C40.375 36.78 40.615 36.5 40.915 36.32C41.215 36.14 41.545 36.04 41.905 36.04C42.175 36.04 42.405 36.09 42.595 36.18C42.785 36.27 42.925 36.39 43.045 36.52C43.165 36.65 43.245 36.79 43.305 36.92H43.355V36.1H44.705V41.03C44.705 41.45 44.605 41.79 44.395 42.07C44.195 42.35 43.915 42.56 43.555 42.7C43.195 42.84 42.785 42.91 42.315 42.91L42.335 42.92ZM42.365 39.9C42.585 39.9 42.765 39.85 42.915 39.74C43.065 39.63 43.185 39.47 43.265 39.27C43.345 39.07 43.385 38.82 43.385 38.53C43.385 38.24 43.345 38 43.265 37.78C43.185 37.57 43.065 37.4 42.915 37.29C42.765 37.18 42.575 37.12 42.355 37.12C42.135 37.12 41.945 37.18 41.795 37.3C41.645 37.42 41.525 37.59 41.445 37.8C41.365 38.01 41.325 38.26 41.325 38.53C41.325 38.8 41.365 39.06 41.445 39.26C41.525 39.47 41.645 39.62 41.795 39.73C41.945 39.84 42.135 39.9 42.355 39.9H42.365Z" fill="#1A1A1A"/>
<path id="Vector_9" d="M47.355 41.08C47.045 41.08 46.765 41.03 46.525 40.92C46.285 40.81 46.085 40.65 45.945 40.43C45.805 40.21 45.735 39.95 45.735 39.62C45.735 39.35 45.785 39.12 45.885 38.94C45.985 38.76 46.125 38.61 46.295 38.49C46.465 38.38 46.665 38.29 46.885 38.24C47.105 38.18 47.335 38.14 47.575 38.12C47.855 38.09 48.085 38.06 48.265 38.04C48.435 38.01 48.565 37.97 48.645 37.92C48.725 37.87 48.765 37.79 48.765 37.68V37.66C48.765 37.46 48.705 37.3 48.575 37.19C48.445 37.08 48.265 37.02 48.035 37.02C47.795 37.02 47.595 37.07 47.455 37.18C47.315 37.29 47.215 37.42 47.165 37.58L45.915 37.48C45.975 37.18 46.105 36.93 46.295 36.71C46.485 36.49 46.725 36.33 47.015 36.21C47.305 36.09 47.655 36.03 48.045 36.03C48.315 36.03 48.575 36.06 48.825 36.13C49.075 36.19 49.295 36.29 49.495 36.43C49.685 36.56 49.845 36.73 49.955 36.94C50.065 37.15 50.125 37.4 50.125 37.69V40.99H48.835V40.31H48.795C48.715 40.46 48.615 40.6 48.475 40.71C48.345 40.83 48.185 40.92 48.005 40.98C47.825 41.05 47.605 41.08 47.365 41.08H47.355ZM47.745 40.14C47.945 40.14 48.125 40.1 48.275 40.02C48.425 39.94 48.545 39.83 48.635 39.7C48.725 39.57 48.765 39.41 48.765 39.24V38.72C48.765 38.72 48.665 38.77 48.595 38.79C48.525 38.81 48.435 38.83 48.345 38.85C48.255 38.87 48.165 38.88 48.075 38.9C47.985 38.91 47.905 38.93 47.825 38.94C47.665 38.96 47.525 39 47.405 39.05C47.285 39.1 47.195 39.17 47.125 39.26C47.055 39.35 47.025 39.45 47.025 39.58C47.025 39.76 47.095 39.91 47.225 40C47.355 40.09 47.535 40.14 47.735 40.14H47.745Z" fill="#1A1A1A"/>
<path id="Vector_10" d="M53.835 36.1V37.12H50.895V36.1H53.835ZM51.565 34.93H52.925V39.49C52.925 39.61 52.945 39.71 52.985 39.78C53.025 39.85 53.075 39.9 53.145 39.92C53.215 39.95 53.295 39.96 53.385 39.96C53.445 39.96 53.515 39.96 53.575 39.94C53.635 39.93 53.685 39.92 53.725 39.91L53.935 40.92C53.865 40.94 53.775 40.97 53.645 41C53.515 41.03 53.375 41.05 53.195 41.05C52.865 41.06 52.585 41.02 52.335 40.92C52.085 40.82 51.895 40.67 51.765 40.46C51.635 40.25 51.565 39.98 51.565 39.66V34.93Z" fill="#1A1A1A"/>
<path id="Vector_11" d="M55.525 35.47C55.325 35.47 55.155 35.4 55.005 35.27C54.865 35.14 54.795 34.97 54.795 34.79C54.795 34.61 54.865 34.44 55.005 34.31C55.145 34.18 55.325 34.11 55.525 34.11C55.725 34.11 55.895 34.18 56.045 34.31C56.185 34.44 56.255 34.6 56.255 34.79C56.255 34.98 56.185 35.14 56.045 35.27C55.905 35.4 55.725 35.47 55.525 35.47ZM54.845 40.99V36.1H56.195V40.99H54.845Z" fill="#1A1A1A"/>
<path id="Vector_12" d="M61.945 36.1L60.235 40.99H58.705L56.995 36.1H58.425L59.435 39.6H59.485L60.495 36.1H61.925H61.945Z" fill="#1A1A1A"/>
<path id="Vector_13" d="M64.785 41.08C64.285 41.08 63.855 40.98 63.485 40.77C63.125 40.56 62.845 40.27 62.655 39.9C62.465 39.52 62.365 39.08 62.365 38.56C62.365 38.04 62.465 37.62 62.655 37.24C62.855 36.86 63.125 36.56 63.485 36.35C63.835 36.14 64.255 36.03 64.735 36.03C65.055 36.03 65.355 36.08 65.635 36.18C65.915 36.28 66.155 36.44 66.365 36.64C66.575 36.84 66.735 37.1 66.855 37.41C66.975 37.72 67.025 38.08 67.025 38.5V38.87H62.905V38.03H65.755C65.755 37.84 65.715 37.66 65.625 37.51C65.545 37.36 65.425 37.24 65.275 37.16C65.125 37.08 64.955 37.03 64.755 37.03C64.555 37.03 64.365 37.08 64.215 37.17C64.055 37.26 63.935 37.39 63.845 37.55C63.755 37.71 63.715 37.88 63.705 38.08V38.88C63.705 39.12 63.745 39.33 63.845 39.51C63.935 39.69 64.065 39.82 64.225 39.92C64.395 40.01 64.585 40.06 64.815 40.06C64.965 40.06 65.105 40.04 65.225 40C65.345 39.96 65.455 39.89 65.545 39.81C65.635 39.72 65.705 39.62 65.745 39.5L66.995 39.58C66.935 39.88 66.805 40.14 66.605 40.37C66.405 40.6 66.155 40.77 65.845 40.89C65.535 41.01 65.175 41.08 64.775 41.08H64.785Z" fill="#1A1A1A"/>
</g>
<g id="data.io">
<path id="Vector_14" d="M11.965 49.87C11.595 49.87 11.255 49.77 10.955 49.58C10.655 49.39 10.415 49.1 10.245 48.73C10.075 48.36 9.985 47.9 9.985 47.35C9.985 46.8 10.075 46.32 10.255 45.95C10.435 45.58 10.675 45.3 10.975 45.11C11.275 44.92 11.605 44.83 11.965 44.83C12.235 44.83 12.465 44.88 12.655 44.97C12.845 45.06 12.985 45.18 13.105 45.31C13.225 45.44 13.305 45.58 13.365 45.71H13.405V43.26H14.755V49.77H13.415V48.99H13.355C13.295 49.13 13.205 49.26 13.085 49.39C12.965 49.52 12.825 49.63 12.635 49.72C12.445 49.81 12.225 49.85 11.965 49.85V49.87ZM12.395 48.79C12.615 48.79 12.795 48.73 12.945 48.61C13.095 48.49 13.215 48.32 13.295 48.11C13.375 47.89 13.415 47.64 13.415 47.35C13.415 47.06 13.375 46.81 13.295 46.59C13.215 46.38 13.095 46.21 12.945 46.09C12.795 45.97 12.605 45.92 12.385 45.92C12.165 45.92 11.975 45.98 11.825 46.1C11.675 46.22 11.555 46.39 11.475 46.6C11.395 46.81 11.355 47.06 11.355 47.34C11.355 47.62 11.395 47.87 11.475 48.09C11.555 48.31 11.675 48.48 11.825 48.6C11.975 48.72 12.165 48.78 12.385 48.78L12.395 48.79Z" fill="#1A1A1A"/>
<path id="Vector_15" d="M17.395 49.89C17.085 49.89 16.805 49.84 16.565 49.73C16.325 49.62 16.125 49.46 15.985 49.24C15.845 49.02 15.775 48.76 15.775 48.43C15.775 48.16 15.825 47.93 15.925 47.75C16.025 47.57 16.165 47.42 16.335 47.3C16.505 47.19 16.705 47.1 16.925 47.05C17.145 46.99 17.375 46.95 17.615 46.93C17.895 46.9 18.125 46.87 18.305 46.85C18.475 46.82 18.605 46.78 18.685 46.73C18.765 46.68 18.805 46.6 18.805 46.49V46.47C18.805 46.27 18.745 46.11 18.615 46C18.485 45.89 18.305 45.83 18.075 45.83C17.835 45.83 17.635 45.88 17.495 45.99C17.355 46.1 17.255 46.23 17.205 46.39L15.955 46.29C16.015 45.99 16.145 45.74 16.335 45.52C16.525 45.3 16.765 45.14 17.055 45.02C17.345 44.9 17.695 44.84 18.085 44.84C18.355 44.84 18.615 44.87 18.865 44.94C19.115 45 19.335 45.1 19.535 45.24C19.725 45.37 19.885 45.54 19.995 45.75C20.105 45.96 20.165 46.21 20.165 46.5V49.8H18.875V49.12H18.835C18.755 49.27 18.655 49.41 18.515 49.52C18.385 49.64 18.225 49.73 18.045 49.79C17.865 49.86 17.645 49.89 17.405 49.89H17.395ZM17.785 48.95C17.985 48.95 18.165 48.91 18.315 48.83C18.465 48.75 18.585 48.64 18.675 48.51C18.765 48.38 18.805 48.22 18.805 48.05V47.53C18.805 47.53 18.705 47.58 18.635 47.6C18.565 47.62 18.475 47.64 18.385 47.66C18.295 47.68 18.205 47.69 18.115 47.71C18.025 47.72 17.945 47.74 17.865 47.75C17.705 47.77 17.565 47.81 17.445 47.86C17.325 47.91 17.235 47.98 17.165 48.07C17.095 48.16 17.065 48.26 17.065 48.39C17.065 48.57 17.135 48.72 17.265 48.81C17.395 48.9 17.575 48.95 17.775 48.95H17.785Z" fill="#1A1A1A"/>
<path id="Vector_16" d="M23.875 44.91V45.93H20.935V44.91H23.875ZM21.605 43.74H22.965V48.3C22.965 48.42 22.985 48.52 23.025 48.59C23.065 48.66 23.115 48.71 23.185 48.73C23.255 48.76 23.335 48.77 23.425 48.77C23.485 48.77 23.555 48.77 23.615 48.75C23.675 48.74 23.725 48.73 23.765 48.72L23.975 49.73C23.905 49.75 23.815 49.78 23.685 49.81C23.555 49.84 23.415 49.86 23.235 49.86C22.905 49.87 22.625 49.83 22.375 49.73C22.125 49.63 21.935 49.48 21.805 49.27C21.675 49.06 21.605 48.79 21.605 48.47V43.74Z" fill="#1A1A1A"/>
<path id="Vector_17" d="M26.225 49.89C25.915 49.89 25.635 49.84 25.395 49.73C25.155 49.62 24.955 49.46 24.815 49.24C24.675 49.02 24.605 48.76 24.605 48.43C24.605 48.16 24.655 47.93 24.755 47.75C24.855 47.57 24.995 47.42 25.165 47.3C25.335 47.19 25.535 47.1 25.755 47.05C25.975 46.99 26.205 46.95 26.445 46.93C26.725 46.9 26.955 46.87 27.135 46.85C27.305 46.82 27.435 46.78 27.515 46.73C27.595 46.68 27.635 46.6 27.635 46.49V46.47C27.635 46.27 27.575 46.11 27.445 46C27.315 45.89 27.135 45.83 26.905 45.83C26.665 45.83 26.465 45.88 26.325 45.99C26.185 46.1 26.085 46.23 26.035 46.39L24.785 46.29C24.845 45.99 24.975 45.74 25.165 45.52C25.355 45.3 25.595 45.14 25.885 45.02C26.175 44.9 26.525 44.84 26.915 44.84C27.185 44.84 27.445 44.87 27.695 44.94C27.945 45 28.165 45.1 28.365 45.24C28.555 45.37 28.715 45.54 28.825 45.75C28.935 45.96 28.995 46.21 28.995 46.5V49.8H27.705V49.12H27.665C27.585 49.27 27.485 49.41 27.345 49.52C27.215 49.64 27.055 49.73 26.875 49.79C26.695 49.86 26.475 49.89 26.235 49.89H26.225ZM26.615 48.95C26.815 48.95 26.995 48.91 27.145 48.83C27.295 48.75 27.415 48.64 27.505 48.51C27.595 48.38 27.635 48.22 27.635 48.05V47.53C27.635 47.53 27.535 47.58 27.465 47.6C27.395 47.62 27.305 47.64 27.215 47.66C27.125 47.68 27.035 47.69 26.945 47.71C26.855 47.72 26.775 47.74 26.695 47.75C26.535 47.77 26.395 47.81 26.275 47.86C26.155 47.91 26.065 47.98 25.995 48.07C25.925 48.16 25.895 48.26 25.895 48.39C25.895 48.57 25.965 48.72 26.095 48.81C26.225 48.9 26.405 48.95 26.605 48.95H26.615Z" fill="#1A1A1A"/>
<path id="Vector_18" d="M31.015 49.88C30.805 49.88 30.625 49.8 30.475 49.66C30.325 49.52 30.255 49.33 30.255 49.12C30.255 48.91 30.335 48.73 30.475 48.59C30.625 48.44 30.805 48.37 31.015 48.37C31.225 48.37 31.395 48.44 31.545 48.59C31.695 48.74 31.775 48.92 31.775 49.12C31.775 49.26 31.735 49.39 31.665 49.5C31.595 49.62 31.505 49.71 31.385 49.78C31.275 49.85 31.145 49.88 31.005 49.88H31.015Z" fill="#1A1A1A"/>
<path id="Vector_19" d="M33.725 44.28C33.525 44.28 33.355 44.21 33.205 44.08C33.065 43.95 32.995 43.78 32.995 43.6C32.995 43.42 33.065 43.25 33.205 43.12C33.345 42.99 33.525 42.92 33.725 42.92C33.925 42.92 34.095 42.99 34.245 43.12C34.385 43.25 34.455 43.41 34.455 43.6C34.455 43.79 34.385 43.95 34.245 44.08C34.105 44.21 33.925 44.28 33.725 44.28ZM33.045 49.8V44.91H34.395V49.8H33.045Z" fill="#1A1A1A"/>
<path id="Vector_20" d="M37.825 49.89C37.335 49.89 36.905 49.78 36.545 49.57C36.185 49.36 35.905 49.06 35.715 48.69C35.525 48.31 35.425 47.87 35.425 47.37C35.425 46.87 35.525 46.42 35.715 46.05C35.915 45.67 36.185 45.38 36.545 45.17C36.905 44.96 37.335 44.85 37.825 44.85C38.315 44.85 38.745 44.96 39.105 45.17C39.465 45.38 39.745 45.68 39.935 46.05C40.135 46.43 40.225 46.87 40.225 47.37C40.225 47.87 40.125 48.31 39.935 48.69C39.735 49.07 39.465 49.36 39.105 49.57C38.745 49.78 38.315 49.89 37.825 49.89ZM37.825 48.84C38.045 48.84 38.235 48.78 38.385 48.65C38.535 48.52 38.645 48.35 38.725 48.12C38.805 47.9 38.845 47.64 38.845 47.36C38.845 47.08 38.805 46.82 38.725 46.6C38.645 46.38 38.535 46.2 38.385 46.07C38.235 45.94 38.045 45.88 37.825 45.88C37.605 45.88 37.405 45.94 37.255 46.07C37.105 46.2 36.985 46.38 36.905 46.6C36.825 46.82 36.785 47.08 36.785 47.36C36.785 47.64 36.825 47.9 36.905 48.12C36.985 48.34 37.095 48.52 37.255 48.65C37.405 48.78 37.595 48.84 37.825 48.84Z" fill="#1A1A1A"/>
</g>
</g>
<g id="logo" style="mix-blend-mode:multiply">
<path d="M22.955 11.54L23.675 10.11C27.275 11.79 29.675 15.42 29.675 19.24C29.675 23.06 27.285 26.7 23.675 28.37L22.955 26.94C25.625 25.31 27.395 22.25 27.395 19.24C27.395 16.23 25.615 13.17 22.955 11.54ZM40.255 19.24C40.255 17.88 39.165 16.7 37.715 16.7C36.265 16.7 35.175 17.84 35.175 19.24C35.175 20.64 36.315 21.78 37.715 21.78C39.115 21.78 40.255 20.64 40.255 19.24ZM53.705 19.24C53.705 23.07 56.095 26.7 59.705 28.37L60.425 26.94C57.755 25.31 55.985 22.25 55.985 19.24C55.985 16.23 57.765 13.17 60.425 11.54L59.705 10.11C56.105 11.79 53.705 15.42 53.705 19.24ZM48.465 28.37V10.11H46.245V28.38H48.465V28.37ZM64.015 10.11L63.295 11.54C65.965 13.17 67.735 16.23 67.735 19.24C67.735 22.25 65.955 25.31 63.295 26.94L64.015 28.37C67.615 26.69 70.015 23.06 70.015 19.24C70.015 15.42 67.625 11.78 64.015 10.11ZM20.275 28.38V10.11H18.055V28.38H20.275ZM12.205 28.38V10.11H9.985V28.38H12.205Z" fill="#1A1A1A"/>
</g>
</g>
</g>
</svg>
