<svg width="110" height="55" viewBox="0 0 110 55" fill="none" xmlns="http://www.w3.org/2000/svg">
<g id="IDIO_eyes_url_orange">
<rect width="110" height="55" fill="#FF5F33"/>
<g id="logo_url">
<g id="url" style="mix-blend-mode:multiply">
<path id="Vector" d="M11.505 36.62C11.305 36.62 11.135 36.55 10.985 36.42C10.845 36.29 10.775 36.12 10.775 35.94C10.775 35.76 10.845 35.59 10.985 35.46C11.125 35.33 11.305 35.26 11.505 35.26C11.705 35.26 11.875 35.33 12.025 35.46C12.165 35.59 12.235 35.75 12.235 35.94C12.235 36.13 12.165 36.29 12.025 36.42C11.885 36.55 11.705 36.62 11.505 36.62ZM10.825 42.13V37.24H12.175V42.13H10.825Z" fill="#1A1A1A"/>
<path id="Vector_2" d="M14.785 39.31V42.13H13.435V37.24H14.725V38.1H14.785C14.895 37.82 15.075 37.59 15.325 37.42C15.575 37.25 15.885 37.17 16.255 37.17C16.595 37.17 16.885 37.24 17.145 37.39C17.395 37.54 17.595 37.75 17.735 38.02C17.875 38.29 17.945 38.62 17.945 39V42.11H16.585V39.24C16.585 38.94 16.515 38.71 16.355 38.54C16.195 38.37 15.985 38.29 15.715 38.29C15.535 38.29 15.375 38.33 15.235 38.41C15.095 38.49 14.985 38.6 14.905 38.75C14.825 38.9 14.785 39.08 14.785 39.29V39.31Z" fill="#1A1A1A"/>
<path id="Vector_3" d="M23.515 37.25L21.805 42.14H20.275L18.565 37.25H19.995L21.005 40.75H21.055L22.065 37.25H23.495H23.515Z" fill="#1A1A1A"/>
<path id="Vector_4" d="M26.355 42.23C25.855 42.23 25.425 42.13 25.055 41.92C24.695 41.71 24.415 41.42 24.225 41.05C24.035 40.67 23.935 40.23 23.935 39.71C23.935 39.19 24.035 38.77 24.225 38.39C24.425 38.01 24.695 37.71 25.055 37.5C25.405 37.29 25.825 37.18 26.305 37.18C26.625 37.18 26.925 37.23 27.205 37.33C27.485 37.43 27.725 37.59 27.935 37.79C28.145 37.99 28.305 38.25 28.425 38.56C28.545 38.87 28.595 39.23 28.595 39.65V40.02H24.475V39.18H27.325C27.325 38.99 27.285 38.81 27.195 38.66C27.115 38.51 26.995 38.39 26.845 38.31C26.695 38.23 26.525 38.18 26.325 38.18C26.125 38.18 25.935 38.23 25.785 38.32C25.625 38.41 25.505 38.54 25.415 38.7C25.325 38.86 25.285 39.03 25.275 39.23V40.03C25.275 40.27 25.315 40.48 25.415 40.66C25.505 40.84 25.635 40.97 25.795 41.07C25.965 41.16 26.155 41.21 26.385 41.21C26.535 41.21 26.675 41.19 26.795 41.15C26.915 41.11 27.025 41.04 27.115 40.96C27.205 40.87 27.275 40.77 27.315 40.65L28.565 40.73C28.505 41.03 28.375 41.29 28.175 41.52C27.975 41.75 27.725 41.92 27.415 42.04C27.105 42.16 26.745 42.23 26.345 42.23H26.355Z" fill="#1A1A1A"/>
<path id="Vector_5" d="M33.665 38.64L32.425 38.72C32.405 38.61 32.355 38.52 32.285 38.43C32.215 38.34 32.125 38.28 32.005 38.22C31.895 38.17 31.755 38.14 31.595 38.14C31.385 38.14 31.205 38.18 31.065 38.27C30.925 38.36 30.845 38.48 30.845 38.62C30.845 38.74 30.895 38.84 30.985 38.92C31.075 39 31.235 39.07 31.465 39.11L32.345 39.29C32.825 39.39 33.175 39.54 33.405 39.76C33.635 39.98 33.755 40.26 33.755 40.61C33.755 40.93 33.665 41.21 33.475 41.45C33.285 41.69 33.035 41.88 32.705 42.01C32.375 42.14 32.005 42.21 31.585 42.21C30.935 42.21 30.425 42.08 30.045 41.8C29.665 41.52 29.435 41.16 29.375 40.69L30.705 40.62C30.745 40.82 30.845 40.97 30.995 41.07C31.145 41.17 31.345 41.22 31.585 41.22C31.825 41.22 32.015 41.17 32.155 41.08C32.295 40.99 32.375 40.87 32.375 40.72C32.375 40.6 32.325 40.5 32.215 40.42C32.115 40.34 31.955 40.28 31.745 40.24L30.895 40.07C30.415 39.97 30.065 39.81 29.835 39.57C29.605 39.33 29.485 39.03 29.485 38.67C29.485 38.36 29.565 38.09 29.745 37.86C29.925 37.63 30.155 37.46 30.465 37.34C30.775 37.22 31.135 37.16 31.555 37.16C32.175 37.16 32.655 37.29 33.015 37.55C33.365 37.81 33.575 38.17 33.635 38.62L33.665 38.64Z" fill="#1A1A1A"/>
<path id="Vector_6" d="M37.345 37.25V38.27H34.405V37.25H37.345ZM35.075 36.08H36.435V40.64C36.435 40.76 36.455 40.86 36.495 40.93C36.535 41 36.585 41.05 36.655 41.07C36.725 41.1 36.805 41.11 36.895 41.11C36.955 41.11 37.025 41.11 37.085 41.09C37.145 41.08 37.195 41.07 37.235 41.06L37.445 42.07C37.375 42.09 37.285 42.12 37.155 42.15C37.025 42.18 36.885 42.2 36.705 42.2C36.375 42.21 36.095 42.17 35.845 42.07C35.595 41.97 35.405 41.82 35.275 41.61C35.145 41.4 35.075 41.13 35.075 40.81V36.08Z" fill="#1A1A1A"/>
<path id="Vector_7" d="M39.035 36.62C38.835 36.62 38.665 36.55 38.515 36.42C38.375 36.29 38.305 36.12 38.305 35.94C38.305 35.76 38.375 35.59 38.515 35.46C38.655 35.33 38.835 35.26 39.035 35.26C39.235 35.26 39.405 35.33 39.555 35.46C39.695 35.59 39.765 35.75 39.765 35.94C39.765 36.13 39.695 36.29 39.555 36.42C39.415 36.55 39.235 36.62 39.035 36.62ZM38.355 42.14V37.25H39.705V42.14H38.355Z" fill="#1A1A1A"/>
<path id="Vector_8" d="M43.125 44.07C42.685 44.07 42.305 44.01 41.995 43.89C41.685 43.77 41.435 43.61 41.245 43.4C41.065 43.19 40.945 42.96 40.885 42.71L42.135 42.54C42.175 42.64 42.235 42.73 42.315 42.81C42.395 42.89 42.505 42.96 42.645 43.02C42.785 43.08 42.945 43.1 43.145 43.1C43.435 43.1 43.685 43.03 43.875 42.89C44.065 42.75 44.165 42.51 44.165 42.17V41.28H44.105C44.045 41.42 43.955 41.54 43.835 41.66C43.715 41.78 43.565 41.88 43.375 41.96C43.185 42.04 42.965 42.08 42.705 42.08C42.335 42.08 42.005 41.99 41.705 41.82C41.405 41.65 41.165 41.39 40.985 41.03C40.805 40.68 40.715 40.23 40.715 39.69C40.715 39.15 40.805 38.67 40.985 38.3C41.165 37.93 41.405 37.65 41.705 37.47C42.005 37.29 42.335 37.19 42.695 37.19C42.965 37.19 43.195 37.24 43.385 37.33C43.575 37.42 43.715 37.54 43.835 37.67C43.955 37.8 44.035 37.94 44.095 38.07H44.145V37.25H45.495V42.18C45.495 42.6 45.395 42.94 45.185 43.22C44.985 43.5 44.705 43.71 44.345 43.85C43.985 43.99 43.575 44.06 43.105 44.06L43.125 44.07ZM43.155 41.05C43.375 41.05 43.555 41 43.705 40.89C43.855 40.78 43.975 40.62 44.055 40.42C44.135 40.22 44.175 39.97 44.175 39.68C44.175 39.39 44.135 39.15 44.055 38.93C43.975 38.72 43.855 38.55 43.705 38.44C43.555 38.33 43.365 38.27 43.145 38.27C42.925 38.27 42.735 38.33 42.585 38.45C42.435 38.57 42.315 38.74 42.235 38.95C42.155 39.16 42.115 39.41 42.115 39.68C42.115 39.95 42.155 40.21 42.235 40.41C42.315 40.62 42.435 40.77 42.585 40.88C42.735 40.99 42.925 41.05 43.145 41.05H43.155Z" fill="#1A1A1A"/>
<path id="Vector_9" d="M48.145 42.23C47.835 42.23 47.555 42.18 47.315 42.07C47.075 41.96 46.875 41.8 46.735 41.58C46.595 41.36 46.525 41.1 46.525 40.77C46.525 40.5 46.575 40.27 46.675 40.09C46.775 39.91 46.915 39.76 47.085 39.64C47.255 39.53 47.455 39.44 47.675 39.39C47.895 39.33 48.125 39.29 48.365 39.27C48.645 39.24 48.875 39.21 49.055 39.19C49.225 39.16 49.355 39.12 49.435 39.07C49.515 39.02 49.555 38.94 49.555 38.83V38.81C49.555 38.61 49.495 38.45 49.365 38.34C49.235 38.23 49.055 38.17 48.825 38.17C48.585 38.17 48.385 38.22 48.245 38.33C48.105 38.44 48.005 38.57 47.955 38.73L46.705 38.63C46.765 38.33 46.895 38.08 47.085 37.86C47.275 37.64 47.515 37.48 47.805 37.36C48.095 37.24 48.445 37.18 48.835 37.18C49.105 37.18 49.365 37.21 49.615 37.28C49.865 37.34 50.085 37.44 50.285 37.58C50.475 37.71 50.635 37.88 50.745 38.09C50.855 38.3 50.915 38.55 50.915 38.84V42.14H49.625V41.46H49.585C49.505 41.61 49.405 41.75 49.265 41.86C49.135 41.98 48.975 42.07 48.795 42.13C48.615 42.2 48.395 42.23 48.155 42.23H48.145ZM48.535 41.29C48.735 41.29 48.915 41.25 49.065 41.17C49.215 41.09 49.335 40.98 49.425 40.85C49.515 40.72 49.555 40.56 49.555 40.39V39.87C49.555 39.87 49.455 39.92 49.385 39.94C49.315 39.96 49.225 39.98 49.135 40C49.045 40.02 48.955 40.03 48.865 40.05C48.775 40.06 48.695 40.08 48.615 40.09C48.455 40.11 48.315 40.15 48.195 40.2C48.075 40.25 47.985 40.32 47.915 40.41C47.845 40.5 47.815 40.6 47.815 40.73C47.815 40.91 47.885 41.06 48.015 41.15C48.145 41.24 48.325 41.29 48.525 41.29H48.535Z" fill="#1A1A1A"/>
<path id="Vector_10" d="M54.625 37.25V38.27H51.685V37.25H54.625ZM52.355 36.08H53.715V40.64C53.715 40.76 53.735 40.86 53.775 40.93C53.815 41 53.865 41.05 53.935 41.07C54.005 41.1 54.085 41.11 54.175 41.11C54.235 41.11 54.305 41.11 54.365 41.09C54.425 41.08 54.475 41.07 54.515 41.06L54.725 42.07C54.655 42.09 54.565 42.12 54.435 42.15C54.305 42.18 54.165 42.2 53.985 42.2C53.655 42.21 53.375 42.17 53.125 42.07C52.875 41.97 52.685 41.82 52.555 41.61C52.425 41.4 52.355 41.13 52.355 40.81V36.08Z" fill="#1A1A1A"/>
<path id="Vector_11" d="M56.315 36.62C56.115 36.62 55.945 36.55 55.795 36.42C55.655 36.29 55.585 36.12 55.585 35.94C55.585 35.76 55.655 35.59 55.795 35.46C55.935 35.33 56.115 35.26 56.315 35.26C56.515 35.26 56.685 35.33 56.835 35.46C56.975 35.59 57.045 35.75 57.045 35.94C57.045 36.13 56.975 36.29 56.835 36.42C56.695 36.55 56.515 36.62 56.315 36.62ZM55.635 42.14V37.25H56.985V42.14H55.635Z" fill="#1A1A1A"/>
<path id="Vector_12" d="M62.735 37.25L61.025 42.14H59.495L57.785 37.25H59.215L60.225 40.75H60.275L61.285 37.25H62.715H62.735Z" fill="#1A1A1A"/>
<path id="Vector_13" d="M65.575 42.23C65.075 42.23 64.645 42.13 64.275 41.92C63.915 41.71 63.635 41.42 63.445 41.05C63.255 40.67 63.155 40.23 63.155 39.71C63.155 39.19 63.255 38.77 63.445 38.39C63.645 38.01 63.915 37.71 64.275 37.5C64.625 37.29 65.045 37.18 65.525 37.18C65.845 37.18 66.145 37.23 66.425 37.33C66.705 37.43 66.945 37.59 67.155 37.79C67.365 37.99 67.525 38.25 67.645 38.56C67.765 38.87 67.815 39.23 67.815 39.65V40.02H63.695V39.18H66.545C66.545 38.99 66.505 38.81 66.415 38.66C66.335 38.51 66.215 38.39 66.065 38.31C65.915 38.23 65.745 38.18 65.545 38.18C65.345 38.18 65.155 38.23 65.005 38.32C64.845 38.41 64.725 38.54 64.635 38.7C64.545 38.86 64.505 39.03 64.495 39.23V40.03C64.495 40.27 64.535 40.48 64.635 40.66C64.725 40.84 64.855 40.97 65.015 41.07C65.185 41.16 65.375 41.21 65.605 41.21C65.755 41.21 65.895 41.19 66.015 41.15C66.135 41.11 66.245 41.04 66.335 40.96C66.425 40.87 66.495 40.77 66.535 40.65L67.785 40.73C67.725 41.03 67.595 41.29 67.395 41.52C67.195 41.75 66.945 41.92 66.635 42.04C66.325 42.16 65.965 42.23 65.565 42.23H65.575Z" fill="#1A1A1A"/>
<path id="Vector_14" d="M70.645 42.21C70.275 42.21 69.935 42.11 69.635 41.92C69.335 41.73 69.095 41.44 68.925 41.07C68.755 40.7 68.665 40.24 68.665 39.69C68.665 39.14 68.755 38.66 68.935 38.29C69.115 37.92 69.355 37.64 69.655 37.45C69.955 37.26 70.285 37.17 70.645 37.17C70.915 37.17 71.145 37.22 71.335 37.31C71.525 37.4 71.665 37.52 71.785 37.65C71.905 37.78 71.985 37.92 72.045 38.05H72.085V35.6H73.435V42.11H72.095V41.33H72.035C71.975 41.47 71.885 41.6 71.765 41.73C71.645 41.86 71.505 41.97 71.315 42.06C71.125 42.15 70.905 42.19 70.645 42.19V42.21ZM71.075 41.13C71.295 41.13 71.475 41.07 71.625 40.95C71.775 40.83 71.895 40.66 71.975 40.45C72.055 40.23 72.095 39.98 72.095 39.69C72.095 39.4 72.055 39.15 71.975 38.93C71.895 38.72 71.775 38.55 71.625 38.43C71.475 38.31 71.285 38.26 71.065 38.26C70.845 38.26 70.655 38.32 70.505 38.44C70.355 38.56 70.235 38.73 70.155 38.94C70.075 39.15 70.035 39.4 70.035 39.68C70.035 39.96 70.075 40.21 70.155 40.43C70.235 40.65 70.355 40.82 70.505 40.94C70.655 41.06 70.845 41.12 71.065 41.12L71.075 41.13Z" fill="#1A1A1A"/>
<path id="Vector_15" d="M76.075 42.23C75.765 42.23 75.485 42.18 75.245 42.07C75.005 41.96 74.805 41.8 74.665 41.58C74.525 41.36 74.455 41.1 74.455 40.77C74.455 40.5 74.505 40.27 74.605 40.09C74.705 39.91 74.845 39.76 75.015 39.64C75.185 39.53 75.385 39.44 75.605 39.39C75.825 39.33 76.055 39.29 76.295 39.27C76.575 39.24 76.805 39.21 76.985 39.19C77.155 39.16 77.285 39.12 77.365 39.07C77.445 39.02 77.485 38.94 77.485 38.83V38.81C77.485 38.61 77.425 38.45 77.295 38.34C77.165 38.23 76.985 38.17 76.755 38.17C76.515 38.17 76.315 38.22 76.175 38.33C76.035 38.44 75.935 38.57 75.885 38.73L74.635 38.63C74.695 38.33 74.825 38.08 75.015 37.86C75.205 37.64 75.445 37.48 75.735 37.36C76.025 37.24 76.375 37.18 76.765 37.18C77.035 37.18 77.295 37.21 77.545 37.28C77.795 37.34 78.015 37.44 78.215 37.58C78.405 37.71 78.565 37.88 78.675 38.09C78.785 38.3 78.845 38.55 78.845 38.84V42.14H77.555V41.46H77.515C77.435 41.61 77.335 41.75 77.195 41.86C77.065 41.98 76.905 42.07 76.725 42.13C76.545 42.2 76.325 42.23 76.085 42.23H76.075ZM76.465 41.29C76.665 41.29 76.845 41.25 76.995 41.17C77.145 41.09 77.265 40.98 77.355 40.85C77.445 40.72 77.485 40.56 77.485 40.39V39.87C77.485 39.87 77.385 39.92 77.315 39.94C77.245 39.96 77.155 39.98 77.065 40C76.975 40.02 76.885 40.03 76.795 40.05C76.705 40.06 76.625 40.08 76.545 40.09C76.385 40.11 76.245 40.15 76.125 40.2C76.005 40.25 75.915 40.32 75.845 40.41C75.775 40.5 75.745 40.6 75.745 40.73C75.745 40.91 75.815 41.06 75.945 41.15C76.075 41.24 76.255 41.29 76.455 41.29H76.465Z" fill="#1A1A1A"/>
<path id="Vector_16" d="M82.555 37.25V38.27H79.615V37.25H82.555ZM80.285 36.08H81.645V40.64C81.645 40.76 81.665 40.86 81.705 40.93C81.745 41 81.795 41.05 81.865 41.07C81.935 41.1 82.015 41.11 82.105 41.11C82.165 41.11 82.235 41.11 82.295 41.09C82.355 41.08 82.405 41.07 82.445 41.06L82.655 42.07C82.585 42.09 82.495 42.12 82.365 42.15C82.235 42.18 82.095 42.2 81.915 42.2C81.585 42.21 81.305 42.17 81.055 42.07C80.805 41.97 80.615 41.82 80.485 41.61C80.355 41.4 80.285 41.13 80.285 40.81V36.08Z" fill="#1A1A1A"/>
<path id="Vector_17" d="M84.905 42.23C84.595 42.23 84.315 42.18 84.075 42.07C83.835 41.96 83.635 41.8 83.495 41.58C83.355 41.36 83.285 41.1 83.285 40.77C83.285 40.5 83.335 40.27 83.435 40.09C83.535 39.91 83.675 39.76 83.845 39.64C84.015 39.53 84.215 39.44 84.435 39.39C84.655 39.33 84.885 39.29 85.125 39.27C85.405 39.24 85.635 39.21 85.815 39.19C85.985 39.16 86.115 39.12 86.195 39.07C86.275 39.02 86.315 38.94 86.315 38.83V38.81C86.315 38.61 86.255 38.45 86.125 38.34C85.995 38.23 85.815 38.17 85.585 38.17C85.345 38.17 85.145 38.22 85.005 38.33C84.865 38.44 84.765 38.57 84.715 38.73L83.465 38.63C83.525 38.33 83.655 38.08 83.845 37.86C84.035 37.64 84.275 37.48 84.565 37.36C84.855 37.24 85.205 37.18 85.595 37.18C85.865 37.18 86.125 37.21 86.375 37.28C86.625 37.34 86.845 37.44 87.045 37.58C87.235 37.71 87.395 37.88 87.505 38.09C87.615 38.3 87.675 38.55 87.675 38.84V42.14H86.385V41.46H86.345C86.265 41.61 86.165 41.75 86.025 41.86C85.895 41.98 85.735 42.07 85.555 42.13C85.375 42.2 85.155 42.23 84.915 42.23H84.905ZM85.295 41.29C85.495 41.29 85.675 41.25 85.825 41.17C85.975 41.09 86.095 40.98 86.185 40.85C86.275 40.72 86.315 40.56 86.315 40.39V39.87C86.315 39.87 86.215 39.92 86.145 39.94C86.075 39.96 85.985 39.98 85.895 40C85.805 40.02 85.715 40.03 85.625 40.05C85.535 40.06 85.455 40.08 85.375 40.09C85.215 40.11 85.075 40.15 84.955 40.2C84.835 40.25 84.745 40.32 84.675 40.41C84.605 40.5 84.575 40.6 84.575 40.73C84.575 40.91 84.645 41.06 84.775 41.15C84.905 41.24 85.085 41.29 85.285 41.29H85.295Z" fill="#1A1A1A"/>
<path id="Vector_18" d="M89.695 42.22C89.485 42.22 89.305 42.14 89.155 42C89.005 41.86 88.935 41.67 88.935 41.46C88.935 41.25 89.015 41.07 89.155 40.93C89.305 40.78 89.485 40.71 89.695 40.71C89.905 40.71 90.075 40.78 90.225 40.93C90.375 41.08 90.455 41.26 90.455 41.46C90.455 41.6 90.415 41.73 90.345 41.84C90.275 41.96 90.185 42.05 90.065 42.12C89.955 42.19 89.825 42.22 89.685 42.22H89.695Z" fill="#1A1A1A"/>
<path id="Vector_19" d="M92.405 36.62C92.205 36.62 92.035 36.55 91.885 36.42C91.745 36.29 91.675 36.12 91.675 35.94C91.675 35.76 91.745 35.59 91.885 35.46C92.025 35.33 92.205 35.26 92.405 35.26C92.605 35.26 92.775 35.33 92.925 35.46C93.065 35.59 93.135 35.75 93.135 35.94C93.135 36.13 93.065 36.29 92.925 36.42C92.785 36.55 92.605 36.62 92.405 36.62ZM91.725 42.14V37.25H93.075V42.14H91.725Z" fill="#1A1A1A"/>
<path id="Vector_20" d="M96.505 42.23C96.015 42.23 95.585 42.12 95.225 41.91C94.865 41.7 94.585 41.4 94.395 41.03C94.205 40.65 94.105 40.21 94.105 39.71C94.105 39.21 94.205 38.76 94.395 38.39C94.595 38.01 94.865 37.72 95.225 37.51C95.585 37.3 96.015 37.19 96.505 37.19C96.995 37.19 97.425 37.3 97.785 37.51C98.145 37.72 98.425 38.02 98.615 38.39C98.815 38.77 98.905 39.21 98.905 39.71C98.905 40.21 98.805 40.65 98.615 41.03C98.415 41.41 98.145 41.7 97.785 41.91C97.425 42.12 96.995 42.23 96.505 42.23ZM96.505 41.18C96.725 41.18 96.915 41.12 97.065 40.99C97.215 40.86 97.325 40.69 97.405 40.46C97.485 40.24 97.525 39.98 97.525 39.7C97.525 39.42 97.485 39.16 97.405 38.94C97.325 38.72 97.215 38.54 97.065 38.41C96.915 38.28 96.725 38.22 96.505 38.22C96.285 38.22 96.085 38.28 95.935 38.41C95.785 38.54 95.665 38.72 95.585 38.94C95.505 39.16 95.465 39.42 95.465 39.7C95.465 39.98 95.505 40.24 95.585 40.46C95.665 40.68 95.775 40.86 95.935 40.99C96.085 41.12 96.275 41.18 96.505 41.18Z" fill="#1A1A1A"/>
</g>
<g id="logo" style="mix-blend-mode:multiply">
<path d="M23.815 12.36L24.535 10.93C28.135 12.61 30.535 16.24 30.535 20.06C30.535 23.88 28.145 27.52 24.535 29.19L23.815 27.76C26.485 26.13 28.255 23.07 28.255 20.06C28.255 17.05 26.475 13.99 23.815 12.36ZM41.115 20.06C41.115 18.7 40.025 17.52 38.575 17.52C37.125 17.52 36.035 18.66 36.035 20.06C36.035 21.46 37.175 22.6 38.575 22.6C39.975 22.6 41.115 21.46 41.115 20.06ZM49.325 29.19V10.93H47.105V29.2H49.325V29.19ZM54.565 20.06C54.565 23.89 56.955 27.52 60.565 29.19L61.285 27.76C58.615 26.13 56.845 23.07 56.845 20.06C56.845 17.05 58.625 13.99 61.285 12.36L60.565 10.93C56.965 12.61 54.565 16.24 54.565 20.06ZM93.225 10.93L92.505 12.36C95.175 13.99 96.945 17.05 96.945 20.06C96.945 23.07 95.165 26.13 92.505 27.76L93.225 29.19C96.825 27.51 99.225 23.88 99.225 20.06C99.225 16.24 96.835 12.61 93.225 10.93ZM21.135 29.2V10.93H18.915V29.2H21.135ZM13.065 29.2V10.93H10.845V29.2H13.065ZM84.295 25.2C86.615 25.2 88.025 22.93 88.025 20.07C88.025 17.21 86.615 14.89 84.295 14.89C81.975 14.89 80.565 17.16 80.565 20.07C80.565 22.98 81.975 25.2 84.295 25.2ZM77.485 20.07C77.485 15.08 80.225 11.18 84.295 11.18C88.365 11.18 91.105 15.08 91.105 20.07C91.105 25.06 88.365 28.96 84.295 28.96C80.225 28.96 77.485 25.06 77.485 20.07ZM79.215 20.07C79.215 24.07 81.215 27.23 84.295 27.23C87.375 27.23 89.375 24.07 89.375 20.07C89.375 16.07 87.375 12.91 84.295 12.91C81.215 12.91 79.215 16.07 79.215 20.07ZM62.675 20.07C62.675 15.08 65.415 11.18 69.485 11.18C73.555 11.18 76.295 15.08 76.295 20.07C76.295 25.06 73.555 28.96 69.485 28.96C65.415 28.96 62.675 25.06 62.675 20.07ZM64.405 20.07C64.405 24.07 66.405 27.23 69.485 27.23C72.565 27.23 74.565 24.07 74.565 20.07C74.565 16.07 72.565 12.91 69.485 12.91C66.405 12.91 64.405 16.07 64.405 20.07ZM69.485 25.2C71.805 25.2 73.215 22.93 73.215 20.07C73.215 17.21 71.805 14.89 69.485 14.89C67.165 14.89 65.755 17.16 65.755 20.07C65.755 22.98 67.165 25.2 69.485 25.2Z" fill="#1A1A1A"/>
</g>
</g>
</g>
</svg>
