<svg width="80" height="80" viewBox="0 0 80 80" fill="none" xmlns="http://www.w3.org/2000/svg">
<g style="mix-blend-mode:multiply">
<path d="M22.9635 11.4293L23.6832 10C27.2814 11.6792 29.6802 15.3073 29.6802 19.1254C29.6802 22.9435 27.2914 26.5817 23.6832 28.2509L22.9635 26.8216C25.6322 25.1924 27.4013 22.1339 27.4013 19.1254C27.4013 16.1169 25.6222 13.0585 22.9635 11.4293ZM40.2549 19.1254C40.2549 17.7661 39.1654 16.5867 37.7161 16.5867C36.2669 16.5867 35.1774 17.7261 35.1774 19.1254C35.1774 20.5247 36.3168 21.6642 37.7161 21.6642C39.1154 21.6642 40.2549 20.5247 40.2549 19.1254ZM53.6982 19.1254C53.6982 22.9535 56.087 26.5817 59.6952 28.2509L60.4148 26.8216C57.7461 25.1924 55.977 22.1339 55.977 19.1254C55.977 16.1169 57.7561 13.0585 60.4148 11.4293L59.6952 10C56.097 11.6792 53.6982 15.3073 53.6982 19.1254ZM48.4608 28.2509V10H46.2419V28.2609H48.4608V28.2509ZM64.003 10L63.2834 11.4293C65.952 13.0585 67.7211 16.1169 67.7211 19.1254C67.7211 22.1339 65.942 25.1924 63.2834 26.8216L64.003 28.2509C67.6012 26.5717 70 22.9435 70 19.1254C70 15.3073 67.6112 11.6692 64.003 10ZM20.2849 28.2609V10H18.066V28.2609H20.2849ZM12.2189 28.2609V10H10V28.2609H12.2189Z" fill="#1A1A1A"/>
</g>
<g style="mix-blend-mode:multiply">
<path d="M22.9635 32.1901L23.6832 30.7609C27.2814 32.44 29.6802 36.0682 29.6802 39.8863C29.6802 43.7044 27.2914 47.3426 23.6832 49.0117L22.9635 47.5825C25.6322 45.9533 27.4013 42.8948 27.4013 39.8863C27.4013 36.8778 25.6222 33.8193 22.9635 32.1901ZM40.2549 39.8863C40.2549 38.527 39.1654 37.3476 37.7161 37.3476C36.2669 37.3476 35.1774 38.487 35.1774 39.8863C35.1774 41.2856 36.3168 42.425 37.7161 42.425C39.1154 42.425 40.2549 41.2856 40.2549 39.8863ZM53.6982 39.8863C53.6982 43.7144 56.087 47.3426 59.6952 49.0117L60.4148 47.5825C57.7461 45.9533 55.977 42.8948 55.977 39.8863C55.977 36.8778 57.7561 33.8193 60.4148 32.1901L59.6952 30.7609C56.097 32.44 53.6982 36.0682 53.6982 39.8863ZM48.4608 49.0117V30.7609H46.2419V49.0217H48.4608V49.0117ZM64.003 30.7609L63.2834 32.1901C65.952 33.8193 67.7211 36.8778 67.7211 39.8863C67.7211 42.8948 65.942 45.9533 63.2834 47.5825L64.003 49.0117C67.6012 47.3326 70 43.7044 70 39.8863C70 36.0682 67.6112 32.43 64.003 30.7609ZM20.2849 49.0217V30.7609H18.066V49.0217H20.2849ZM12.2189 49.0217V30.7609H10V49.0217H12.2189Z" fill="#1A1A1A"/>
</g>
<g style="mix-blend-mode:multiply">
<path d="M22.9635 52.951L23.6832 51.5217C27.2814 53.2009 29.6802 56.8291 29.6802 60.6472C29.6802 64.4653 27.2914 68.1035 23.6832 69.7726L22.9635 68.3433C25.6322 66.7141 27.4013 63.6557 27.4013 60.6472C27.4013 57.6387 25.6222 54.5802 22.9635 52.951ZM40.2549 60.6472C40.2549 59.2879 39.1654 58.1085 37.7161 58.1085C36.2669 58.1085 35.1774 59.2479 35.1774 60.6472C35.1774 62.0465 36.3168 63.1859 37.7161 63.1859C39.1154 63.1859 40.2549 62.0465 40.2549 60.6472ZM53.6982 60.6472C53.6982 64.4753 56.087 68.1035 59.6952 69.7726L60.4148 68.3433C57.7461 66.7141 55.977 63.6557 55.977 60.6472C55.977 57.6387 57.7561 54.5802 60.4148 52.951L59.6952 51.5217C56.097 53.2009 53.6982 56.8291 53.6982 60.6472ZM48.4608 69.7726V51.5217H46.2419V69.7826H48.4608V69.7726ZM64.003 51.5217L63.2834 52.951C65.952 54.5802 67.7211 57.6387 67.7211 60.6472C67.7211 63.6557 65.942 66.7141 63.2834 68.3433L64.003 69.7726C67.6012 68.0935 70 64.4653 70 60.6472C70 56.8291 67.6112 53.1909 64.003 51.5217ZM20.2849 69.7826V51.5217H18.066V69.7826H20.2849ZM12.2189 69.7826V51.5217H10V69.7826H12.2189Z" fill="#1A1A1A"/>
</g>
</svg>
