<svg width="81" height="61" viewBox="0 0 81 61" fill="none" xmlns="http://www.w3.org/2000/svg">
<path d="M11.685 36.04C11.485 36.04 11.315 35.97 11.165 35.84C11.025 35.71 10.955 35.54 10.955 35.36C10.955 35.18 11.025 35.01 11.165 34.88C11.305 34.75 11.485 34.68 11.685 34.68C11.885 34.68 12.055 34.75 12.205 34.88C12.345 35.01 12.415 35.17 12.415 35.36C12.415 35.55 12.345 35.71 12.205 35.84C12.065 35.97 11.885 36.04 11.685 36.04ZM11.005 41.55V36.66H12.355V41.55H11.005Z" fill="#1A1A1A"/>
<path d="M14.965 38.73V41.55H13.615V36.66H14.905V37.52H14.965C15.075 37.24 15.255 37.01 15.505 36.84C15.755 36.67 16.065 36.59 16.435 36.59C16.775 36.59 17.065 36.66 17.325 36.81C17.575 36.96 17.775 37.17 17.915 37.44C18.055 37.71 18.125 38.04 18.125 38.42V41.53H16.765V38.66C16.765 38.36 16.695 38.13 16.535 37.96C16.375 37.79 16.165 37.71 15.895 37.71C15.715 37.71 15.555 37.75 15.415 37.83C15.275 37.91 15.165 38.02 15.085 38.17C15.005 38.32 14.965 38.5 14.965 38.71V38.73Z" fill="#1A1A1A"/>
<path d="M23.695 36.67L21.985 41.56H20.455L18.745 36.67H20.175L21.185 40.17H21.235L22.245 36.67H23.675H23.695Z" fill="#1A1A1A"/>
<path d="M26.535 41.65C26.035 41.65 25.605 41.55 25.235 41.34C24.875 41.13 24.595 40.84 24.405 40.47C24.215 40.09 24.115 39.65 24.115 39.13C24.115 38.61 24.215 38.19 24.405 37.81C24.605 37.43 24.875 37.13 25.235 36.92C25.585 36.71 26.005 36.6 26.485 36.6C26.805 36.6 27.105 36.65 27.385 36.75C27.665 36.85 27.905 37.01 28.115 37.21C28.325 37.41 28.485 37.67 28.605 37.98C28.725 38.29 28.775 38.65 28.775 39.07V39.44H24.655V38.6H27.505C27.505 38.41 27.465 38.23 27.375 38.08C27.295 37.93 27.175 37.81 27.025 37.73C26.875 37.65 26.705 37.6 26.505 37.6C26.305 37.6 26.115 37.65 25.965 37.74C25.805 37.83 25.685 37.96 25.595 38.12C25.505 38.28 25.465 38.45 25.455 38.65V39.45C25.455 39.69 25.495 39.9 25.595 40.08C25.685 40.26 25.815 40.39 25.975 40.49C26.145 40.58 26.335 40.63 26.565 40.63C26.715 40.63 26.855 40.61 26.975 40.57C27.095 40.53 27.205 40.46 27.295 40.38C27.385 40.29 27.455 40.19 27.495 40.07L28.745 40.15C28.685 40.45 28.555 40.71 28.355 40.94C28.155 41.17 27.905 41.34 27.595 41.46C27.285 41.58 26.925 41.65 26.525 41.65H26.535Z" fill="#1A1A1A"/>
<path d="M33.845 38.06L32.605 38.14C32.585 38.03 32.535 37.94 32.465 37.85C32.395 37.76 32.305 37.7 32.185 37.64C32.075 37.59 31.935 37.56 31.775 37.56C31.565 37.56 31.385 37.6 31.245 37.69C31.105 37.78 31.025 37.9 31.025 38.04C31.025 38.16 31.075 38.26 31.165 38.34C31.255 38.42 31.415 38.49 31.645 38.53L32.525 38.71C33.005 38.81 33.355 38.96 33.585 39.18C33.815 39.4 33.935 39.68 33.935 40.03C33.935 40.35 33.845 40.63 33.655 40.87C33.465 41.11 33.215 41.3 32.885 41.43C32.555 41.56 32.185 41.63 31.765 41.63C31.115 41.63 30.605 41.5 30.225 41.22C29.845 40.94 29.615 40.58 29.555 40.11L30.885 40.04C30.925 40.24 31.025 40.39 31.175 40.49C31.325 40.59 31.525 40.64 31.765 40.64C32.005 40.64 32.195 40.59 32.335 40.5C32.475 40.41 32.555 40.29 32.555 40.14C32.555 40.02 32.505 39.92 32.395 39.84C32.295 39.76 32.135 39.7 31.925 39.66L31.075 39.49C30.595 39.39 30.245 39.23 30.015 38.99C29.785 38.75 29.665 38.45 29.665 38.09C29.665 37.78 29.745 37.51 29.925 37.28C30.105 37.05 30.335 36.88 30.645 36.76C30.955 36.64 31.315 36.58 31.735 36.58C32.355 36.58 32.835 36.71 33.195 36.97C33.545 37.23 33.755 37.59 33.815 38.04L33.845 38.06Z" fill="#1A1A1A"/>
<path d="M37.525 36.67V37.69H34.585V36.67H37.525ZM35.255 35.5H36.615V40.06C36.615 40.18 36.635 40.28 36.675 40.35C36.715 40.42 36.765 40.47 36.835 40.49C36.905 40.52 36.985 40.53 37.075 40.53C37.135 40.53 37.205 40.53 37.265 40.51C37.325 40.5 37.375 40.49 37.415 40.48L37.625 41.49C37.555 41.51 37.465 41.54 37.335 41.57C37.205 41.6 37.065 41.62 36.885 41.62C36.555 41.63 36.275 41.59 36.025 41.49C35.775 41.39 35.585 41.24 35.455 41.03C35.325 40.82 35.255 40.55 35.255 40.23V35.5Z" fill="#1A1A1A"/>
<path d="M39.215 36.04C39.015 36.04 38.845 35.97 38.695 35.84C38.555 35.71 38.485 35.54 38.485 35.36C38.485 35.18 38.555 35.01 38.695 34.88C38.835 34.75 39.015 34.68 39.215 34.68C39.415 34.68 39.585 34.75 39.735 34.88C39.875 35.01 39.945 35.17 39.945 35.36C39.945 35.55 39.875 35.71 39.735 35.84C39.595 35.97 39.415 36.04 39.215 36.04ZM38.535 41.56V36.67H39.885V41.56H38.535Z" fill="#1A1A1A"/>
<path d="M43.305 43.49C42.865 43.49 42.485 43.43 42.175 43.31C41.865 43.19 41.615 43.03 41.425 42.82C41.245 42.61 41.125 42.38 41.065 42.13L42.315 41.96C42.355 42.06 42.415 42.15 42.495 42.23C42.575 42.31 42.685 42.38 42.825 42.44C42.965 42.5 43.125 42.52 43.325 42.52C43.615 42.52 43.865 42.45 44.055 42.31C44.245 42.17 44.345 41.93 44.345 41.59V40.7H44.285C44.225 40.84 44.135 40.96 44.015 41.08C43.895 41.2 43.745 41.3 43.555 41.38C43.365 41.46 43.145 41.5 42.885 41.5C42.515 41.5 42.185 41.41 41.885 41.24C41.585 41.07 41.345 40.81 41.165 40.45C40.985 40.1 40.895 39.65 40.895 39.11C40.895 38.57 40.985 38.09 41.165 37.72C41.345 37.35 41.585 37.07 41.885 36.89C42.185 36.71 42.515 36.61 42.875 36.61C43.145 36.61 43.375 36.66 43.565 36.75C43.755 36.84 43.895 36.96 44.015 37.09C44.135 37.22 44.215 37.36 44.275 37.49H44.325V36.67H45.675V41.6C45.675 42.02 45.575 42.36 45.365 42.64C45.165 42.92 44.885 43.13 44.525 43.27C44.165 43.41 43.755 43.48 43.285 43.48L43.305 43.49ZM43.335 40.47C43.555 40.47 43.735 40.42 43.885 40.31C44.035 40.2 44.155 40.04 44.235 39.84C44.315 39.64 44.355 39.39 44.355 39.1C44.355 38.81 44.315 38.57 44.235 38.35C44.155 38.14 44.035 37.97 43.885 37.86C43.735 37.75 43.545 37.69 43.325 37.69C43.105 37.69 42.915 37.75 42.765 37.87C42.615 37.99 42.495 38.16 42.415 38.37C42.335 38.58 42.295 38.83 42.295 39.1C42.295 39.37 42.335 39.63 42.415 39.83C42.495 40.04 42.615 40.19 42.765 40.3C42.915 40.41 43.105 40.47 43.325 40.47H43.335Z" fill="#1A1A1A"/>
<path d="M48.325 41.65C48.015 41.65 47.735 41.6 47.495 41.49C47.255 41.38 47.055 41.22 46.915 41C46.775 40.78 46.705 40.52 46.705 40.19C46.705 39.92 46.755 39.69 46.855 39.51C46.955 39.33 47.095 39.18 47.265 39.06C47.435 38.95 47.635 38.86 47.855 38.81C48.075 38.75 48.305 38.71 48.545 38.69C48.825 38.66 49.055 38.63 49.235 38.61C49.405 38.58 49.535 38.54 49.615 38.49C49.695 38.44 49.735 38.36 49.735 38.25V38.23C49.735 38.03 49.675 37.87 49.545 37.76C49.415 37.65 49.235 37.59 49.005 37.59C48.765 37.59 48.565 37.64 48.425 37.75C48.285 37.86 48.185 37.99 48.135 38.15L46.885 38.05C46.945 37.75 47.075 37.5 47.265 37.28C47.455 37.06 47.695 36.9 47.985 36.78C48.275 36.66 48.625 36.6 49.015 36.6C49.285 36.6 49.545 36.63 49.795 36.7C50.045 36.76 50.265 36.86 50.465 37C50.655 37.13 50.815 37.3 50.925 37.51C51.035 37.72 51.095 37.97 51.095 38.26V41.56H49.805V40.88H49.765C49.685 41.03 49.585 41.17 49.445 41.28C49.315 41.4 49.155 41.49 48.975 41.55C48.795 41.62 48.575 41.65 48.335 41.65H48.325ZM48.715 40.71C48.915 40.71 49.095 40.67 49.245 40.59C49.395 40.51 49.515 40.4 49.605 40.27C49.695 40.14 49.735 39.98 49.735 39.81V39.29C49.735 39.29 49.635 39.34 49.565 39.36C49.495 39.38 49.405 39.4 49.315 39.42C49.225 39.44 49.135 39.45 49.045 39.47C48.955 39.48 48.875 39.5 48.795 39.51C48.635 39.53 48.495 39.57 48.375 39.62C48.255 39.67 48.165 39.74 48.095 39.83C48.025 39.92 47.995 40.02 47.995 40.15C47.995 40.33 48.065 40.48 48.195 40.57C48.325 40.66 48.505 40.71 48.705 40.71H48.715Z" fill="#1A1A1A"/>
<path d="M54.805 36.67V37.69H51.865V36.67H54.805ZM52.535 35.5H53.895V40.06C53.895 40.18 53.915 40.28 53.955 40.35C53.995 40.42 54.045 40.47 54.115 40.49C54.185 40.52 54.265 40.53 54.355 40.53C54.415 40.53 54.485 40.53 54.545 40.51C54.605 40.5 54.655 40.49 54.695 40.48L54.905 41.49C54.835 41.51 54.745 41.54 54.615 41.57C54.485 41.6 54.345 41.62 54.165 41.62C53.835 41.63 53.555 41.59 53.305 41.49C53.055 41.39 52.865 41.24 52.735 41.03C52.605 40.82 52.535 40.55 52.535 40.23V35.5Z" fill="#1A1A1A"/>
<path d="M56.495 36.04C56.295 36.04 56.125 35.97 55.975 35.84C55.835 35.71 55.765 35.54 55.765 35.36C55.765 35.18 55.835 35.01 55.975 34.88C56.115 34.75 56.295 34.68 56.495 34.68C56.695 34.68 56.865 34.75 57.015 34.88C57.155 35.01 57.225 35.17 57.225 35.36C57.225 35.55 57.155 35.71 57.015 35.84C56.875 35.97 56.695 36.04 56.495 36.04ZM55.815 41.56V36.67H57.165V41.56H55.815Z" fill="#1A1A1A"/>
<path d="M62.915 36.67L61.205 41.56H59.675L57.965 36.67H59.395L60.405 40.17H60.455L61.465 36.67H62.895H62.915Z" fill="#1A1A1A"/>
<path d="M65.755 41.65C65.255 41.65 64.825 41.55 64.455 41.34C64.095 41.13 63.815 40.84 63.625 40.47C63.435 40.09 63.335 39.65 63.335 39.13C63.335 38.61 63.435 38.19 63.625 37.81C63.825 37.43 64.095 37.13 64.455 36.92C64.805 36.71 65.225 36.6 65.705 36.6C66.025 36.6 66.325 36.65 66.605 36.75C66.885 36.85 67.125 37.01 67.335 37.21C67.545 37.41 67.705 37.67 67.825 37.98C67.945 38.29 67.995 38.65 67.995 39.07V39.44H63.875V38.6H66.725C66.725 38.41 66.685 38.23 66.595 38.08C66.515 37.93 66.395 37.81 66.245 37.73C66.095 37.65 65.925 37.6 65.725 37.6C65.525 37.6 65.335 37.65 65.185 37.74C65.025 37.83 64.905 37.96 64.815 38.12C64.725 38.28 64.685 38.45 64.675 38.65V39.45C64.675 39.69 64.715 39.9 64.815 40.08C64.905 40.26 65.035 40.39 65.195 40.49C65.365 40.58 65.555 40.63 65.785 40.63C65.935 40.63 66.075 40.61 66.195 40.57C66.315 40.53 66.425 40.46 66.515 40.38C66.605 40.29 66.675 40.19 66.715 40.07L67.965 40.15C67.905 40.45 67.775 40.71 67.575 40.94C67.375 41.17 67.125 41.34 66.815 41.46C66.505 41.58 66.145 41.65 65.745 41.65H65.755Z" fill="#1A1A1A"/>
<path d="M12.935 50.44C12.565 50.44 12.225 50.34 11.925 50.15C11.625 49.96 11.385 49.67 11.215 49.3C11.045 48.93 10.955 48.47 10.955 47.92C10.955 47.37 11.045 46.89 11.225 46.52C11.405 46.15 11.645 45.87 11.945 45.68C12.245 45.49 12.575 45.4 12.935 45.4C13.205 45.4 13.435 45.45 13.625 45.54C13.815 45.63 13.955 45.75 14.075 45.88C14.195 46.01 14.275 46.15 14.335 46.28H14.375V43.83H15.725V50.34H14.385V49.56H14.325C14.265 49.7 14.175 49.83 14.055 49.96C13.935 50.09 13.795 50.2 13.605 50.29C13.415 50.38 13.195 50.42 12.935 50.42V50.44ZM13.365 49.36C13.585 49.36 13.765 49.3 13.915 49.18C14.065 49.06 14.185 48.89 14.265 48.68C14.345 48.46 14.385 48.21 14.385 47.92C14.385 47.63 14.345 47.38 14.265 47.16C14.185 46.95 14.065 46.78 13.915 46.66C13.765 46.54 13.575 46.49 13.355 46.49C13.135 46.49 12.945 46.55 12.795 46.67C12.645 46.79 12.525 46.96 12.445 47.17C12.365 47.38 12.325 47.63 12.325 47.91C12.325 48.19 12.365 48.44 12.445 48.66C12.525 48.88 12.645 49.05 12.795 49.17C12.945 49.29 13.135 49.35 13.355 49.35L13.365 49.36Z" fill="#1A1A1A"/>
<path d="M18.365 50.46C18.055 50.46 17.775 50.41 17.535 50.3C17.295 50.19 17.095 50.03 16.955 49.81C16.815 49.59 16.745 49.33 16.745 49C16.745 48.73 16.795 48.5 16.895 48.32C16.995 48.14 17.135 47.99 17.305 47.87C17.475 47.76 17.675 47.67 17.895 47.62C18.115 47.56 18.345 47.52 18.585 47.5C18.865 47.47 19.095 47.44 19.275 47.42C19.445 47.39 19.575 47.35 19.655 47.3C19.735 47.25 19.775 47.17 19.775 47.06V47.04C19.775 46.84 19.715 46.68 19.585 46.57C19.455 46.46 19.275 46.4 19.045 46.4C18.805 46.4 18.605 46.45 18.465 46.56C18.325 46.67 18.225 46.8 18.175 46.96L16.925 46.86C16.985 46.56 17.115 46.31 17.305 46.09C17.495 45.87 17.735 45.71 18.025 45.59C18.315 45.47 18.665 45.41 19.055 45.41C19.325 45.41 19.585 45.44 19.835 45.51C20.085 45.57 20.305 45.67 20.505 45.81C20.695 45.94 20.855 46.11 20.965 46.32C21.075 46.53 21.135 46.78 21.135 47.07V50.37H19.845V49.69H19.805C19.725 49.84 19.625 49.98 19.485 50.09C19.355 50.21 19.195 50.3 19.015 50.36C18.835 50.43 18.615 50.46 18.375 50.46H18.365ZM18.755 49.52C18.955 49.52 19.135 49.48 19.285 49.4C19.435 49.32 19.555 49.21 19.645 49.08C19.735 48.95 19.775 48.79 19.775 48.62V48.1C19.775 48.1 19.675 48.15 19.605 48.17C19.535 48.19 19.445 48.21 19.355 48.23C19.265 48.25 19.175 48.26 19.085 48.28C18.995 48.29 18.915 48.31 18.835 48.32C18.675 48.34 18.535 48.38 18.415 48.43C18.295 48.48 18.205 48.55 18.135 48.64C18.065 48.73 18.035 48.83 18.035 48.96C18.035 49.14 18.105 49.29 18.235 49.38C18.365 49.47 18.545 49.52 18.745 49.52H18.755Z" fill="#1A1A1A"/>
<path d="M24.845 45.48V46.5H21.905V45.48H24.845ZM22.575 44.31H23.935V48.87C23.935 48.99 23.955 49.09 23.995 49.16C24.035 49.23 24.085 49.28 24.155 49.3C24.225 49.33 24.305 49.34 24.395 49.34C24.455 49.34 24.525 49.34 24.585 49.32C24.645 49.31 24.695 49.3 24.735 49.29L24.945 50.3C24.875 50.32 24.785 50.35 24.655 50.38C24.525 50.41 24.385 50.43 24.205 50.43C23.875 50.44 23.595 50.4 23.345 50.3C23.095 50.2 22.905 50.05 22.775 49.84C22.645 49.63 22.575 49.36 22.575 49.04V44.31Z" fill="#1A1A1A"/>
<path d="M27.195 50.46C26.885 50.46 26.605 50.41 26.365 50.3C26.125 50.19 25.925 50.03 25.785 49.81C25.645 49.59 25.575 49.33 25.575 49C25.575 48.73 25.625 48.5 25.725 48.32C25.825 48.14 25.965 47.99 26.135 47.87C26.305 47.76 26.505 47.67 26.725 47.62C26.945 47.56 27.175 47.52 27.415 47.5C27.695 47.47 27.925 47.44 28.105 47.42C28.275 47.39 28.405 47.35 28.485 47.3C28.565 47.25 28.605 47.17 28.605 47.06V47.04C28.605 46.84 28.545 46.68 28.415 46.57C28.285 46.46 28.105 46.4 27.875 46.4C27.635 46.4 27.435 46.45 27.295 46.56C27.155 46.67 27.055 46.8 27.005 46.96L25.755 46.86C25.815 46.56 25.945 46.31 26.135 46.09C26.325 45.87 26.565 45.71 26.855 45.59C27.145 45.47 27.495 45.41 27.885 45.41C28.155 45.41 28.415 45.44 28.665 45.51C28.915 45.57 29.135 45.67 29.335 45.81C29.525 45.94 29.685 46.11 29.795 46.32C29.905 46.53 29.965 46.78 29.965 47.07V50.37H28.675V49.69H28.635C28.555 49.84 28.455 49.98 28.315 50.09C28.185 50.21 28.025 50.3 27.845 50.36C27.665 50.43 27.445 50.46 27.205 50.46H27.195ZM27.585 49.52C27.785 49.52 27.965 49.48 28.115 49.4C28.265 49.32 28.385 49.21 28.475 49.08C28.565 48.95 28.605 48.79 28.605 48.62V48.1C28.605 48.1 28.505 48.15 28.435 48.17C28.365 48.19 28.275 48.21 28.185 48.23C28.095 48.25 28.005 48.26 27.915 48.28C27.825 48.29 27.745 48.31 27.665 48.32C27.505 48.34 27.365 48.38 27.245 48.43C27.125 48.48 27.035 48.55 26.965 48.64C26.895 48.73 26.865 48.83 26.865 48.96C26.865 49.14 26.935 49.29 27.065 49.38C27.195 49.47 27.375 49.52 27.575 49.52H27.585Z" fill="#1A1A1A"/>
<path d="M31.985 50.45C31.775 50.45 31.595 50.37 31.445 50.23C31.295 50.09 31.225 49.9 31.225 49.69C31.225 49.48 31.305 49.3 31.445 49.16C31.595 49.01 31.775 48.94 31.985 48.94C32.195 48.94 32.365 49.01 32.515 49.16C32.665 49.31 32.745 49.49 32.745 49.69C32.745 49.83 32.705 49.96 32.635 50.07C32.565 50.19 32.475 50.28 32.355 50.35C32.245 50.42 32.115 50.45 31.975 50.45H31.985Z" fill="#1A1A1A"/>
<path d="M34.695 44.85C34.495 44.85 34.325 44.78 34.175 44.65C34.035 44.52 33.965 44.35 33.965 44.17C33.965 43.99 34.035 43.82 34.175 43.69C34.315 43.56 34.495 43.49 34.695 43.49C34.895 43.49 35.065 43.56 35.215 43.69C35.355 43.82 35.425 43.98 35.425 44.17C35.425 44.36 35.355 44.52 35.215 44.65C35.075 44.78 34.895 44.85 34.695 44.85ZM34.015 50.37V45.48H35.365V50.37H34.015Z" fill="#1A1A1A"/>
<path d="M38.795 50.46C38.305 50.46 37.875 50.35 37.515 50.14C37.155 49.93 36.875 49.63 36.685 49.26C36.495 48.88 36.395 48.44 36.395 47.94C36.395 47.44 36.495 46.99 36.685 46.62C36.885 46.24 37.155 45.95 37.515 45.74C37.875 45.53 38.305 45.42 38.795 45.42C39.285 45.42 39.715 45.53 40.075 45.74C40.435 45.95 40.715 46.25 40.905 46.62C41.105 47 41.195 47.44 41.195 47.94C41.195 48.44 41.095 48.88 40.905 49.26C40.705 49.64 40.435 49.93 40.075 50.14C39.715 50.35 39.285 50.46 38.795 50.46ZM38.795 49.41C39.015 49.41 39.205 49.35 39.355 49.22C39.505 49.09 39.615 48.92 39.695 48.69C39.775 48.47 39.815 48.21 39.815 47.93C39.815 47.65 39.775 47.39 39.695 47.17C39.615 46.95 39.505 46.77 39.355 46.64C39.205 46.51 39.015 46.45 38.795 46.45C38.575 46.45 38.375 46.51 38.225 46.64C38.075 46.77 37.955 46.95 37.875 47.17C37.795 47.39 37.755 47.65 37.755 47.93C37.755 48.21 37.795 48.47 37.875 48.69C37.955 48.91 38.065 49.09 38.225 49.22C38.375 49.35 38.565 49.41 38.795 49.41Z" fill="#1A1A1A"/>
<g style="mix-blend-mode:multiply">
<path d="M23.925 12.11L24.645 10.68C28.245 12.36 30.645 15.99 30.645 19.81C30.645 23.63 28.255 27.27 24.645 28.94L23.925 27.51C26.595 25.88 28.365 22.82 28.365 19.81C28.365 16.8 26.585 13.74 23.925 12.11ZM41.225 19.81C41.225 18.45 40.135 17.27 38.685 17.27C37.235 17.27 36.145 18.41 36.145 19.81C36.145 21.21 37.285 22.35 38.685 22.35C40.085 22.35 41.225 21.21 41.225 19.81ZM54.675 19.81C54.675 23.64 57.065 27.27 60.675 28.94L61.395 27.51C58.725 25.88 56.955 22.82 56.955 19.81C56.955 16.8 58.735 13.74 61.395 12.11L60.675 10.68C57.075 12.36 54.675 15.99 54.675 19.81ZM49.435 28.94V10.68H47.215V28.95H49.435V28.94ZM64.985 10.68L64.265 12.11C66.935 13.74 68.705 16.8 68.705 19.81C68.705 22.82 66.925 25.88 64.265 27.51L64.985 28.94C68.585 27.26 70.985 23.63 70.985 19.81C70.985 15.99 68.595 12.35 64.985 10.68ZM21.245 28.95V10.68H19.025V28.95H21.245ZM13.175 28.95V10.68H10.955V28.95H13.175Z" fill="#1A1A1A"/>
</g>
</svg>
