<svg width="80" height="61" viewBox="0 0 80 61" fill="none" xmlns="http://www.w3.org/2000/svg">
<path d="M10.715 36.04C10.515 36.04 10.345 35.97 10.195 35.84C10.055 35.71 9.985 35.54 9.985 35.36C9.985 35.18 10.055 35.01 10.195 34.88C10.335 34.75 10.515 34.68 10.715 34.68C10.915 34.68 11.085 34.75 11.235 34.88C11.375 35.01 11.445 35.17 11.445 35.36C11.445 35.55 11.375 35.71 11.235 35.84C11.095 35.97 10.915 36.04 10.715 36.04ZM10.035 41.55V36.66H11.385V41.55H10.035Z" fill="white"/>
<path d="M13.995 38.73V41.55H12.645V36.66H13.935V37.52H13.995C14.105 37.24 14.285 37.01 14.535 36.84C14.785 36.67 15.095 36.59 15.465 36.59C15.805 36.59 16.095 36.66 16.355 36.81C16.605 36.96 16.805 37.17 16.945 37.44C17.085 37.71 17.155 38.04 17.155 38.42V41.53H15.795V38.66C15.795 38.36 15.725 38.13 15.565 37.96C15.405 37.79 15.195 37.71 14.925 37.71C14.745 37.71 14.585 37.75 14.445 37.83C14.305 37.91 14.195 38.02 14.115 38.17C14.035 38.32 13.995 38.5 13.995 38.71V38.73Z" fill="white"/>
<path d="M22.725 36.67L21.015 41.56H19.485L17.775 36.67H19.205L20.215 40.17H20.265L21.275 36.67H22.705H22.725Z" fill="white"/>
<path d="M25.565 41.65C25.065 41.65 24.635 41.55 24.265 41.34C23.905 41.13 23.625 40.84 23.435 40.47C23.245 40.09 23.145 39.65 23.145 39.13C23.145 38.61 23.245 38.19 23.435 37.81C23.635 37.43 23.905 37.13 24.265 36.92C24.615 36.71 25.035 36.6 25.515 36.6C25.835 36.6 26.135 36.65 26.415 36.75C26.695 36.85 26.935 37.01 27.145 37.21C27.355 37.41 27.515 37.67 27.635 37.98C27.755 38.29 27.805 38.65 27.805 39.07V39.44H23.685V38.6H26.535C26.535 38.41 26.495 38.23 26.405 38.08C26.325 37.93 26.205 37.81 26.055 37.73C25.905 37.65 25.735 37.6 25.535 37.6C25.335 37.6 25.145 37.65 24.995 37.74C24.835 37.83 24.715 37.96 24.625 38.12C24.535 38.28 24.495 38.45 24.485 38.65V39.45C24.485 39.69 24.525 39.9 24.625 40.08C24.715 40.26 24.845 40.39 25.005 40.49C25.175 40.58 25.365 40.63 25.595 40.63C25.745 40.63 25.885 40.61 26.005 40.57C26.125 40.53 26.235 40.46 26.325 40.38C26.415 40.29 26.485 40.19 26.525 40.07L27.775 40.15C27.715 40.45 27.585 40.71 27.385 40.94C27.185 41.17 26.935 41.34 26.625 41.46C26.315 41.58 25.955 41.65 25.555 41.65H25.565Z" fill="white"/>
<path d="M32.875 38.06L31.635 38.14C31.615 38.03 31.565 37.94 31.495 37.85C31.425 37.76 31.335 37.7 31.215 37.64C31.105 37.59 30.965 37.56 30.805 37.56C30.595 37.56 30.415 37.6 30.275 37.69C30.135 37.78 30.055 37.9 30.055 38.04C30.055 38.16 30.105 38.26 30.195 38.34C30.285 38.42 30.445 38.49 30.675 38.53L31.555 38.71C32.035 38.81 32.385 38.96 32.615 39.18C32.845 39.4 32.965 39.68 32.965 40.03C32.965 40.35 32.875 40.63 32.685 40.87C32.495 41.11 32.245 41.3 31.915 41.43C31.585 41.56 31.215 41.63 30.795 41.63C30.145 41.63 29.635 41.5 29.255 41.22C28.875 40.94 28.645 40.58 28.585 40.11L29.915 40.04C29.955 40.24 30.055 40.39 30.205 40.49C30.355 40.59 30.555 40.64 30.795 40.64C31.035 40.64 31.225 40.59 31.365 40.5C31.505 40.41 31.585 40.29 31.585 40.14C31.585 40.02 31.535 39.92 31.425 39.84C31.325 39.76 31.165 39.7 30.955 39.66L30.105 39.49C29.625 39.39 29.275 39.23 29.045 38.99C28.815 38.75 28.695 38.45 28.695 38.09C28.695 37.78 28.775 37.51 28.955 37.28C29.135 37.05 29.365 36.88 29.675 36.76C29.985 36.64 30.345 36.58 30.765 36.58C31.385 36.58 31.865 36.71 32.225 36.97C32.575 37.23 32.785 37.59 32.845 38.04L32.875 38.06Z" fill="white"/>
<path d="M36.555 36.67V37.69H33.615V36.67H36.555ZM34.285 35.5H35.645V40.06C35.645 40.18 35.665 40.28 35.705 40.35C35.745 40.42 35.795 40.47 35.865 40.49C35.935 40.52 36.015 40.53 36.105 40.53C36.165 40.53 36.235 40.53 36.295 40.51C36.355 40.5 36.405 40.49 36.445 40.48L36.655 41.49C36.585 41.51 36.495 41.54 36.365 41.57C36.235 41.6 36.095 41.62 35.915 41.62C35.585 41.63 35.305 41.59 35.055 41.49C34.805 41.39 34.615 41.24 34.485 41.03C34.355 40.82 34.285 40.55 34.285 40.23V35.5Z" fill="white"/>
<path d="M38.245 36.04C38.045 36.04 37.875 35.97 37.725 35.84C37.585 35.71 37.515 35.54 37.515 35.36C37.515 35.18 37.585 35.01 37.725 34.88C37.865 34.75 38.045 34.68 38.245 34.68C38.445 34.68 38.615 34.75 38.765 34.88C38.905 35.01 38.975 35.17 38.975 35.36C38.975 35.55 38.905 35.71 38.765 35.84C38.625 35.97 38.445 36.04 38.245 36.04ZM37.565 41.56V36.67H38.915V41.56H37.565Z" fill="white"/>
<path d="M42.335 43.49C41.895 43.49 41.515 43.43 41.205 43.31C40.895 43.19 40.645 43.03 40.455 42.82C40.275 42.61 40.155 42.38 40.095 42.13L41.345 41.96C41.385 42.06 41.445 42.15 41.525 42.23C41.605 42.31 41.715 42.38 41.855 42.44C41.995 42.5 42.155 42.52 42.355 42.52C42.645 42.52 42.895 42.45 43.085 42.31C43.275 42.17 43.375 41.93 43.375 41.59V40.7H43.315C43.255 40.84 43.165 40.96 43.045 41.08C42.925 41.2 42.775 41.3 42.585 41.38C42.395 41.46 42.175 41.5 41.915 41.5C41.545 41.5 41.215 41.41 40.915 41.24C40.615 41.07 40.375 40.81 40.195 40.45C40.015 40.1 39.925 39.65 39.925 39.11C39.925 38.57 40.015 38.09 40.195 37.72C40.375 37.35 40.615 37.07 40.915 36.89C41.215 36.71 41.545 36.61 41.905 36.61C42.175 36.61 42.405 36.66 42.595 36.75C42.785 36.84 42.925 36.96 43.045 37.09C43.165 37.22 43.245 37.36 43.305 37.49H43.355V36.67H44.705V41.6C44.705 42.02 44.605 42.36 44.395 42.64C44.195 42.92 43.915 43.13 43.555 43.27C43.195 43.41 42.785 43.48 42.315 43.48L42.335 43.49ZM42.365 40.47C42.585 40.47 42.765 40.42 42.915 40.31C43.065 40.2 43.185 40.04 43.265 39.84C43.345 39.64 43.385 39.39 43.385 39.1C43.385 38.81 43.345 38.57 43.265 38.35C43.185 38.14 43.065 37.97 42.915 37.86C42.765 37.75 42.575 37.69 42.355 37.69C42.135 37.69 41.945 37.75 41.795 37.87C41.645 37.99 41.525 38.16 41.445 38.37C41.365 38.58 41.325 38.83 41.325 39.1C41.325 39.37 41.365 39.63 41.445 39.83C41.525 40.04 41.645 40.19 41.795 40.3C41.945 40.41 42.135 40.47 42.355 40.47H42.365Z" fill="white"/>
<path d="M47.355 41.65C47.045 41.65 46.765 41.6 46.525 41.49C46.285 41.38 46.085 41.22 45.945 41C45.805 40.78 45.735 40.52 45.735 40.19C45.735 39.92 45.785 39.69 45.885 39.51C45.985 39.33 46.125 39.18 46.295 39.06C46.465 38.95 46.665 38.86 46.885 38.81C47.105 38.75 47.335 38.71 47.575 38.69C47.855 38.66 48.085 38.63 48.265 38.61C48.435 38.58 48.565 38.54 48.645 38.49C48.725 38.44 48.765 38.36 48.765 38.25V38.23C48.765 38.03 48.705 37.87 48.575 37.76C48.445 37.65 48.265 37.59 48.035 37.59C47.795 37.59 47.595 37.64 47.455 37.75C47.315 37.86 47.215 37.99 47.165 38.15L45.915 38.05C45.975 37.75 46.105 37.5 46.295 37.28C46.485 37.06 46.725 36.9 47.015 36.78C47.305 36.66 47.655 36.6 48.045 36.6C48.315 36.6 48.575 36.63 48.825 36.7C49.075 36.76 49.295 36.86 49.495 37C49.685 37.13 49.845 37.3 49.955 37.51C50.065 37.72 50.125 37.97 50.125 38.26V41.56H48.835V40.88H48.795C48.715 41.03 48.615 41.17 48.475 41.28C48.345 41.4 48.185 41.49 48.005 41.55C47.825 41.62 47.605 41.65 47.365 41.65H47.355ZM47.745 40.71C47.945 40.71 48.125 40.67 48.275 40.59C48.425 40.51 48.545 40.4 48.635 40.27C48.725 40.14 48.765 39.98 48.765 39.81V39.29C48.765 39.29 48.665 39.34 48.595 39.36C48.525 39.38 48.435 39.4 48.345 39.42C48.255 39.44 48.165 39.45 48.075 39.47C47.985 39.48 47.905 39.5 47.825 39.51C47.665 39.53 47.525 39.57 47.405 39.62C47.285 39.67 47.195 39.74 47.125 39.83C47.055 39.92 47.025 40.02 47.025 40.15C47.025 40.33 47.095 40.48 47.225 40.57C47.355 40.66 47.535 40.71 47.735 40.71H47.745Z" fill="white"/>
<path d="M53.835 36.67V37.69H50.895V36.67H53.835ZM51.565 35.5H52.925V40.06C52.925 40.18 52.945 40.28 52.985 40.35C53.025 40.42 53.075 40.47 53.145 40.49C53.215 40.52 53.295 40.53 53.385 40.53C53.445 40.53 53.515 40.53 53.575 40.51C53.635 40.5 53.685 40.49 53.725 40.48L53.935 41.49C53.865 41.51 53.775 41.54 53.645 41.57C53.515 41.6 53.375 41.62 53.195 41.62C52.865 41.63 52.585 41.59 52.335 41.49C52.085 41.39 51.895 41.24 51.765 41.03C51.635 40.82 51.565 40.55 51.565 40.23V35.5Z" fill="white"/>
<path d="M55.525 36.04C55.325 36.04 55.155 35.97 55.005 35.84C54.865 35.71 54.795 35.54 54.795 35.36C54.795 35.18 54.865 35.01 55.005 34.88C55.145 34.75 55.325 34.68 55.525 34.68C55.725 34.68 55.895 34.75 56.045 34.88C56.185 35.01 56.255 35.17 56.255 35.36C56.255 35.55 56.185 35.71 56.045 35.84C55.905 35.97 55.725 36.04 55.525 36.04ZM54.845 41.56V36.67H56.195V41.56H54.845Z" fill="white"/>
<path d="M61.945 36.67L60.235 41.56H58.705L56.995 36.67H58.425L59.435 40.17H59.485L60.495 36.67H61.925H61.945Z" fill="white"/>
<path d="M64.785 41.65C64.285 41.65 63.855 41.55 63.485 41.34C63.125 41.13 62.845 40.84 62.655 40.47C62.465 40.09 62.365 39.65 62.365 39.13C62.365 38.61 62.465 38.19 62.655 37.81C62.855 37.43 63.125 37.13 63.485 36.92C63.835 36.71 64.255 36.6 64.735 36.6C65.055 36.6 65.355 36.65 65.635 36.75C65.915 36.85 66.155 37.01 66.365 37.21C66.575 37.41 66.735 37.67 66.855 37.98C66.975 38.29 67.025 38.65 67.025 39.07V39.44H62.905V38.6H65.755C65.755 38.41 65.715 38.23 65.625 38.08C65.545 37.93 65.425 37.81 65.275 37.73C65.125 37.65 64.955 37.6 64.755 37.6C64.555 37.6 64.365 37.65 64.215 37.74C64.055 37.83 63.935 37.96 63.845 38.12C63.755 38.28 63.715 38.45 63.705 38.65V39.45C63.705 39.69 63.745 39.9 63.845 40.08C63.935 40.26 64.065 40.39 64.225 40.49C64.395 40.58 64.585 40.63 64.815 40.63C64.965 40.63 65.105 40.61 65.225 40.57C65.345 40.53 65.455 40.46 65.545 40.38C65.635 40.29 65.705 40.19 65.745 40.07L66.995 40.15C66.935 40.45 66.805 40.71 66.605 40.94C66.405 41.17 66.155 41.34 65.845 41.46C65.535 41.58 65.175 41.65 64.775 41.65H64.785Z" fill="white"/>
<path d="M11.965 50.44C11.595 50.44 11.255 50.34 10.955 50.15C10.655 49.96 10.415 49.67 10.245 49.3C10.075 48.93 9.985 48.47 9.985 47.92C9.985 47.37 10.075 46.89 10.255 46.52C10.435 46.15 10.675 45.87 10.975 45.68C11.275 45.49 11.605 45.4 11.965 45.4C12.235 45.4 12.465 45.45 12.655 45.54C12.845 45.63 12.985 45.75 13.105 45.88C13.225 46.01 13.305 46.15 13.365 46.28H13.405V43.83H14.755V50.34H13.415V49.56H13.355C13.295 49.7 13.205 49.83 13.085 49.96C12.965 50.09 12.825 50.2 12.635 50.29C12.445 50.38 12.225 50.42 11.965 50.42V50.44ZM12.395 49.36C12.615 49.36 12.795 49.3 12.945 49.18C13.095 49.06 13.215 48.89 13.295 48.68C13.375 48.46 13.415 48.21 13.415 47.92C13.415 47.63 13.375 47.38 13.295 47.16C13.215 46.95 13.095 46.78 12.945 46.66C12.795 46.54 12.605 46.49 12.385 46.49C12.165 46.49 11.975 46.55 11.825 46.67C11.675 46.79 11.555 46.96 11.475 47.17C11.395 47.38 11.355 47.63 11.355 47.91C11.355 48.19 11.395 48.44 11.475 48.66C11.555 48.88 11.675 49.05 11.825 49.17C11.975 49.29 12.165 49.35 12.385 49.35L12.395 49.36Z" fill="white"/>
<path d="M17.395 50.46C17.085 50.46 16.805 50.41 16.565 50.3C16.325 50.19 16.125 50.03 15.985 49.81C15.845 49.59 15.775 49.33 15.775 49C15.775 48.73 15.825 48.5 15.925 48.32C16.025 48.14 16.165 47.99 16.335 47.87C16.505 47.76 16.705 47.67 16.925 47.62C17.145 47.56 17.375 47.52 17.615 47.5C17.895 47.47 18.125 47.44 18.305 47.42C18.475 47.39 18.605 47.35 18.685 47.3C18.765 47.25 18.805 47.17 18.805 47.06V47.04C18.805 46.84 18.745 46.68 18.615 46.57C18.485 46.46 18.305 46.4 18.075 46.4C17.835 46.4 17.635 46.45 17.495 46.56C17.355 46.67 17.255 46.8 17.205 46.96L15.955 46.86C16.015 46.56 16.145 46.31 16.335 46.09C16.525 45.87 16.765 45.71 17.055 45.59C17.345 45.47 17.695 45.41 18.085 45.41C18.355 45.41 18.615 45.44 18.865 45.51C19.115 45.57 19.335 45.67 19.535 45.81C19.725 45.94 19.885 46.11 19.995 46.32C20.105 46.53 20.165 46.78 20.165 47.07V50.37H18.875V49.69H18.835C18.755 49.84 18.655 49.98 18.515 50.09C18.385 50.21 18.225 50.3 18.045 50.36C17.865 50.43 17.645 50.46 17.405 50.46H17.395ZM17.785 49.52C17.985 49.52 18.165 49.48 18.315 49.4C18.465 49.32 18.585 49.21 18.675 49.08C18.765 48.95 18.805 48.79 18.805 48.62V48.1C18.805 48.1 18.705 48.15 18.635 48.17C18.565 48.19 18.475 48.21 18.385 48.23C18.295 48.25 18.205 48.26 18.115 48.28C18.025 48.29 17.945 48.31 17.865 48.32C17.705 48.34 17.565 48.38 17.445 48.43C17.325 48.48 17.235 48.55 17.165 48.64C17.095 48.73 17.065 48.83 17.065 48.96C17.065 49.14 17.135 49.29 17.265 49.38C17.395 49.47 17.575 49.52 17.775 49.52H17.785Z" fill="white"/>
<path d="M23.875 45.48V46.5H20.935V45.48H23.875ZM21.605 44.31H22.965V48.87C22.965 48.99 22.985 49.09 23.025 49.16C23.065 49.23 23.115 49.28 23.185 49.3C23.255 49.33 23.335 49.34 23.425 49.34C23.485 49.34 23.555 49.34 23.615 49.32C23.675 49.31 23.725 49.3 23.765 49.29L23.975 50.3C23.905 50.32 23.815 50.35 23.685 50.38C23.555 50.41 23.415 50.43 23.235 50.43C22.905 50.44 22.625 50.4 22.375 50.3C22.125 50.2 21.935 50.05 21.805 49.84C21.675 49.63 21.605 49.36 21.605 49.04V44.31Z" fill="white"/>
<path d="M26.225 50.46C25.915 50.46 25.635 50.41 25.395 50.3C25.155 50.19 24.955 50.03 24.815 49.81C24.675 49.59 24.605 49.33 24.605 49C24.605 48.73 24.655 48.5 24.755 48.32C24.855 48.14 24.995 47.99 25.165 47.87C25.335 47.76 25.535 47.67 25.755 47.62C25.975 47.56 26.205 47.52 26.445 47.5C26.725 47.47 26.955 47.44 27.135 47.42C27.305 47.39 27.435 47.35 27.515 47.3C27.595 47.25 27.635 47.17 27.635 47.06V47.04C27.635 46.84 27.575 46.68 27.445 46.57C27.315 46.46 27.135 46.4 26.905 46.4C26.665 46.4 26.465 46.45 26.325 46.56C26.185 46.67 26.085 46.8 26.035 46.96L24.785 46.86C24.845 46.56 24.975 46.31 25.165 46.09C25.355 45.87 25.595 45.71 25.885 45.59C26.175 45.47 26.525 45.41 26.915 45.41C27.185 45.41 27.445 45.44 27.695 45.51C27.945 45.57 28.165 45.67 28.365 45.81C28.555 45.94 28.715 46.11 28.825 46.32C28.935 46.53 28.995 46.78 28.995 47.07V50.37H27.705V49.69H27.665C27.585 49.84 27.485 49.98 27.345 50.09C27.215 50.21 27.055 50.3 26.875 50.36C26.695 50.43 26.475 50.46 26.235 50.46H26.225ZM26.615 49.52C26.815 49.52 26.995 49.48 27.145 49.4C27.295 49.32 27.415 49.21 27.505 49.08C27.595 48.95 27.635 48.79 27.635 48.62V48.1C27.635 48.1 27.535 48.15 27.465 48.17C27.395 48.19 27.305 48.21 27.215 48.23C27.125 48.25 27.035 48.26 26.945 48.28C26.855 48.29 26.775 48.31 26.695 48.32C26.535 48.34 26.395 48.38 26.275 48.43C26.155 48.48 26.065 48.55 25.995 48.64C25.925 48.73 25.895 48.83 25.895 48.96C25.895 49.14 25.965 49.29 26.095 49.38C26.225 49.47 26.405 49.52 26.605 49.52H26.615Z" fill="white"/>
<path d="M31.015 50.45C30.805 50.45 30.625 50.37 30.475 50.23C30.325 50.09 30.255 49.9 30.255 49.69C30.255 49.48 30.335 49.3 30.475 49.16C30.625 49.01 30.805 48.94 31.015 48.94C31.225 48.94 31.395 49.01 31.545 49.16C31.695 49.31 31.775 49.49 31.775 49.69C31.775 49.83 31.735 49.96 31.665 50.07C31.595 50.19 31.505 50.28 31.385 50.35C31.275 50.42 31.145 50.45 31.005 50.45H31.015Z" fill="white"/>
<path d="M33.725 44.85C33.525 44.85 33.355 44.78 33.205 44.65C33.065 44.52 32.995 44.35 32.995 44.17C32.995 43.99 33.065 43.82 33.205 43.69C33.345 43.56 33.525 43.49 33.725 43.49C33.925 43.49 34.095 43.56 34.245 43.69C34.385 43.82 34.455 43.98 34.455 44.17C34.455 44.36 34.385 44.52 34.245 44.65C34.105 44.78 33.925 44.85 33.725 44.85ZM33.045 50.37V45.48H34.395V50.37H33.045Z" fill="white"/>
<path d="M37.825 50.46C37.335 50.46 36.905 50.35 36.545 50.14C36.185 49.93 35.905 49.63 35.715 49.26C35.525 48.88 35.425 48.44 35.425 47.94C35.425 47.44 35.525 46.99 35.715 46.62C35.915 46.24 36.185 45.95 36.545 45.74C36.905 45.53 37.335 45.42 37.825 45.42C38.315 45.42 38.745 45.53 39.105 45.74C39.465 45.95 39.745 46.25 39.935 46.62C40.135 47 40.225 47.44 40.225 47.94C40.225 48.44 40.125 48.88 39.935 49.26C39.735 49.64 39.465 49.93 39.105 50.14C38.745 50.35 38.315 50.46 37.825 50.46ZM37.825 49.41C38.045 49.41 38.235 49.35 38.385 49.22C38.535 49.09 38.645 48.92 38.725 48.69C38.805 48.47 38.845 48.21 38.845 47.93C38.845 47.65 38.805 47.39 38.725 47.17C38.645 46.95 38.535 46.77 38.385 46.64C38.235 46.51 38.045 46.45 37.825 46.45C37.605 46.45 37.405 46.51 37.255 46.64C37.105 46.77 36.985 46.95 36.905 47.17C36.825 47.39 36.785 47.65 36.785 47.93C36.785 48.21 36.825 48.47 36.905 48.69C36.985 48.91 37.095 49.09 37.255 49.22C37.405 49.35 37.595 49.41 37.825 49.41Z" fill="white"/>
<path d="M22.955 12.11L23.675 10.68C27.275 12.36 29.675 15.99 29.675 19.81C29.675 23.63 27.285 27.27 23.675 28.94L22.955 27.51C25.625 25.88 27.395 22.82 27.395 19.81C27.395 16.8 25.615 13.74 22.955 12.11ZM40.255 19.81C40.255 18.45 39.165 17.27 37.715 17.27C36.265 17.27 35.175 18.41 35.175 19.81C35.175 21.21 36.315 22.35 37.715 22.35C39.115 22.35 40.255 21.21 40.255 19.81ZM53.705 19.81C53.705 23.64 56.095 27.27 59.705 28.94L60.425 27.51C57.755 25.88 55.985 22.82 55.985 19.81C55.985 16.8 57.765 13.74 60.425 12.11L59.705 10.68C56.105 12.36 53.705 15.99 53.705 19.81ZM48.465 28.94V10.68H46.245V28.95H48.465V28.94ZM64.015 10.68L63.295 12.11C65.965 13.74 67.735 16.8 67.735 19.81C67.735 22.82 65.955 25.88 63.295 27.51L64.015 28.94C67.615 27.26 70.015 23.63 70.015 19.81C70.015 15.99 67.625 12.35 64.015 10.68ZM20.275 28.95V10.68H18.055V28.95H20.275ZM12.205 28.95V10.68H9.985V28.95H12.205Z" fill="white"/>
</svg>
