<svg width="80" height="41" viewBox="0 0 80 41" fill="none" xmlns="http://www.w3.org/2000/svg">
<path d="M22.955 12.455L23.675 11.025C27.275 12.705 29.675 16.335 29.675 20.155C29.675 23.975 27.285 27.615 23.675 29.285L22.955 27.855C25.625 26.225 27.395 23.165 27.395 20.155C27.395 17.145 25.615 14.085 22.955 12.455ZM40.255 20.155C40.255 18.795 39.165 17.615 37.715 17.615C36.265 17.615 35.175 18.755 35.175 20.155C35.175 21.555 36.315 22.695 37.715 22.695C39.115 22.695 40.255 21.555 40.255 20.155ZM53.705 20.155C53.705 23.985 56.095 27.615 59.705 29.285L60.425 27.855C57.755 26.225 55.985 23.165 55.985 20.155C55.985 17.145 57.765 14.085 60.425 12.455L59.705 11.025C56.105 12.705 53.705 16.335 53.705 20.155ZM48.465 29.285V11.025H46.245V29.295H48.465V29.285ZM64.015 11.025L63.295 12.455C65.965 14.085 67.735 17.145 67.735 20.155C67.735 23.165 65.955 26.225 63.295 27.855L64.015 29.285C67.615 27.605 70.015 23.975 70.015 20.155C70.015 16.335 67.625 12.695 64.015 11.025ZM20.275 29.295V11.025H18.055V29.295H20.275ZM12.205 29.295V11.025H9.985V29.295H12.205Z" fill="white"/>
</svg>
