<svg width="60" height="60" viewBox="0 0 60 60" fill="none" xmlns="http://www.w3.org/2000/svg">
<g clip-path="url(#clip0_259_351)">
<rect width="60" height="60" fill="#FF5F33"/>
<g style="mix-blend-mode:multiply">
<path d="M12.9635 1.42929L13.6832 0C17.2814 1.67916 19.6802 5.30735 19.6802 9.12544C19.6802 12.9435 17.2914 16.5817 13.6832 18.2509L12.9635 16.8216C15.6322 15.1924 17.4013 12.1339 17.4013 9.12544C17.4013 6.11694 15.6222 3.05847 12.9635 1.42929ZM30.2549 9.12544C30.2549 7.76612 29.1654 6.58671 27.7161 6.58671C26.2669 6.58671 25.1774 7.72614 25.1774 9.12544C25.1774 10.5247 26.3168 11.6642 27.7161 11.6642C29.1154 11.6642 30.2549 10.5247 30.2549 9.12544ZM43.6982 9.12544C43.6982 12.9535 46.087 16.5817 49.6952 18.2509L50.4148 16.8216C47.7461 15.1924 45.977 12.1339 45.977 9.12544C45.977 6.11694 47.7561 3.05847 50.4148 1.42929L49.6952 0C46.097 1.67916 43.6982 5.30735 43.6982 9.12544ZM38.4608 18.2509V0H36.2419V18.2609H38.4608V18.2509ZM54.003 0L53.2834 1.42929C55.952 3.05847 57.7211 6.11694 57.7211 9.12544C57.7211 12.1339 55.942 15.1924 53.2834 16.8216L54.003 18.2509C57.6012 16.5717 60 12.9435 60 9.12544C60 5.30735 57.6112 1.66917 54.003 0ZM10.2849 18.2609V0H8.06597V18.2609H10.2849ZM2.21889 18.2609V0H0V18.2609H2.21889Z" fill="#1A1A1A"/>
</g>
<g style="mix-blend-mode:multiply">
<path d="M12.9635 22.1902L13.6832 20.7609C17.2814 22.44 19.6802 26.0682 19.6802 29.8863C19.6802 33.7044 17.2914 37.3426 13.6832 39.0117L12.9635 37.5825C15.6322 35.9533 17.4013 32.8948 17.4013 29.8863C17.4013 26.8778 15.6222 23.8193 12.9635 22.1902ZM30.2549 29.8863C30.2549 28.527 29.1654 27.3476 27.7161 27.3476C26.2669 27.3476 25.1774 28.487 25.1774 29.8863C25.1774 31.2856 26.3168 32.425 27.7161 32.425C29.1154 32.425 30.2549 31.2856 30.2549 29.8863ZM43.6982 29.8863C43.6982 33.7144 46.087 37.3426 49.6952 39.0117L50.4148 37.5825C47.7461 35.9533 45.977 32.8948 45.977 29.8863C45.977 26.8778 47.7561 23.8193 50.4148 22.1902L49.6952 20.7609C46.097 22.44 43.6982 26.0682 43.6982 29.8863ZM38.4608 39.0117V20.7609H36.2419V39.0217H38.4608V39.0117ZM54.003 20.7609L53.2834 22.1902C55.952 23.8193 57.7211 26.8778 57.7211 29.8863C57.7211 32.8948 55.942 35.9533 53.2834 37.5825L54.003 39.0117C57.6012 37.3326 60 33.7044 60 29.8863C60 26.0682 57.6112 22.43 54.003 20.7609ZM10.2849 39.0217V20.7609H8.06597V39.0217H10.2849ZM2.21889 39.0217V20.7609H0V39.0217H2.21889Z" fill="#1A1A1A"/>
</g>
<g style="mix-blend-mode:multiply">
<path d="M12.9635 42.951L13.6832 41.5217C17.2814 43.2009 19.6802 46.8291 19.6802 50.6472C19.6802 54.4653 17.2914 58.1035 13.6832 59.7726L12.9635 58.3433C15.6322 56.7141 17.4013 53.6557 17.4013 50.6472C17.4013 47.6387 15.6222 44.5802 12.9635 42.951ZM30.2549 50.6472C30.2549 49.2879 29.1654 48.1085 27.7161 48.1085C26.2669 48.1085 25.1774 49.2479 25.1774 50.6472C25.1774 52.0465 26.3168 53.1859 27.7161 53.1859C29.1154 53.1859 30.2549 52.0465 30.2549 50.6472ZM43.6982 50.6472C43.6982 54.4753 46.087 58.1035 49.6952 59.7726L50.4148 58.3433C47.7461 56.7141 45.977 53.6557 45.977 50.6472C45.977 47.6387 47.7561 44.5802 50.4148 42.951L49.6952 41.5217C46.097 43.2009 43.6982 46.8291 43.6982 50.6472ZM38.4608 59.7726V41.5217H36.2419V59.7826H38.4608V59.7726ZM54.003 41.5217L53.2834 42.951C55.952 44.5802 57.7211 47.6387 57.7211 50.6472C57.7211 53.6557 55.942 56.7141 53.2834 58.3433L54.003 59.7726C57.6012 58.0935 60 54.4653 60 50.6472C60 46.8291 57.6112 43.1909 54.003 41.5217ZM10.2849 59.7826V41.5217H8.06597V59.7826H10.2849ZM2.21889 59.7826V41.5217H0V59.7826H2.21889Z" fill="#1A1A1A"/>
</g>
</g>
<defs>
<clipPath id="clip0_259_351">
<rect width="60" height="60" fill="white"/>
</clipPath>
</defs>
</svg>
