<svg width="72" height="72" viewBox="0 0 72 72" fill="none" xmlns="http://www.w3.org/2000/svg">
<path d="M40.9296 44.3042C40.9296 43.8664 40.5869 43.1019 40.5201 42.6133C40.298 42.6124 36.6754 42.6762 36.3203 42.6133C36.0102 42.8929 35.3323 45.0744 35.3323 45.679C35.3323 46.6614 36.2246 48.3199 36.5 48.7496C36.6367 48.9625 35.3323 56.3339 35.3323 56.3339C35.276 56.6435 35.1774 57.9961 34.9212 58.1361H41.3806L39.5947 48.1416C39.5947 48.1416 40.9296 45.6 40.9296 44.3042Z" fill="#1DE9B6"/>
<path d="M40.9739 55.8602L39.6362 48.3433C39.5747 48.0464 40.0573 47.4125 40.2506 47.1791C40.5758 46.7826 41.2049 45.7321 41.2049 44.7623C41.2049 44.1073 39.9265 42.7979 39.6829 42.5879C39.5479 42.593 38.7918 42.9038 38.7766 42.9038C38.8434 43.3924 39.0372 44.6121 39.0372 45.0499C39.0372 46.3457 38.1957 48.0853 38.1957 48.0853L39.2832 58.1439L41.3806 58.1362C41.1319 58.0002 41.0357 56.1601 40.9739 55.8602Z" fill="#1DE9B6"/>
<path d="M59.4021 58.1366C59.7007 57.4045 59.4021 56.5849 59.4021 56.5849L56.3141 42.8718C56.3141 42.8718 49.0088 38.4103 47.0416 37.6914L47.0636 46.9504C47.0705 47.2549 46.586 48.0223 46.3517 48.2167L45.5694 51.289L45.5672 55.5633C45.5207 55.8883 45.4328 57.9982 45.1652 58.1443L59.4021 58.1366Z" fill="#1A1A1A"/>
<path d="M46.2128 39.8223C45.9418 40.0976 41.1574 42.7486 40.9653 42.797C41.1863 43.2355 40.918 43.7152 40.9296 44.3057C40.9303 44.3152 40.4582 47.2469 39.9806 47.9188L41.1397 55.6523C41.165 55.7753 41.611 58.0919 41.527 58.1376L45.0882 58.1453C45.0882 58.1453 47.0195 51.2998 46.9424 51.8466L47.9339 47.7689C47.7522 47.9202 46.2128 39.8223 46.2128 39.8223Z" fill="white"/>
<path d="M30.8577 56.237L30.3262 51.5634L29.3559 47.934C29.0913 47.729 29.2003 46.4565 29.2247 46.1226L29.3415 35.7598C26.6699 36.8684 18.9651 40.0438 17.5704 41.6598C16.0021 43.4762 13.2253 51.5827 12.0886 56.0016C12.0168 56.2803 12.217 58.0129 11.9832 58.1411L30.8507 58.1338C30.5693 57.98 30.8901 56.5802 30.8577 56.237Z" fill="#1A1A1A"/>
<path d="M35.085 56.3677L36.2476 47.7093C35.8707 47.047 35.3474 44.0142 35.3501 43.9949C35.3837 43.2148 35.9552 43.1233 36.3203 42.6139C35.0329 41.9821 29.5077 36.0091 29.3415 35.7598C29.3415 35.7598 28.2676 49.086 28.0898 48.9492L29.3311 51.6582C29.2783 51.1084 30.9284 58.129 30.9284 58.129L34.8981 58.1367C34.8246 58.0961 35.0629 56.4905 35.085 56.3677Z" fill="white"/>
<path d="M54.2224 15.2929C52.9314 15.9909 51.4014 16.0869 50.0354 15.5569C47.0064 14.2879 43.5614 11.737 39.4554 10.7229C36.6064 10.0229 33.4504 9.91191 30.4764 11.9899C27.9584 13.7439 25.2474 20.0799 25.8354 25.4689C25.8354 25.4689 26.7834 22.6979 28.7264 25.1779L29.3264 27.9029C29.1654 26.8779 29.0894 25.8409 29.0974 24.8029C29.2354 23.9879 29.4844 23.9339 30.2574 22.2579C31.3794 19.8269 31.2154 18.6079 30.5704 17.9899C30.7704 18.0419 30.9464 18.0899 31.0804 18.1359C34.0494 19.1099 34.7514 19.5779 35.6104 19.8699C37.9734 20.6711 43.2222 21.2419 47.1398 20.8268C47.049 20.9043 46.9722 20.9578 46.9214 20.9674C47.6757 23.2638 48.5103 26.4837 48.6008 28.9559C48.6227 29.3695 50.6259 29.0883 50.6259 29.0883C50.6623 28.0505 50.6291 24.1712 50.3937 20.0784C52.9362 18.9334 54.2224 15.2929 54.2224 15.2929Z" fill="#1DE9B6"/>
<path d="M44.7183 41.3563C46.954 39.4757 48.3539 36.7322 48.5596 33.8177C48.8108 31.4781 48.8649 29.1406 48.7242 26.8312C48.7022 26.3158 48.6525 25.8065 48.5852 25.3016C48.5339 24.9275 48.4614 24.5589 48.3849 24.1913C48.3623 24.0799 48.3459 23.967 48.321 23.8562C48.2154 23.3964 48.091 22.9417 47.9468 22.4926C47.9441 22.4837 47.9419 22.4747 47.939 22.466C47.7889 22.0005 47.6186 21.5407 47.4284 21.0871C47.1712 21.1033 46.9117 21.1154 46.6494 21.1253C46.5989 21.1272 46.5484 21.1288 46.4977 21.1304C45.7052 21.1567 44.8984 21.1561 44.0894 21.1318C44.0339 21.1302 43.9786 21.1286 43.9232 21.1267C43.6584 21.1177 43.3955 21.1074 43.1322 21.0938C43.1232 21.0932 43.1143 21.0927 43.1053 21.0921C42.6122 21.0662 42.1253 21.032 41.6442 20.9912C41.541 20.9825 41.4375 20.9743 41.3349 20.9649C41.129 20.946 40.9265 20.9259 40.7245 20.9047C40.5792 20.8894 40.4368 20.8731 40.294 20.8567C40.0631 20.8299 39.8355 20.8026 39.6115 20.7729C39.383 20.7429 39.1572 20.712 38.9372 20.6792C38.8043 20.6593 38.6763 20.6386 38.5471 20.6177C38.3521 20.5865 38.1619 20.5543 37.9756 20.5212C37.8723 20.5027 37.768 20.4848 37.6677 20.4659C37.3938 20.4143 37.1305 20.3609 36.8804 20.3058C36.8213 20.2927 36.7675 20.2793 36.7098 20.266C36.5044 20.2188 36.3089 20.1709 36.1228 20.1218C36.0575 20.1045 35.9926 20.0876 35.9299 20.0701C35.7067 20.0082 35.4939 19.9454 35.3056 19.8815C34.9569 19.7635 33.8032 19.3791 33.3864 19.1978C33.3848 19.1971 33.3839 19.1967 33.3825 19.196C32.9114 19.0195 31.0895 18.0502 31.0804 18.1362C31.0727 18.2084 30.099 23.2253 29.9019 23.581C29.6735 23.9946 27.7541 24.1995 26.9693 23.9528C26.9413 23.944 26.2003 24.8199 26.1795 24.8475C26.1621 24.8702 26.1451 24.8921 26.1273 24.9178C26.0942 24.967 26.061 25.0199 26.0295 25.0751C26.027 25.0796 26.0243 25.0842 26.0218 25.0887C25.9865 25.1517 25.9535 25.2162 25.9259 25.2779C25.9259 25.2778 25.9259 25.278 25.9259 25.2779C25.9259 25.2786 25.9258 25.2795 25.9258 25.2802C25.8724 26.0176 25.917 26.7548 26.0578 27.4731C26.0641 27.5051 26.076 27.5358 26.0827 27.5677C26.1506 27.8931 26.233 28.2156 26.3404 28.5311C26.4606 28.8818 26.603 29.2257 26.7708 29.5595C27.0306 29.9991 27.3641 30.2027 27.7506 30.4376C28.2595 30.7472 28.9578 31.1716 29.1895 32.185C30.5602 38.1592 34.7274 42.8721 38.677 42.9132C40.8337 43.0583 42.9579 42.504 44.7183 41.3563Z" fill="#DAFFEC"/>
<path d="M45.9517 51.7051L45.1828 57.1379" stroke="#1A1A1A" stroke-width="2" stroke-linecap="round" stroke-linejoin="round"/>
<path d="M30.8577 57.1371L30.3262 51.5625" stroke="#1A1A1A" stroke-width="2" stroke-linecap="round" stroke-linejoin="round"/>
<path d="M47.54 38.1895C49.3496 38.813 53.7491 40.5002 55.8964 42.8174C58.8642 46.0222 59.3749 55.8415 59.4299 57.1376" stroke="#1A1A1A" stroke-width="2" stroke-linecap="round" stroke-linejoin="round"/>
<path d="M53.5054 57.1378V48.2168" stroke="#1A1A1A" stroke-width="2" stroke-linecap="round" stroke-linejoin="round"/>
<path d="M12.0886 57.1378C12.3921 55.9606 15.495 44.064 17.5704 41.6598C19.5084 39.4138 28.4954 35.7598 28.4954 35.7598L30.0213 35.941" stroke="#1A1A1A" stroke-width="2" stroke-linecap="round" stroke-linejoin="round"/>
<path d="M20.3154 57.1372V47.3262" stroke="#1A1A1A" stroke-width="2" stroke-linecap="round" stroke-linejoin="round"/>
<path d="M39.6829 42.5879C39.6829 42.5879 40.9974 43.3423 40.9974 44.8953C40.9974 46.4483 39.5947 48.1417 39.5947 48.1417L41.4455 57.1373" stroke="#1A1A1A" stroke-width="2" stroke-linecap="round" stroke-linejoin="round"/>
<path d="M34.9458 57.1361L36.5697 48.1551C36.5697 48.1551 35.4198 46.3745 35.4198 44.8711C35.4198 43.3677 36.9292 42.4043 36.9292 42.4043" stroke="#1A1A1A" stroke-width="2" stroke-linecap="round" stroke-linejoin="round"/>
<path d="M44.1145 47.3267L47.0244 47.9339L46.8224 38.8047" stroke="#1A1A1A" stroke-width="2" stroke-linecap="round" stroke-linejoin="round"/>
<path d="M31.1405 47.325L28.7011 48.155L29.6561 34.8672" stroke="#1A1A1A" stroke-width="2" stroke-linecap="round" stroke-linejoin="round"/>
<path d="M46.9214 20.9668C47.8004 22.8647 48.3017 24.9223 48.3904 27.0233C48.5214 29.1683 48.4714 31.3203 48.2414 33.4563C48.0344 36.3903 46.6374 39.1113 44.3764 40.9903C42.5874 42.1723 40.4594 42.7343 38.3194 42.5903C34.2404 42.5473 30.1404 37.9903 28.7974 32.1373C28.5674 31.1313 27.4814 31.3363 26.6974 29.9943C25.9944 28.5963 25.6954 27.0283 25.8354 25.4693" stroke="#1A1A1A" stroke-width="2" stroke-linecap="round" stroke-linejoin="round"/>
<path d="M39.7204 33.1364C40.5704 33.3174 41.1114 34.1514 40.9304 34.9994L40.6774 36.1884C40.4964 37.0374 39.6624 37.5794 38.8144 37.3974C37.9654 37.2174 37.4224 36.3824 37.6034 35.5344L37.8564 34.3454C38.0374 33.4974 38.8724 32.9554 39.7204 33.1364Z" stroke="#1A1A1A" stroke-width="2" stroke-linecap="round" stroke-linejoin="round"/>
<path d="M43.1994 28.4355C44.304 28.4355 45.1994 27.5401 45.1994 26.4355C45.1994 25.331 44.304 24.4355 43.1994 24.4355C42.0948 24.4355 41.1994 25.331 41.1994 26.4355C41.1994 27.5401 42.0948 28.4355 43.1994 28.4355Z" fill="#1A1A1A"/>
<path d="M35.1494 28.4355C36.254 28.4355 37.1494 27.5401 37.1494 26.4355C37.1494 25.331 36.254 24.4355 35.1494 24.4355C34.0448 24.4355 33.1494 25.331 33.1494 26.4355C33.1494 27.5401 34.0448 28.4355 35.1494 28.4355Z" fill="#1A1A1A"/>
<path d="M50.3543 20.5762C50.707 24.1383 51.0585 28.9783 50.4694 29.3603C50.0852 29.6097 49.6998 29.8625 49.3215 30.111" stroke="#1A1A1A" stroke-width="2" stroke-linecap="round" stroke-linejoin="round"/>
<path d="M50.0354 15.5569C47.0064 14.2879 43.5614 11.7369 39.4554 10.7229C36.6064 10.0229 33.4504 9.91191 30.4764 11.9899C27.9584 13.7439 25.2474 20.0799 25.8354 25.4689C25.8354 25.4689 26.7834 22.6979 28.7264 25.1779L29.3264 27.9029C29.1654 26.8779 29.0894 25.8409 29.0974 24.8029C29.2354 23.9879 29.4844 23.9339 30.2574 22.2579C31.3794 19.8269 31.2154 18.6079 30.5704 17.9899C30.7704 18.0419 30.9464 18.0899 31.0804 18.1359C34.0494 19.1099 34.7514 19.5779 35.6104 19.8699C38.6984 20.9169 46.7234 21.5769 50.2514 20.1469C52.8904 19.0789 54.2224 15.2929 54.2224 15.2929C52.9314 15.9909 51.4014 16.0869 50.0354 15.5569Z" stroke="#1A1A1A" stroke-width="2" stroke-miterlimit="10" stroke-linecap="round" stroke-linejoin="round"/>
<path d="M25.8354 25.4689C25.8354 25.4689 26.7834 22.6979 28.7264 25.1779L29.3264 27.9029C29.1654 26.8779 29.0894 25.8409 29.0974 24.8029C29.2354 23.9879 29.4844 23.9339 30.2574 22.2579C31.3794 19.8269 31.2154 18.6079 30.5704 17.9899C30.7704 18.0419 30.9464 18.0899 31.0804 18.1359C33.4061 19.1099 34.7514 19.5779 35.6104 19.8699C38.6984 20.9169 46.7234 21.5769 50.2514 20.1469C52.8904 19.0789 54.2224 15.2929 54.2224 15.2929C52.9314 15.9909 51.4014 16.0869 50.0354 15.5569C47.0064 14.2879 43.5614 11.7369 39.4554 10.7229C36.6064 10.0229 33.4504 9.91191 30.4764 11.9899C27.9584 13.7439 25.2474 20.0799 25.8354 25.4689Z" stroke="#1A1A1A" stroke-width="2" stroke-linecap="round" stroke-linejoin="round"/>
</svg>
