<svg width="72" height="72" viewBox="0 0 72 72" fill="none" xmlns="http://www.w3.org/2000/svg">
<path d="M45.9517 51.7051L45.1828 57.1379" stroke="#1A1A1A" stroke-width="2" stroke-linecap="round" stroke-linejoin="round"/>
<path d="M30.8577 57.1371L30.3262 51.5625" stroke="#1A1A1A" stroke-width="2" stroke-linecap="round" stroke-linejoin="round"/>
<path d="M47.54 38.1895C49.3496 38.813 53.7491 40.5002 55.8964 42.8174C58.8642 46.0222 59.3749 55.8415 59.4299 57.1376" stroke="#1A1A1A" stroke-width="2" stroke-linecap="round" stroke-linejoin="round"/>
<path d="M53.5054 57.1378V48.2168" stroke="#1A1A1A" stroke-width="2" stroke-linecap="round" stroke-linejoin="round"/>
<path d="M12.0886 57.1378C12.3921 55.9606 15.495 44.064 17.5704 41.6598C19.5084 39.4138 28.4954 35.7598 28.4954 35.7598L30.0213 35.941" stroke="#1A1A1A" stroke-width="2" stroke-linecap="round" stroke-linejoin="round"/>
<path d="M20.3154 57.1372V47.3262" stroke="#1A1A1A" stroke-width="2" stroke-linecap="round" stroke-linejoin="round"/>
<path d="M39.6829 42.5879C39.6829 42.5879 40.9974 43.3423 40.9974 44.8953C40.9974 46.4483 39.5947 48.1417 39.5947 48.1417L41.4455 57.1373" stroke="#1A1A1A" stroke-width="2" stroke-linecap="round" stroke-linejoin="round"/>
<path d="M34.9458 57.1361L36.5697 48.1551C36.5697 48.1551 35.4198 46.3745 35.4198 44.8711C35.4198 43.3677 36.9292 42.4043 36.9292 42.4043" stroke="#1A1A1A" stroke-width="2" stroke-linecap="round" stroke-linejoin="round"/>
<path d="M44.1145 47.3267L47.0244 47.9339L46.8224 38.8047" stroke="#1A1A1A" stroke-width="2" stroke-linecap="round" stroke-linejoin="round"/>
<path d="M31.1405 47.325L28.7011 48.155L29.6561 34.8672" stroke="#1A1A1A" stroke-width="2" stroke-linecap="round" stroke-linejoin="round"/>
<path d="M46.9214 20.9668C47.8004 22.8647 48.3017 24.9223 48.3904 27.0233C48.5214 29.1683 48.4714 31.3203 48.2414 33.4563C48.0344 36.3903 46.6374 39.1113 44.3764 40.9903C42.5874 42.1723 40.4594 42.7343 38.3194 42.5903C34.2404 42.5473 30.1404 37.9903 28.7974 32.1373C28.5674 31.1313 27.4814 31.3363 26.6974 29.9943C25.9944 28.5963 25.6954 27.0283 25.8354 25.4693" stroke="#1A1A1A" stroke-width="2" stroke-linecap="round" stroke-linejoin="round"/>
<path d="M39.7204 33.1364C40.5704 33.3174 41.1114 34.1514 40.9304 34.9994L40.6774 36.1884C40.4964 37.0374 39.6624 37.5794 38.8144 37.3974C37.9654 37.2174 37.4224 36.3824 37.6034 35.5344L37.8564 34.3454C38.0374 33.4974 38.8724 32.9554 39.7204 33.1364Z" stroke="#1A1A1A" stroke-width="2" stroke-linecap="round" stroke-linejoin="round"/>
<path d="M43.1994 28.4355C44.304 28.4355 45.1994 27.5401 45.1994 26.4355C45.1994 25.331 44.304 24.4355 43.1994 24.4355C42.0948 24.4355 41.1994 25.331 41.1994 26.4355C41.1994 27.5401 42.0948 28.4355 43.1994 28.4355Z" fill="#1A1A1A"/>
<path d="M35.1494 28.4355C36.254 28.4355 37.1494 27.5401 37.1494 26.4355C37.1494 25.331 36.254 24.4355 35.1494 24.4355C34.0448 24.4355 33.1494 25.331 33.1494 26.4355C33.1494 27.5401 34.0448 28.4355 35.1494 28.4355Z" fill="#1A1A1A"/>
<path d="M50.3543 20.5762C50.707 24.1383 51.0585 28.9783 50.4694 29.3603C50.0852 29.6097 49.6998 29.8625 49.3215 30.111" stroke="#1A1A1A" stroke-width="2" stroke-linecap="round" stroke-linejoin="round"/>
<path d="M50.0354 15.5569C47.0064 14.2879 43.5614 11.7369 39.4554 10.7229C36.6064 10.0229 33.4504 9.91191 30.4764 11.9899C27.9584 13.7439 25.2474 20.0799 25.8354 25.4689C25.8354 25.4689 26.7834 22.6979 28.7264 25.1779L29.3264 27.9029C29.1654 26.8779 29.0894 25.8409 29.0974 24.8029C29.2354 23.9879 29.4844 23.9339 30.2574 22.2579C31.3794 19.8269 31.2154 18.6079 30.5704 17.9899C30.7704 18.0419 30.9464 18.0899 31.0804 18.1359C34.0494 19.1099 34.7514 19.5779 35.6104 19.8699C38.6984 20.9169 46.7234 21.5769 50.2514 20.1469C52.8904 19.0789 54.2224 15.2929 54.2224 15.2929C52.9314 15.9909 51.4014 16.0869 50.0354 15.5569Z" stroke="#1A1A1A" stroke-width="2" stroke-miterlimit="10" stroke-linecap="round" stroke-linejoin="round"/>
<path d="M25.8354 25.4689C25.8354 25.4689 26.7834 22.6979 28.7264 25.1779L29.3264 27.9029C29.1654 26.8779 29.0894 25.8409 29.0974 24.8029C29.2354 23.9879 29.4844 23.9339 30.2574 22.2579C31.3794 19.8269 31.2154 18.6079 30.5704 17.9899C30.7704 18.0419 30.9464 18.0899 31.0804 18.1359C33.4061 19.1099 34.7514 19.5779 35.6104 19.8699C38.6984 20.9169 46.7234 21.5769 50.2514 20.1469C52.8904 19.0789 54.2224 15.2929 54.2224 15.2929C52.9314 15.9909 51.4014 16.0869 50.0354 15.5569C47.0064 14.2879 43.5614 11.7369 39.4554 10.7229C36.6064 10.0229 33.4504 9.91191 30.4764 11.9899C27.9584 13.7439 25.2474 20.0799 25.8354 25.4689Z" stroke="#1A1A1A" stroke-width="2" stroke-linecap="round" stroke-linejoin="round"/>
</svg>
